{
copyright = "Copyright (c) 2014, Impallari Type (www.impallari.com), with Reserved Font Name Amika.";
customParameters = (
{
name = openTypeOS2Type;
value = (
);
},
{
name = licenseURL;
value = "http://scripts.sil.org/OFL";
},
{
name = license;
value = "This Font Software is licensed under the SIL Open Font License, Version 1.1. This license is available with a FAQ at: http://scripts.sil.org/OFL";
},
{
name = trademark;
value = "Libre Clarendon is a trademark of Impallari Type.";
},
{
name = description;
value = "Amika is a clean and utilitarian font family specifically designed for maximum legibility at the smallest possible sizes ranges. They are intended for body text on the web and low resolution screens. Amika supports Latin and Devanagari scripts.";
},
{
name = vendorID;
value = IMPA;
}
);
date = "2015-04-08 16:30:50 +0000";
designer = "Pablo Impallari, Rodrigo Fuenzalida";
designerURL = "http://www.impallari.com/";
familyName = "Amika Initial Migration from FL";
featurePrefixes = (
{
code = "languagesystem DFLT dflt;\012languagesystem dev2 dflt;\012languagesystem dev2 MAR ;\012languagesystem dev2 NEP ;\012languagesystem deva dflt;\012languagesystem deva MAR ;\012languagesystem deva NEP ;";
name = "FontLab OTPanel";
}
);
fontMaster = (
{
alignmentZones = (
"{754, 20}",
"{696, 20}",
"{522, 20}",
"{0, 0}",
"{-20, 20}",
"{-252, 20}"
);
ascender = 754;
capHeight = 696;
descender = -232;
id = UUID0;
weightValue = 400;
xHeight = 522;
},
{
alignmentZones = (
"{754, 20}",
"{696, 20}",
"{522, 20}",
"{20, -20}",
"{0, 0}",
"{-252, 20}"
);
ascender = 754;
capHeight = 696;
descender = -232;
id = "CD42366C-28E1-4C24-AB95-7D2C522D2B07";
weight = Bold;
weightValue = 700;
xHeight = 522;
}
);
glyphs = (
{
color = 1;
glyphname = A;
lastChange = "2015-06-08 01:23:03 +0000";
layers = (
{
anchors = (
{
name = ogonek;
position = "{565, 52}";
},
{
name = topUC;
position = "{341, 783}";
}
);
layerId = UUID0;
name = Regular;
paths = (
{
closed = 1;
nodes = (
"396 696 LINE",
"303 696 LINE",
"567 0 LINE",
"660 0 LINE"
);
},
{
closed = 1;
nodes = (
"374 696 LINE",
"286 696 LINE",
"22 0 LINE",
"110 0 LINE"
);
},
{
closed = 1;
nodes = (
"528 174 LINE",
"528 249 LINE",
"154 249 LINE",
"154 174 LINE"
);
}
);
width = 682;
},
{
anchors = (
{
name = ogonek;
position = "{565, 52}";
},
{
name = topUC;
position = "{341, 783}";
}
);
layerId = "CD42366C-28E1-4C24-AB95-7D2C522D2B07";
name = Bold;
paths = (
{
closed = 1;
nodes = (
"418 696 LINE",
"281 696 LINE",
"545 0 LINE",
"682 0 LINE"
);
},
{
closed = 1;
nodes = (
"396 696 LINE",
"264 696 LINE",
"0 0 LINE",
"132 0 LINE"
);
},
{
closed = 1;
nodes = (
"528 158 LINE",
"528 270 LINE",
"154 270 LINE",
"154 158 LINE"
);
}
);
width = 682;
}
);
unicode = 0041;
},
{
glyphname = Aringacute;
lastChange = "2015-04-08 16:24:57 +0000";
layers = (
{
components = (
{
name = A;
},
{
name = ring.cap;
transform = "{1, 0, 0, 1, 187, 0}";
}
);
layerId = UUID0;
name = Regular;
paths = (
{
closed = 1;
nodes = (
"270 800 LINE",
"198 776 LINE",
"212 732 LINE",
"279 743 LINE"
);
},
{
closed = 1;
nodes = (
"411 757 LINE",
"484 768 LINE",
"462 848 LINE",
"399 828 LINE"
);
}
);
width = 682;
},
{
components = (
{
name = A;
},
{
name = ring.cap;
transform = "{1, 0, 0, 1, 187, 0}";
}
);
layerId = "CD42366C-28E1-4C24-AB95-7D2C522D2B07";
name = Bold;
paths = (
{
closed = 1;
nodes = (
"270 822 LINE",
"176 798 LINE",
"190 710 LINE",
"279 721 LINE"
);
},
{
closed = 1;
nodes = (
"411 735 LINE",
"506 746 LINE",
"484 870 LINE",
"399 850 LINE"
);
}
);
width = 682;
}
);
unicode = 01FA;
},
{
color = 1;
glyphname = AE;
lastChange = "2015-06-08 01:23:03 +0000";
layers = (
{
anchors = (
{
name = topUC;
position = "{462, 783}";
}
);
layerId = UUID0;
name = Regular;
paths = (
{
closed = 1;
nodes = (
"451 0 LINE",
"858 0 LINE",
"858 84 LINE",
"539 84 LINE",
"539 312 LINE",
"836 312 LINE",
"836 392 LINE",
"539 392 LINE",
"539 612 LINE",
"858 612 LINE",
"858 696 LINE",
"383 696 LINE",
"22 0 LINE",
"118 0 LINE",
"209 174 LINE",
"451 174 LINE"
);
},
{
closed = 1;
nodes = (
"248 249 LINE",
"451 637 LINE",
"451 249 LINE"
);
}
);
width = 924;
},
{
anchors = (
{
name = topUC;
position = "{462, 783}";
}
);
layerId = "CD42366C-28E1-4C24-AB95-7D2C522D2B07";
name = Bold;
paths = (
{
closed = 1;
nodes = (
"451 0 LINE",
"880 0 LINE",
"880 117 LINE",
"583 117 LINE",
"583 297 LINE",
"858 297 LINE",
"858 407 LINE",
"583 407 LINE",
"583 579 LINE",
"880 579 LINE",
"880 696 LINE",
"361 696 LINE",
"0 0 LINE",
"140 0 LINE",
"225 161 LINE",
"451 161 LINE"
);
},
{
closed = 1;
nodes = (
"280 269 LINE",
"451 595 LINE",
"451 269 LINE"
);
}
);
width = 924;
}
);
unicode = 00C6;
},
{
color = 1;
glyphname = B;
lastChange = "2015-06-08 01:23:03 +0000";
layers = (
{
layerId = UUID0;
name = Regular;
paths = (
{
closed = 1;
nodes = (
"176 330 LINE",
"369 330 LINE SMOOTH",
"507 330 OFFCURVE",
"594 385 OFFCURVE",
"594 514 CURVE SMOOTH",
"594 639 OFFCURVE",
"513 696 OFFCURVE",
"381 696 CURVE SMOOTH",
"176 696 LINE",
"176 612 LINE",
"370 612 LINE SMOOTH",
"457 612 OFFCURVE",
"499 591 OFFCURVE",
"499 510 CURVE SMOOTH",
"499 424 OFFCURVE",
"459 397 OFFCURVE",
"369 397 CURVE SMOOTH",
"176 397 LINE"
);
},
{
closed = 1;
nodes = (
"110 0 LINE",
"369 0 LINE SMOOTH",
"519 0 OFFCURVE",
"616 56 OFFCURVE",
"616 195 CURVE SMOOTH",
"616 330 OFFCURVE",
"525 386 OFFCURVE",
"381 386 CURVE SMOOTH",
"198 386 LINE",
"198 696 LINE",
"110 696 LINE"
);
},
{
closed = 1;
nodes = (
"198 84 LINE",
"198 314 LINE",
"370 314 LINE SMOOTH",
"471 314 OFFCURVE",
"521 292 OFFCURVE",
"521 199 CURVE SMOOTH",
"521 106 OFFCURVE",
"471 84 OFFCURVE",
"369 84 CURVE SMOOTH"
);
}
);
width = 682;
},
{
layerId = "CD42366C-28E1-4C24-AB95-7D2C522D2B07";
name = Bold;
paths = (
{
closed = 1;
nodes = (
"176 330 LINE",
"369 330 LINE SMOOTH",
"530 330 OFFCURVE",
"616 394 OFFCURVE",
"616 513 CURVE SMOOTH",
"616 631 OFFCURVE",
"532 696 OFFCURVE",
"381 696 CURVE SMOOTH",
"176 696 LINE",
"176 580 LINE",
"370 580 LINE SMOOTH",
"450 580 OFFCURVE",
"477 561 OFFCURVE",
"477 500 CURVE SMOOTH",
"477 444 OFFCURVE",
"441 414 OFFCURVE",
"369 414 CURVE SMOOTH",
"176 414 LINE"
);
},
{
closed = 1;
nodes = (
"88 0 LINE",
"369 0 LINE SMOOTH",
"544 0 OFFCURVE",
"638 68 OFFCURVE",
"638 195 CURVE SMOOTH",
"638 319 OFFCURVE",
"548 386 OFFCURVE",
"381 386 CURVE SMOOTH",
"220 386 LINE",
"220 696 LINE",
"88 696 LINE"
);
},
{
closed = 1;
nodes = (
"220 117 LINE",
"220 299 LINE",
"370 299 LINE SMOOTH",
"458 299 OFFCURVE",
"499 270 OFFCURVE",
"499 208 CURVE SMOOTH",
"499 141 OFFCURVE",
"464 117 OFFCURVE",
"369 117 CURVE SMOOTH"
);
}
);
width = 682;
}
);
unicode = 0042;
},
{
color = 1;
glyphname = C;
lastChange = "2015-06-08 01:23:03 +0000";
layers = (
{
anchors = (
{
name = bottom;
position = "{341, -116}";
},
{
name = topUC;
position = "{396, 783}";
}
);
layerId = UUID0;
name = Regular;
paths = (
{
closed = 1;
nodes = (
"483 -12 OFFCURVE",
"547 8 OFFCURVE",
"616 63 CURVE",
"616 152 LINE",
"612 152 LINE",
"545 98 OFFCURVE",
"485 72 OFFCURVE",
"408 72 CURVE SMOOTH",
"245 72 OFFCURVE",
"161 187 OFFCURVE",
"161 348 CURVE SMOOTH",
"161 510 OFFCURVE",
"249 625 OFFCURVE",
"417 625 CURVE SMOOTH",
"481 625 OFFCURVE",
"535 608 OFFCURVE",
"599 565 CURVE",
"603 565 LINE",
"603 653 LINE",
"536 696 OFFCURVE",
"478 708 OFFCURVE",
"414 708 CURVE SMOOTH",
"190 708 OFFCURVE",
"66 562 OFFCURVE",
"66 348 CURVE SMOOTH",
"66 135 OFFCURVE",
"187 -12 OFFCURVE",
"404 -12 CURVE SMOOTH"
);
}
);
width = 682;
},
{
anchors = (
{
name = bottom;
position = "{341, -116}";
},
{
name = topUC;
position = "{341, 783}";
}
);
layerId = "CD42366C-28E1-4C24-AB95-7D2C522D2B07";
name = Bold;
paths = (
{
closed = 1;
nodes = (
"496 -12 OFFCURVE",
"580 17 OFFCURVE",
"638 68 CURVE",
"638 190 LINE",
"634 190 LINE",
"570 135 OFFCURVE",
"486 105 OFFCURVE",
"412 105 CURVE SMOOTH",
"272 105 OFFCURVE",
"183 190 OFFCURVE",
"183 348 CURVE SMOOTH",
"183 507 OFFCURVE",
"274 592 OFFCURVE",
"418 592 CURVE SMOOTH",
"481 592 OFFCURVE",
"562 572 OFFCURVE",
"621 527 CURVE",
"625 527 LINE",
"625 648 LINE",
"572 689 OFFCURVE",
"485 708 OFFCURVE",
"407 708 CURVE SMOOTH",
"176 708 OFFCURVE",
"44 567 OFFCURVE",
"44 348 CURVE SMOOTH",
"44 129 OFFCURVE",
"174 -12 OFFCURVE",
"401 -12 CURVE SMOOTH"
);
}
);
width = 682;
}
);
unicode = 0043;
},
{
color = 1;
glyphname = D;
lastChange = "2015-06-08 01:23:03 +0000";
layers = (
{
anchors = (
{
name = bottom;
position = "{374, -116}";
},
{
name = topUC;
position = "{374, 783}";
}
);
layerId = UUID0;
name = Regular;
paths = (
{
closed = 1;
nodes = (
"198 0 LINE",
"198 696 LINE",
"110 696 LINE",
"110 0 LINE"
);
},
{
closed = 1;
nodes = (
"365 0 LINE SMOOTH",
"574 0 OFFCURVE",
"684 133 OFFCURVE",
"684 348 CURVE SMOOTH",
"684 563 OFFCURVE",
"574 696 OFFCURVE",
"365 696 CURVE SMOOTH",
"154 696 LINE",
"154 612 LINE",
"372 612 LINE SMOOTH",
"521 612 OFFCURVE",
"589 507 OFFCURVE",
"589 348 CURVE SMOOTH",
"589 189 OFFCURVE",
"521 84 OFFCURVE",
"372 84 CURVE SMOOTH",
"154 84 LINE",
"154 0 LINE"
);
}
);
width = 748;
},
{
anchors = (
{
name = bottom;
position = "{374, -116}";
},
{
name = topUC;
position = "{374, 783}";
}
);
layerId = "CD42366C-28E1-4C24-AB95-7D2C522D2B07";
name = Bold;
paths = (
{
closed = 1;
nodes = (
"220 0 LINE",
"220 696 LINE",
"88 696 LINE",
"88 0 LINE"
);
},
{
closed = 1;
nodes = (
"365 0 LINE SMOOTH",
"582 0 OFFCURVE",
"706 136 OFFCURVE",
"706 348 CURVE SMOOTH",
"706 560 OFFCURVE",
"582 696 OFFCURVE",
"365 696 CURVE SMOOTH",
"154 696 LINE",
"154 579 LINE",
"365 579 LINE SMOOTH",
"489 579 OFFCURVE",
"567 502 OFFCURVE",
"567 348 CURVE SMOOTH",
"567 194 OFFCURVE",
"489 117 OFFCURVE",
"365 117 CURVE SMOOTH",
"154 117 LINE",
"154 0 LINE"
);
}
);
width = 748;
}
);
unicode = 0044;
},
{
glyphname = Eth;
lastChange = "2015-04-08 16:24:57 +0000";
layers = (
{
layerId = UUID0;
name = Regular;
paths = (
{
closed = 1;
nodes = (
"22 330 LINE",
"110 330 LINE",
"110 0 LINE",
"365 0 LINE SMOOTH",
"574 0 OFFCURVE",
"684 133 OFFCURVE",
"684 348 CURVE SMOOTH",
"684 563 OFFCURVE",
"574 696 OFFCURVE",
"365 696 CURVE SMOOTH",
"110 696 LINE",
"110 406 LINE",
"22 406 LINE"
);
},
{
closed = 1;
nodes = (
"372 612 LINE SMOOTH",
"521 612 OFFCURVE",
"589 507 OFFCURVE",
"589 348 CURVE SMOOTH",
"589 189 OFFCURVE",
"521 84 OFFCURVE",
"372 84 CURVE SMOOTH",
"198 84 LINE",
"198 330 LINE",
"374 330 LINE",
"374 406 LINE",
"198 406 LINE",
"198 612 LINE"
);
}
);
width = 748;
},
{
layerId = "CD42366C-28E1-4C24-AB95-7D2C522D2B07";
name = Bold;
paths = (
{
closed = 1;
nodes = (
"22 308 LINE",
"88 308 LINE",
"88 0 LINE",
"365 0 LINE SMOOTH",
"586 0 OFFCURVE",
"704 133 OFFCURVE",
"704 348 CURVE SMOOTH",
"704 563 OFFCURVE",
"586 696 OFFCURVE",
"365 696 CURVE SMOOTH",
"88 696 LINE",
"88 428 LINE",
"22 428 LINE"
);
},
{
closed = 1;
nodes = (
"372 579 LINE SMOOTH",
"504 579 OFFCURVE",
"565 487 OFFCURVE",
"565 348 CURVE SMOOTH",
"565 209 OFFCURVE",
"504 117 OFFCURVE",
"372 117 CURVE SMOOTH",
"220 117 LINE",
"220 308 LINE",
"374 308 LINE",
"374 428 LINE",
"220 428 LINE",
"220 579 LINE"
);
}
);
width = 748;
}
);
unicode = 00D0;
},
{
color = 1;
glyphname = E;
lastChange = "2015-06-08 01:23:03 +0000";
layers = (
{
anchors = (
{
name = bottom;
position = "{330, -116}";
},
{
name = ogonek;
position = "{550, 52}";
},
{
name = topUC;
position = "{330, 783}";
}
);
layerId = UUID0;
name = Regular;
paths = (
{
closed = 1;
nodes = (
"110 0 LINE",
"594 0 LINE",
"594 84 LINE",
"198 84 LINE",
"198 612 LINE",
"594 612 LINE",
"594 696 LINE",
"110 696 LINE"
);
},
{
closed = 1;
nodes = (
"572 312 LINE",
"572 392 LINE",
"154 392 LINE",
"154 312 LINE"
);
}
);
width = 660;
},
{
anchors = (
{
name = bottom;
position = "{330, -116}";
},
{
name = ogonek;
position = "{550, 52}";
},
{
name = topUC;
position = "{330, 783}";
}
);
layerId = "CD42366C-28E1-4C24-AB95-7D2C522D2B07";
name = Bold;
paths = (
{
closed = 1;
nodes = (
"88 0 LINE",
"594 0 LINE",
"594 116 LINE",
"220 116 LINE",
"220 580 LINE",
"594 580 LINE",
"594 696 LINE",
"88 696 LINE"
);
},
{
closed = 1;
nodes = (
"572 297 LINE",
"572 406 LINE",
"154 406 LINE",
"154 297 LINE"
);
}
);
width = 660;
}
);
unicode = 0045;
},
{
color = 1;
glyphname = F;
lastChange = "2015-06-08 01:23:03 +0000";
layers = (
{
layerId = UUID0;
name = Regular;
paths = (
{
closed = 1;
nodes = (
"594 612 LINE",
"594 696 LINE",
"110 696 LINE",
"110 0 LINE",
"198 0 LINE",
"198 612 LINE"
);
},
{
closed = 1;
nodes = (
"528 300 LINE",
"528 380 LINE",
"154 380 LINE",
"154 300 LINE"
);
}
);
width = 638;
},
{
layerId = "CD42366C-28E1-4C24-AB95-7D2C522D2B07";
name = Bold;
paths = (
{
closed = 1;
nodes = (
"594 580 LINE",
"594 696 LINE",
"88 696 LINE",
"88 0 LINE",
"220 0 LINE",
"220 580 LINE"
);
},
{
closed = 1;
nodes = (
"528 285 LINE",
"528 395 LINE",
"154 395 LINE",
"154 285 LINE"
);
}
);
width = 638;
}
);
unicode = 0046;
},
{
color = 1;
glyphname = G;
lastChange = "2015-06-08 01:23:03 +0000";
layers = (
{
anchors = (
{
name = bottom;
position = "{363, -116}";
},
{
name = topUC;
position = "{363, 783}";
}
);
layerId = UUID0;
name = Regular;
paths = (
{
closed = 1;
nodes = (
"496 -12 OFFCURVE",
"585 46 OFFCURVE",
"649 157 CURVE",
"649 233 LINE",
"634 233 LINE",
"568 136 OFFCURVE",
"496 71 OFFCURVE",
"380 71 CURVE SMOOTH",
"234 71 OFFCURVE",
"161 193 OFFCURVE",
"161 351 CURVE SMOOTH",
"161 510 OFFCURVE",
"249 625 OFFCURVE",
"401 625 CURVE SMOOTH",
"483 625 OFFCURVE",
"544 606 OFFCURVE",
"612 559 CURVE",
"616 559 LINE",
"616 647 LINE",
"546 694 OFFCURVE",
"482 708 OFFCURVE",
"397 708 CURVE SMOOTH",
"191 708 OFFCURVE",
"66 560 OFFCURVE",
"66 348 CURVE SMOOTH",
"66 141 OFFCURVE",
"174 -12 OFFCURVE",
"369 -12 CURVE SMOOTH"
);
},
{
closed = 1;
nodes = (
"418 290 LINE",
"660 290 LINE",
"660 367 LINE",
"418 367 LINE"
);
},
{
closed = 1;
nodes = (
"594 0 LINE",
"660 0 LINE",
"660 309 LINE",
"572 309 LINE",
"572 116 LINE"
);
}
);
width = 726;
},
{
anchors = (
{
name = bottom;
position = "{363, -116}";
},
{
name = topUC;
position = "{363, 783}";
}
);
layerId = "CD42366C-28E1-4C24-AB95-7D2C522D2B07";
name = Bold;
paths = (
{
closed = 1;
nodes = (
"487 -12 OFFCURVE",
"584 46 OFFCURVE",
"649 157 CURVE",
"649 255 LINE",
"634 255 LINE",
"564 159 OFFCURVE",
"473 104 OFFCURVE",
"382 104 CURVE SMOOTH",
"261 104 OFFCURVE",
"183 203 OFFCURVE",
"183 351 CURVE SMOOTH",
"183 501 OFFCURVE",
"264 592 OFFCURVE",
"405 592 CURVE SMOOTH",
"479 592 OFFCURVE",
"569 567 OFFCURVE",
"634 526 CURVE",
"638 526 LINE",
"638 647 LINE",
"579 683 OFFCURVE",
"491 708 OFFCURVE",
"399 708 CURVE SMOOTH",
"182 708 OFFCURVE",
"44 571 OFFCURVE",
"44 348 CURVE SMOOTH",
"44 131 OFFCURVE",
"175 -12 OFFCURVE",
"366 -12 CURVE SMOOTH"
);
},
{
closed = 1;
nodes = (
"418 257 LINE",
"682 257 LINE",
"682 367 LINE",
"418 367 LINE"
);
},
{
closed = 1;
nodes = (
"594 0 LINE",
"682 0 LINE",
"682 309 LINE",
"550 309 LINE",
"550 116 LINE"
);
}
);
width = 726;
}
);
unicode = 0047;
},
{
color = 1;
glyphname = H;
lastChange = "2015-06-08 01:23:03 +0000";
layers = (
{
anchors = (
{
name = bottom;
position = "{385, -116}";
},
{
name = topUC;
position = "{385, 783}";
}
);
guideLines = (
{
position = "{375, 996}";
}
);
layerId = UUID0;
name = Regular;
paths = (
{
closed = 1;
nodes = (
"110 0 LINE",
"198 0 LINE",
"198 696 LINE",
"110 696 LINE"
);
},
{
closed = 1;
nodes = (
"572 0 LINE",
"660 0 LINE",
"660 696 LINE",
"572 696 LINE"
);
},
{
closed = 1;
nodes = (
"616 322 LINE",
"616 406 LINE",
"154 406 LINE",
"154 322 LINE"
);
}
);
width = 770;
},
{
anchors = (
{
name = bottom;
position = "{385, -116}";
},
{
name = topUC;
position = "{385, 783}";
}
);
layerId = "CD42366C-28E1-4C24-AB95-7D2C522D2B07";
name = Bold;
paths = (
{
closed = 1;
nodes = (
"88 0 LINE",
"220 0 LINE",
"220 696 LINE",
"88 696 LINE"
);
},
{
closed = 1;
nodes = (
"550 0 LINE",
"682 0 LINE",
"682 696 LINE",
"550 696 LINE"
);
},
{
closed = 1;
nodes = (
"616 306 LINE",
"616 423 LINE",
"154 423 LINE",
"154 306 LINE"
);
}
);
width = 770;
}
);
unicode = 0048;
},
{
color = 1;
glyphname = I;
lastChange = "2015-06-08 01:23:03 +0000";
layers = (
{
anchors = (
{
name = bottom;
position = "{242, -116}";
},
{
name = ogonek;
position = "{242, 52}";
},
{
name = topUC;
position = "{242, 783}";
}
);
layerId = UUID0;
name = Regular;
paths = (
{
closed = 1;
nodes = (
"286 58 LINE",
"286 638 LINE",
"198 638 LINE",
"198 58 LINE"
);
},
{
closed = 1;
nodes = (
"418 0 LINE",
"418 77 LINE",
"66 77 LINE",
"66 0 LINE"
);
},
{
closed = 1;
nodes = (
"418 619 LINE",
"418 696 LINE",
"66 696 LINE",
"66 619 LINE"
);
}
);
width = 484;
},
{
anchors = (
{
name = bottom;
position = "{242, -116}";
},
{
name = ogonek;
position = "{242, 52}";
},
{
name = topUC;
position = "{242, 783}";
}
);
layerId = "CD42366C-28E1-4C24-AB95-7D2C522D2B07";
name = Bold;
paths = (
{
closed = 1;
nodes = (
"308 58 LINE",
"308 638 LINE",
"176 638 LINE",
"176 58 LINE"
);
},
{
closed = 1;
nodes = (
"418 0 LINE",
"418 115 LINE",
"66 115 LINE",
"66 0 LINE"
);
},
{
closed = 1;
nodes = (
"418 581 LINE",
"418 696 LINE",
"66 696 LINE",
"66 581 LINE"
);
}
);
width = 484;
}
);
unicode = 0049;
},
{
color = 1;
glyphname = J;
lastChange = "2015-06-08 01:23:03 +0000";
layers = (
{
anchors = (
{
name = topUC;
position = "{297, 783}";
}
);
layerId = UUID0;
name = Regular;
paths = (
{
closed = 1;
nodes = (
"176 612 LINE",
"418 612 LINE",
"418 247 LINE SMOOTH",
"418 143 OFFCURVE",
"372 71 OFFCURVE",
"275 71 CURVE SMOOTH",
"178 71 OFFCURVE",
"132 143 OFFCURVE",
"132 247 CURVE SMOOTH",
"132 261 LINE",
"44 261 LINE",
"44 244 LINE SMOOTH",
"44 89 OFFCURVE",
"125 -12 OFFCURVE",
"275 -12 CURVE SMOOTH",
"425 -12 OFFCURVE",
"506 89 OFFCURVE",
"506 244 CURVE SMOOTH",
"506 696 LINE",
"176 696 LINE"
);
}
);
width = 594;
},
{
anchors = (
{
name = topUC;
position = "{297, 783}";
}
);
layerId = "CD42366C-28E1-4C24-AB95-7D2C522D2B07";
name = Bold;
paths = (
{
closed = 1;
nodes = (
"176 579 LINE",
"396 579 LINE",
"396 247 LINE SMOOTH",
"396 148 OFFCURVE",
"350 104 OFFCURVE",
"277 104 CURVE SMOOTH",
"200 104 OFFCURVE",
"154 154 OFFCURVE",
"154 247 CURVE SMOOTH",
"154 261 LINE",
"22 261 LINE",
"22 244 LINE SMOOTH",
"22 85 OFFCURVE",
"116 -12 OFFCURVE",
"278 -12 CURVE SMOOTH",
"432 -12 OFFCURVE",
"528 75 OFFCURVE",
"528 244 CURVE SMOOTH",
"528 696 LINE",
"176 696 LINE"
);
}
);
width = 594;
}
);
unicode = 004A;
},
{
color = 1;
glyphname = K;
lastChange = "2015-06-08 01:23:03 +0000";
layers = (
{
anchors = (
{
name = bottom;
position = "{352, -116}";
}
);
layerId = UUID0;
name = Regular;
paths = (
{
closed = 1;
nodes = (
"198 0 LINE",
"198 696 LINE",
"110 696 LINE",
"110 0 LINE"
);
},
{
closed = 1;
nodes = (
"181 199 LINE",
"660 696 LINE",
"553 696 LINE",
"167 295 LINE"
);
},
{
closed = 1;
nodes = (
"682 0 LINE",
"369 405 LINE",
"287 361 LINE",
"564 0 LINE"
);
}
);
width = 704;
},
{
anchors = (
{
name = bottom;
position = "{352, -116}";
}
);
layerId = "CD42366C-28E1-4C24-AB95-7D2C522D2B07";
name = Bold;
paths = (
{
closed = 1;
nodes = (
"220 0 LINE",
"220 696 LINE",
"88 696 LINE",
"88 0 LINE"
);
},
{
closed = 1;
nodes = (
"203 199 LINE",
"682 696 LINE",
"520 696 LINE",
"134 295 LINE"
);
},
{
closed = 1;
nodes = (
"704 0 LINE",
"391 405 LINE",
"260 361 LINE",
"537 0 LINE"
);
}
);
width = 704;
}
);
unicode = 004B;
},
{
color = 1;
glyphname = L;
lastChange = "2015-06-08 01:23:03 +0000";
layers = (
{
anchors = (
{
name = bottom;
position = "{308, -116}";
},
{
name = caronalt;
position = "{510, 638}";
},
{
name = periodcentered;
position = "{510, 348}";
},
{
name = topUC;
position = "{308, 783}";
}
);
layerId = UUID0;
name = Regular;
paths = (
{
closed = 1;
nodes = (
"110 0 LINE",
"572 0 LINE",
"572 84 LINE",
"198 84 LINE",
"198 696 LINE",
"110 696 LINE"
);
}
);
width = 616;
},
{
anchors = (
{
name = bottom;
position = "{308, -116}";
},
{
name = caronalt;
position = "{510, 638}";
},
{
name = periodcentered;
position = "{510, 348}";
},
{
name = topUC;
position = "{308, 783}";
}
);
layerId = "CD42366C-28E1-4C24-AB95-7D2C522D2B07";
name = Bold;
paths = (
{
closed = 1;
nodes = (
"88 0 LINE",
"220 0 LINE",
"220 696 LINE",
"88 696 LINE"
);
},
{
closed = 1;
nodes = (
"572 0 LINE",
"572 116 LINE",
"155 116 LINE",
"155 0 LINE"
);
}
);
width = 616;
}
);
unicode = 004C;
},
{
glyphname = Lslash;
lastChange = "2015-04-08 16:24:57 +0000";
layers = (
{
components = (
{
name = L;
}
);
layerId = UUID0;
name = Regular;
paths = (
{
closed = 1;
nodes = (
"22 231 LINE",
"374 372 LINE",
"374 458 LINE",
"22 312 LINE"
);
}
);
width = 616;
},
{
components = (
{
name = L;
}
);
layerId = "CD42366C-28E1-4C24-AB95-7D2C522D2B07";
name = Bold;
paths = (
{
closed = 1;
nodes = (
"22 209 LINE",
"374 350 LINE",
"374 480 LINE",
"22 334 LINE"
);
}
);
width = 616;
}
);
unicode = 0141;
},
{
color = 1;
glyphname = M;
lastChange = "2015-06-08 01:23:03 +0000";
layers = (
{
layerId = UUID0;
name = Regular;
paths = (
{
closed = 1;
nodes = (
"413 0 LINE",
"506 0 LINE",
"258 696 LINE",
"165 696 LINE"
);
},
{
closed = 1;
nodes = (
"427 0 LINE",
"515 0 LINE",
"757 696 LINE",
"669 696 LINE"
);
},
{
closed = 1;
nodes = (
"110 0 LINE",
"198 0 LINE",
"198 696 LINE",
"110 696 LINE"
);
},
{
closed = 1;
nodes = (
"726 0 LINE",
"814 0 LINE",
"814 696 LINE",
"726 696 LINE"
);
}
);
width = 924;
},
{
layerId = "CD42366C-28E1-4C24-AB95-7D2C522D2B07";
name = Bold;
paths = (
{
closed = 1;
nodes = (
"391 0 LINE",
"528 0 LINE",
"280 696 LINE",
"143 696 LINE"
);
},
{
closed = 1;
nodes = (
"405 0 LINE",
"537 0 LINE",
"779 696 LINE",
"647 696 LINE"
);
},
{
closed = 1;
nodes = (
"88 0 LINE",
"220 0 LINE",
"220 696 LINE",
"88 696 LINE"
);
},
{
closed = 1;
nodes = (
"704 0 LINE",
"836 0 LINE",
"836 696 LINE",
"704 696 LINE"
);
}
);
width = 924;
}
);
unicode = 004D;
},
{
color = 1;
glyphname = N;
lastChange = "2015-06-08 01:23:03 +0000";
layers = (
{
anchors = (
{
name = bottom;
position = "{396, -116}";
},
{
name = topUC;
position = "{396, 783}";
}
);
layerId = UUID0;
name = Regular;
paths = (
{
closed = 1;
nodes = (
"110 0 LINE",
"198 0 LINE",
"198 696 LINE",
"110 696 LINE"
);
},
{
closed = 1;
nodes = (
"594 0 LINE",
"682 0 LINE",
"682 696 LINE",
"594 696 LINE"
);
},
{
closed = 1;
nodes = (
"594 0 LINE",
"676 30 LINE",
"198 696 LINE",
"116 666 LINE"
);
}
);
width = 792;
},
{
anchors = (
{
name = bottom;
position = "{396, -116}";
},
{
name = topUC;
position = "{396, 783}";
}
);
layerId = "CD42366C-28E1-4C24-AB95-7D2C522D2B07";
name = Bold;
paths = (
{
closed = 1;
nodes = (
"88 0 LINE",
"220 0 LINE",
"220 696 LINE",
"88 696 LINE"
);
},
{
closed = 1;
nodes = (
"572 0 LINE",
"691 55 LINE",
"220 696 LINE",
"101 642 LINE"
);
},
{
closed = 1;
nodes = (
"572 0 LINE",
"704 0 LINE",
"704 696 LINE",
"572 696 LINE"
);
}
);
width = 792;
}
);
unicode = 004E;
},
{
glyphname = Eng;
lastChange = "2015-04-08 16:24:57 +0000";
layers = (
{
components = (
{
name = N;
}
);
layerId = UUID0;
name = Regular;
paths = (
{
closed = 1;
nodes = (
"594 446 LINE",
"594 -60 LINE SMOOTH",
"594 -124 OFFCURVE",
"570 -167 OFFCURVE",
"511 -167 CURVE SMOOTH",
"482 -167 OFFCURVE",
"466 -164 OFFCURVE",
"440 -151 CURVE",
"440 -227 LINE",
"469 -243 OFFCURVE",
"490 -244 OFFCURVE",
"523 -244 CURVE SMOOTH",
"631 -244 OFFCURVE",
"682 -173 OFFCURVE",
"682 -60 CURVE SMOOTH",
"682 522 LINE"
);
}
);
width = 792;
},
{
components = (
{
name = N;
}
);
layerId = "CD42366C-28E1-4C24-AB95-7D2C522D2B07";
name = Bold;
paths = (
{
closed = 1;
nodes = (
"572 446 LINE",
"572 -49 LINE SMOOTH",
"572 -105 OFFCURVE",
"554 -134 OFFCURVE",
"501 -134 CURVE SMOOTH",
"475 -134 OFFCURVE",
"448 -127 OFFCURVE",
"418 -107 CURVE",
"418 -216 LINE",
"453 -241 OFFCURVE",
"483 -244 OFFCURVE",
"511 -244 CURVE SMOOTH",
"651 -244 OFFCURVE",
"704 -169 OFFCURVE",
"704 -49 CURVE SMOOTH",
"704 522 LINE"
);
}
);
width = 792;
}
);
unicode = 014A;
},
{
color = 1;
glyphname = O;
lastChange = "2015-06-08 01:23:03 +0000";
layers = (
{
anchors = (
{
name = bottom;
position = "{385, -116}";
},
{
name = ogonek;
position = "{385, 52}";
},
{
name = topUC;
position = "{385, 783}";
}
);
layerId = UUID0;
name = Regular;
paths = (
{
closed = 1;
nodes = (
"590 -12 OFFCURVE",
"704 134 OFFCURVE",
"704 348 CURVE SMOOTH",
"704 562 OFFCURVE",
"590 708 OFFCURVE",
"385 708 CURVE SMOOTH",
"180 708 OFFCURVE",
"66 562 OFFCURVE",
"66 348 CURVE SMOOTH",
"66 134 OFFCURVE",
"180 -12 OFFCURVE",
"385 -12 CURVE SMOOTH"
);
},
{
closed = 1;
nodes = (
"231 68 OFFCURVE",
"161 183 OFFCURVE",
"161 348 CURVE SMOOTH",
"161 513 OFFCURVE",
"231 628 OFFCURVE",
"385 628 CURVE SMOOTH",
"539 628 OFFCURVE",
"609 513 OFFCURVE",
"609 348 CURVE SMOOTH",
"609 183 OFFCURVE",
"539 68 OFFCURVE",
"385 68 CURVE SMOOTH"
);
}
);
width = 770;
},
{
anchors = (
{
name = bottom;
position = "{385, -116}";
},
{
name = ogonek;
position = "{385, 52}";
},
{
name = topUC;
position = "{385, 783}";
}
);
layerId = "CD42366C-28E1-4C24-AB95-7D2C522D2B07";
name = Bold;
paths = (
{
closed = 1;
nodes = (
"602 -12 OFFCURVE",
"726 129 OFFCURVE",
"726 348 CURVE SMOOTH",
"726 567 OFFCURVE",
"602 708 OFFCURVE",
"385 708 CURVE SMOOTH",
"168 708 OFFCURVE",
"44 567 OFFCURVE",
"44 348 CURVE SMOOTH",
"44 129 OFFCURVE",
"168 -12 OFFCURVE",
"385 -12 CURVE SMOOTH"
);
},
{
closed = 1;
nodes = (
"261 110 OFFCURVE",
"183 193 OFFCURVE",
"183 348 CURVE SMOOTH",
"183 503 OFFCURVE",
"261 586 OFFCURVE",
"385 586 CURVE SMOOTH",
"509 586 OFFCURVE",
"587 503 OFFCURVE",
"587 348 CURVE SMOOTH",
"587 193 OFFCURVE",
"509 110 OFFCURVE",
"385 110 CURVE SMOOTH"
);
}
);
width = 770;
}
);
unicode = 004F;
},
{
glyphname = Oslash;
lastChange = "2015-04-08 16:24:57 +0000";
layers = (
{
anchors = (
{
name = topUC;
position = "{385, 783}";
}
);
layerId = UUID0;
name = Regular;
paths = (
{
closed = 1;
nodes = (
"176 0 LINE",
"205 38 LINE",
"253 6 OFFCURVE",
"313 -12 OFFCURVE",
"385 -12 CURVE SMOOTH",
"590 -12 OFFCURVE",
"704 134 OFFCURVE",
"704 348 CURVE SMOOTH",
"704 449 OFFCURVE",
"678 536 OFFCURVE",
"629 598 CURVE",
"704 696 LINE",
"595 696 LINE",
"566 657 LINE",
"517 690 OFFCURVE",
"456 708 OFFCURVE",
"385 708 CURVE SMOOTH",
"180 708 OFFCURVE",
"66 562 OFFCURVE",
"66 348 CURVE SMOOTH",
"66 247 OFFCURVE",
"91 161 OFFCURVE",
"140 98 CURVE",
"65 0 LINE"
);
},
{
closed = 1;
nodes = (
"332 68 OFFCURVE",
"289 81 OFFCURVE",
"256 105 CURVE",
"572 522 LINE",
"597 476 OFFCURVE",
"609 416 OFFCURVE",
"609 348 CURVE SMOOTH",
"609 183 OFFCURVE",
"539 68 OFFCURVE",
"385 68 CURVE SMOOTH"
);
},
{
closed = 1;
nodes = (
"161 513 OFFCURVE",
"231 628 OFFCURVE",
"385 628 CURVE SMOOTH",
"438 628 OFFCURVE",
"481 614 OFFCURVE",
"514 590 CURVE",
"197 174 LINE",
"173 220 OFFCURVE",
"161 280 OFFCURVE",
"161 348 CURVE SMOOTH"
);
}
);
width = 770;
},
{
anchors = (
{
name = topUC;
position = "{385, 783}";
}
);
layerId = "CD42366C-28E1-4C24-AB95-7D2C522D2B07";
name = Bold;
paths = (
{
closed = 1;
nodes = (
"602 -12 OFFCURVE",
"726 129 OFFCURVE",
"726 348 CURVE SMOOTH",
"726 567 OFFCURVE",
"602 708 OFFCURVE",
"385 708 CURVE SMOOTH",
"168 708 OFFCURVE",
"44 567 OFFCURVE",
"44 348 CURVE SMOOTH",
"44 129 OFFCURVE",
"168 -12 OFFCURVE",
"385 -12 CURVE SMOOTH"
);
},
{
closed = 1;
nodes = (
"261 110 OFFCURVE",
"183 193 OFFCURVE",
"183 348 CURVE SMOOTH",
"183 503 OFFCURVE",
"261 586 OFFCURVE",
"385 586 CURVE SMOOTH",
"509 586 OFFCURVE",
"587 503 OFFCURVE",
"587 348 CURVE SMOOTH",
"587 193 OFFCURVE",
"509 110 OFFCURVE",
"385 110 CURVE SMOOTH"
);
},
{
closed = 1;
nodes = (
"22 0 LINE",
"176 0 LINE",
"748 696 LINE",
"594 696 LINE"
);
}
);
width = 770;
}
);
unicode = 00D8;
},
{
color = 1;
glyphname = P;
lastChange = "2015-06-08 01:23:03 +0000";
layers = (
{
layerId = UUID0;
name = Regular;
paths = (
{
closed = 1;
nodes = (
"110 0 LINE",
"198 0 LINE",
"198 232 LINE",
"385 232 LINE SMOOTH",
"550 232 OFFCURVE",
"638 314 OFFCURVE",
"638 468 CURVE SMOOTH",
"638 620 OFFCURVE",
"552 696 OFFCURVE",
"378 696 CURVE SMOOTH",
"110 696 LINE"
);
},
{
closed = 1;
nodes = (
"198 314 LINE",
"198 612 LINE",
"378 612 LINE SMOOTH",
"498 612 OFFCURVE",
"543 571 OFFCURVE",
"543 464 CURVE SMOOTH",
"543 357 OFFCURVE",
"497 314 OFFCURVE",
"382 314 CURVE SMOOTH"
);
}
);
width = 682;
},
{
layerId = "CD42366C-28E1-4C24-AB95-7D2C522D2B07";
name = Bold;
paths = (
{
closed = 1;
nodes = (
"88 696 LINE",
"88 0 LINE",
"220 0 LINE",
"220 232 LINE",
"386 232 LINE SMOOTH",
"568 232 OFFCURVE",
"660 321 OFFCURVE",
"660 468 CURVE SMOOTH",
"660 613 OFFCURVE",
"570 696 OFFCURVE",
"374 696 CURVE SMOOTH"
);
},
{
closed = 1;
nodes = (
"374 579 LINE SMOOTH",
"474 579 OFFCURVE",
"521 550 OFFCURVE",
"521 465 CURVE SMOOTH",
"521 377 OFFCURVE",
"471 347 OFFCURVE",
"375 347 CURVE SMOOTH",
"220 347 LINE",
"220 579 LINE"
);
}
);
width = 682;
}
);
unicode = 0050;
},
{
color = 1;
glyphname = Thorn;
lastChange = "2015-06-08 01:23:03 +0000";
layers = (
{
layerId = UUID0;
name = Regular;
paths = (
{
closed = 1;
nodes = (
"110 0 LINE",
"198 0 LINE",
"198 115 LINE",
"385 115 LINE SMOOTH",
"550 115 OFFCURVE",
"638 197 OFFCURVE",
"638 351 CURVE SMOOTH",
"638 503 OFFCURVE",
"552 579 OFFCURVE",
"378 579 CURVE SMOOTH",
"198 579 LINE",
"198 696 LINE",
"110 696 LINE"
);
},
{
closed = 1;
nodes = (
"198 197 LINE",
"198 495 LINE",
"378 495 LINE SMOOTH",
"498 495 OFFCURVE",
"543 454 OFFCURVE",
"543 347 CURVE SMOOTH",
"543 240 OFFCURVE",
"497 197 OFFCURVE",
"382 197 CURVE SMOOTH"
);
}
);
width = 704;
},
{
layerId = "CD42366C-28E1-4C24-AB95-7D2C522D2B07";
name = Bold;
paths = (
{
closed = 1;
nodes = (
"88 0 LINE",
"220 0 LINE",
"220 115 LINE",
"407 115 LINE SMOOTH",
"572 115 OFFCURVE",
"660 197 OFFCURVE",
"660 351 CURVE SMOOTH",
"660 503 OFFCURVE",
"574 579 OFFCURVE",
"400 579 CURVE SMOOTH",
"220 579 LINE",
"220 696 LINE",
"88 696 LINE"
);
},
{
closed = 1;
nodes = (
"220 230 LINE",
"220 462 LINE",
"378 462 LINE SMOOTH",
"482 462 OFFCURVE",
"521 430 OFFCURVE",
"521 347 CURVE SMOOTH",
"521 264 OFFCURVE",
"481 230 OFFCURVE",
"382 230 CURVE SMOOTH"
);
}
);
width = 704;
}
);
unicode = 00DE;
},
{
color = 1;
glyphname = Q;
lastChange = "2015-06-08 01:23:03 +0000";
layers = (
{
layerId = UUID0;
name = Regular;
paths = (
{
closed = 1;
nodes = (
"581 -153 LINE",
"401 58 LINE",
"318 40 LINE",
"494 -208 LINE"
);
},
{
closed = 1;
nodes = (
"590 -12 OFFCURVE",
"704 134 OFFCURVE",
"704 348 CURVE SMOOTH",
"704 562 OFFCURVE",
"590 708 OFFCURVE",
"385 708 CURVE SMOOTH",
"180 708 OFFCURVE",
"66 562 OFFCURVE",
"66 348 CURVE SMOOTH",
"66 134 OFFCURVE",
"180 -12 OFFCURVE",
"385 -12 CURVE SMOOTH"
);
},
{
closed = 1;
nodes = (
"231 68 OFFCURVE",
"161 183 OFFCURVE",
"161 348 CURVE SMOOTH",
"161 513 OFFCURVE",
"231 628 OFFCURVE",
"385 628 CURVE SMOOTH",
"539 628 OFFCURVE",
"609 513 OFFCURVE",
"609 348 CURVE SMOOTH",
"609 183 OFFCURVE",
"539 68 OFFCURVE",
"385 68 CURVE SMOOTH"
);
}
);
width = 770;
},
{
layerId = "CD42366C-28E1-4C24-AB95-7D2C522D2B07";
name = Bold;
paths = (
{
closed = 1;
nodes = (
"602 -12 OFFCURVE",
"726 129 OFFCURVE",
"726 348 CURVE SMOOTH",
"726 567 OFFCURVE",
"602 708 OFFCURVE",
"385 708 CURVE SMOOTH",
"168 708 OFFCURVE",
"44 567 OFFCURVE",
"44 348 CURVE SMOOTH",
"44 129 OFFCURVE",
"168 -12 OFFCURVE",
"385 -12 CURVE SMOOTH"
);
},
{
closed = 1;
nodes = (
"261 101 OFFCURVE",
"183 186 OFFCURVE",
"183 348 CURVE SMOOTH",
"183 510 OFFCURVE",
"261 595 OFFCURVE",
"385 595 CURVE SMOOTH",
"509 595 OFFCURVE",
"587 510 OFFCURVE",
"587 348 CURVE SMOOTH",
"587 186 OFFCURVE",
"509 101 OFFCURVE",
"385 101 CURVE SMOOTH"
);
},
{
closed = 1;
nodes = (
"603 -153 LINE",
"423 58 LINE",
"296 40 LINE",
"483 -230 LINE"
);
}
);
width = 770;
}
);
unicode = 0051;
},
{
color = 1;
glyphname = R;
lastChange = "2015-06-08 01:23:03 +0000";
layers = (
{
anchors = (
{
name = bottom;
position = "{341, -116}";
},
{
name = topUC;
position = "{341, 783}";
}
);
layerId = UUID0;
name = Regular;
paths = (
{
closed = 1;
nodes = (
"110 696 LINE",
"110 0 LINE",
"198 0 LINE",
"198 265 LINE",
"381 265 LINE SMOOTH",
"536 265 OFFCURVE",
"616 349 OFFCURVE",
"616 484 CURVE SMOOTH",
"616 620 OFFCURVE",
"538 696 OFFCURVE",
"369 696 CURVE SMOOTH"
);
},
{
closed = 1;
nodes = (
"369 612 LINE SMOOTH",
"471 612 OFFCURVE",
"521 580 OFFCURVE",
"521 484 CURVE SMOOTH",
"521 381 OFFCURVE",
"470 348 OFFCURVE",
"370 348 CURVE SMOOTH",
"198 348 LINE",
"198 612 LINE"
);
},
{
closed = 1;
nodes = (
"638 0 LINE",
"467 318 LINE",
"386 274 LINE",
"532 0 LINE"
);
}
);
width = 682;
},
{
anchors = (
{
name = bottom;
position = "{341, -116}";
},
{
name = topUC;
position = "{341, 783}";
}
);
layerId = "CD42366C-28E1-4C24-AB95-7D2C522D2B07";
name = Bold;
paths = (
{
closed = 1;
nodes = (
"88 696 LINE",
"88 0 LINE",
"220 0 LINE",
"220 265 LINE",
"381 265 LINE SMOOTH",
"551 265 OFFCURVE",
"638 349 OFFCURVE",
"638 485 CURVE SMOOTH",
"638 620 OFFCURVE",
"552 696 OFFCURVE",
"369 696 CURVE SMOOTH"
);
},
{
closed = 1;
nodes = (
"369 579 LINE SMOOTH",
"457 579 OFFCURVE",
"499 555 OFFCURVE",
"499 482 CURVE SMOOTH",
"499 406 OFFCURVE",
"454 381 OFFCURVE",
"370 381 CURVE SMOOTH",
"220 381 LINE",
"220 579 LINE"
);
},
{
closed = 1;
nodes = (
"660 0 LINE",
"489 318 LINE",
"364 274 LINE",
"510 0 LINE"
);
}
);
width = 682;
}
);
unicode = 0052;
},
{
color = 1;
glyphname = S;
lastChange = "2015-06-08 01:23:03 +0000";
layers = (
{
anchors = (
{
name = bottom;
position = "{319, -116}";
},
{
name = topUC;
position = "{319, 783}";
}
);
layerId = UUID0;
name = Regular;
paths = (
{
closed = 1;
nodes = (
"470 -12 OFFCURVE",
"572 69 OFFCURVE",
"572 194 CURVE SMOOTH",
"572 439 OFFCURVE",
"178 365 OFFCURVE",
"178 524 CURVE SMOOTH",
"178 588 OFFCURVE",
"241 627 OFFCURVE",
"342 627 CURVE SMOOTH",
"410 627 OFFCURVE",
"478 609 OFFCURVE",
"550 571 CURVE",
"550 663 LINE",
"489 692 OFFCURVE",
"415 708 OFFCURVE",
"342 708 CURVE SMOOTH",
"186 708 OFFCURVE",
"87 633 OFFCURVE",
"87 515 CURVE SMOOTH",
"87 280 OFFCURVE",
"480 359 OFFCURVE",
"480 185 CURVE SMOOTH",
"480 113 OFFCURVE",
"414 69 OFFCURVE",
"308 69 CURVE SMOOTH",
"232 69 OFFCURVE",
"157 91 OFFCURVE",
"66 139 CURVE",
"66 44 LINE",
"143 9 OFFCURVE",
"235 -12 OFFCURVE",
"315 -12 CURVE SMOOTH"
);
}
);
width = 638;
},
{
anchors = (
{
name = bottom;
position = "{319, -116}";
},
{
name = topUC;
position = "{319, 783}";
}
);
layerId = "CD42366C-28E1-4C24-AB95-7D2C522D2B07";
name = Bold;
paths = (
{
closed = 1;
nodes = (
"483 -12 OFFCURVE",
"594 66 OFFCURVE",
"594 200 CURVE SMOOTH",
"594 452 OFFCURVE",
"200 400 OFFCURVE",
"200 523 CURVE SMOOTH",
"200 568 OFFCURVE",
"254 594 OFFCURVE",
"344 594 CURVE SMOOTH",
"416 594 OFFCURVE",
"492 577 OFFCURVE",
"572 538 CURVE",
"572 663 LINE",
"505 692 OFFCURVE",
"423 708 OFFCURVE",
"343 708 CURVE SMOOTH",
"173 708 OFFCURVE",
"65 636 OFFCURVE",
"65 509 CURVE SMOOTH",
"65 267 OFFCURVE",
"458 325 OFFCURVE",
"458 186 CURVE SMOOTH",
"458 132 OFFCURVE",
"399 102 OFFCURVE",
"307 102 CURVE SMOOTH",
"226 102 OFFCURVE",
"143 125 OFFCURVE",
"44 172 CURVE",
"44 44 LINE",
"128 9 OFFCURVE",
"228 -12 OFFCURVE",
"315 -12 CURVE SMOOTH"
);
}
);
width = 638;
}
);
unicode = 0053;
},
{
color = 1;
glyphname = Schwa;
lastChange = "2015-06-08 01:23:03 +0000";
layers = (
{
layerId = UUID0;
name = Regular;
paths = (
{
closed = 1;
nodes = (
"248 708 OFFCURVE",
"165 687 OFFCURVE",
"88 642 CURVE",
"88 555 LINE",
"92 555 LINE",
"166 600 OFFCURVE",
"246 628 OFFCURVE",
"327 628 CURVE SMOOTH",
"483 628 OFFCURVE",
"565 524 OFFCURVE",
"565 348 CURVE",
"66 348 LINE",
"66 319 LINE SMOOTH",
"66 137 OFFCURVE",
"172 -12 OFFCURVE",
"358 -12 CURVE SMOOTH",
"549 -12 OFFCURVE",
"660 144 OFFCURVE",
"660 347 CURVE SMOOTH",
"660 558 OFFCURVE",
"541 708 OFFCURVE",
"325 708 CURVE SMOOTH"
);
},
{
closed = 1;
nodes = (
"236 69 OFFCURVE",
"174 165 OFFCURVE",
"163 269 CURVE",
"564 269 LINE",
"564 166 OFFCURVE",
"481 69 OFFCURVE",
"358 69 CURVE SMOOTH"
);
}
);
width = 726;
},
{
layerId = "CD42366C-28E1-4C24-AB95-7D2C522D2B07";
name = Bold;
paths = (
{
closed = 1;
nodes = (
"239 708 OFFCURVE",
"150 683 OFFCURVE",
"66 631 CURVE",
"66 511 LINE",
"70 511 LINE",
"151 563 OFFCURVE",
"239 595 OFFCURVE",
"324 595 CURVE SMOOTH",
"470 595 OFFCURVE",
"543 502 OFFCURVE",
"543 371 CURVE",
"44 371 LINE",
"44 319 LINE SMOOTH",
"44 137 OFFCURVE",
"158 -12 OFFCURVE",
"358 -12 CURVE SMOOTH",
"563 -12 OFFCURVE",
"682 144 OFFCURVE",
"682 347 CURVE SMOOTH",
"682 558 OFFCURVE",
"553 708 OFFCURVE",
"330 708 CURVE SMOOTH"
);
},
{
closed = 1;
nodes = (
"250 102 OFFCURVE",
"195 177 OFFCURVE",
"185 259 CURVE",
"542 259 LINE",
"542 178 OFFCURVE",
"468 102 OFFCURVE",
"358 102 CURVE SMOOTH"
);
}
);
width = 726;
}
);
unicode = 018F;
},
{
color = 1;
glyphname = T;
lastChange = "2015-06-08 01:23:03 +0000";
layers = (
{
anchors = (
{
name = bottom;
position = "{308, -116}";
},
{
name = topUC;
position = "{308, 783}";
}
);
layerId = UUID0;
name = Regular;
paths = (
{
closed = 1;
nodes = (
"572 608 LINE",
"572 696 LINE",
"44 696 LINE",
"44 608 LINE",
"264 608 LINE",
"264 0 LINE",
"352 0 LINE",
"352 608 LINE"
);
}
);
width = 616;
},
{
anchors = (
{
name = bottom;
position = "{308, -116}";
},
{
name = topUC;
position = "{308, 783}";
}
);
layerId = "CD42366C-28E1-4C24-AB95-7D2C522D2B07";
name = Bold;
paths = (
{
closed = 1;
nodes = (
"242 638 LINE",
"242 0 LINE",
"374 0 LINE",
"374 638 LINE"
);
},
{
closed = 1;
nodes = (
"572 575 LINE",
"572 696 LINE",
"44 696 LINE",
"44 575 LINE"
);
}
);
width = 616;
}
);
unicode = 0054;
},
{
color = 1;
glyphname = U;
lastChange = "2015-06-08 01:23:03 +0000";
layers = (
{
anchors = (
{
name = bottom;
position = "{363, -116}";
},
{
name = ogonek;
position = "{363, 52}";
},
{
name = topUC;
position = "{363, 783}";
}
);
layerId = UUID0;
name = Regular;
paths = (
{
closed = 1;
nodes = (
"540 -12 OFFCURVE",
"638 106 OFFCURVE",
"638 288 CURVE SMOOTH",
"638 696 LINE",
"550 696 LINE",
"550 291 LINE SMOOTH",
"550 159 OFFCURVE",
"487 70 OFFCURVE",
"363 70 CURVE SMOOTH",
"239 70 OFFCURVE",
"176 159 OFFCURVE",
"176 291 CURVE SMOOTH",
"176 696 LINE",
"88 696 LINE",
"88 288 LINE SMOOTH",
"88 106 OFFCURVE",
"186 -12 OFFCURVE",
"363 -12 CURVE SMOOTH"
);
}
);
width = 726;
},
{
anchors = (
{
name = bottom;
position = "{363, -116}";
},
{
name = ogonek;
position = "{363, 52}";
},
{
name = topUC;
position = "{363, 783}";
}
);
layerId = "CD42366C-28E1-4C24-AB95-7D2C522D2B07";
name = Bold;
paths = (
{
closed = 1;
nodes = (
"549 -12 OFFCURVE",
"660 101 OFFCURVE",
"660 288 CURVE SMOOTH",
"660 696 LINE",
"528 696 LINE",
"528 291 LINE SMOOTH",
"528 164 OFFCURVE",
"467 104 OFFCURVE",
"363 104 CURVE SMOOTH",
"262 104 OFFCURVE",
"198 159 OFFCURVE",
"198 291 CURVE SMOOTH",
"198 696 LINE",
"66 696 LINE",
"66 288 LINE SMOOTH",
"66 101 OFFCURVE",
"177 -12 OFFCURVE",
"363 -12 CURVE SMOOTH"
);
}
);
width = 726;
}
);
unicode = 0055;
},
{
color = 1;
glyphname = V;
lastChange = "2015-06-08 01:23:03 +0000";
layers = (
{
layerId = UUID0;
name = Regular;
paths = (
{
closed = 1;
nodes = (
"286 0 LINE",
"379 0 LINE",
"115 696 LINE",
"22 696 LINE"
);
},
{
closed = 1;
nodes = (
"308 0 LINE",
"396 0 LINE",
"660 696 LINE",
"572 696 LINE"
);
}
);
width = 682;
},
{
layerId = "CD42366C-28E1-4C24-AB95-7D2C522D2B07";
name = Bold;
paths = (
{
closed = 1;
nodes = (
"264 0 LINE",
"396 0 LINE",
"143 696 LINE",
"0 696 LINE"
);
},
{
closed = 1;
nodes = (
"291 0 LINE",
"418 0 LINE",
"682 696 LINE",
"544 696 LINE"
);
}
);
width = 682;
}
);
unicode = 0056;
},
{
color = 1;
glyphname = W;
lastChange = "2015-06-08 01:23:03 +0000";
layers = (
{
anchors = (
{
name = topUC;
position = "{462, 783}";
}
);
layerId = UUID0;
name = Regular;
paths = (
{
closed = 1;
nodes = (
"207 0 LINE",
"292 0 LINE",
"111 696 LINE",
"22 696 LINE"
);
},
{
closed = 1;
nodes = (
"237 0 LINE",
"317 0 LINE",
"498 696 LINE",
"418 696 LINE"
);
},
{
closed = 1;
nodes = (
"607 0 LINE",
"692 0 LINE",
"511 696 LINE",
"426 696 LINE"
);
},
{
closed = 1;
nodes = (
"637 0 LINE",
"717 0 LINE",
"902 696 LINE",
"818 696 LINE"
);
}
);
width = 924;
},
{
anchors = (
{
name = topUC;
position = "{462, 783}";
}
);
layerId = "CD42366C-28E1-4C24-AB95-7D2C522D2B07";
name = Bold;
paths = (
{
closed = 1;
nodes = (
"185 0 LINE",
"314 0 LINE",
"133 696 LINE",
"0 696 LINE"
);
},
{
closed = 1;
nodes = (
"215 0 LINE",
"339 0 LINE",
"520 696 LINE",
"396 696 LINE"
);
},
{
closed = 1;
nodes = (
"585 0 LINE",
"714 0 LINE",
"533 696 LINE",
"404 696 LINE"
);
},
{
closed = 1;
nodes = (
"615 0 LINE",
"739 0 LINE",
"924 696 LINE",
"796 696 LINE"
);
}
);
width = 924;
}
);
unicode = 0057;
},
{
color = 1;
glyphname = X;
lastChange = "2015-06-08 01:23:03 +0000";
layers = (
{
layerId = UUID0;
name = Regular;
paths = (
{
closed = 1;
nodes = (
"511 0 LINE",
"616 0 LINE",
"139 696 LINE",
"34 696 LINE"
);
},
{
closed = 1;
nodes = (
"352 324 LINE",
"604 696 LINE",
"504 696 LINE",
"300 394 LINE"
);
},
{
closed = 1;
nodes = (
"292 398 LINE",
"22 0 LINE",
"122 0 LINE",
"344 328 LINE"
);
}
);
width = 638;
},
{
layerId = "CD42366C-28E1-4C24-AB95-7D2C522D2B07";
name = Bold;
paths = (
{
closed = 1;
nodes = (
"489 0 LINE",
"638 0 LINE",
"161 696 LINE",
"12 696 LINE"
);
},
{
closed = 1;
nodes = (
"374 324 LINE",
"626 696 LINE",
"482 696 LINE",
"278 394 LINE"
);
},
{
closed = 1;
nodes = (
"270 398 LINE",
"0 0 LINE",
"144 0 LINE",
"366 328 LINE"
);
}
);
width = 638;
}
);
unicode = 0058;
},
{
color = 1;
glyphname = Y;
lastChange = "2015-06-08 01:23:03 +0000";
layers = (
{
anchors = (
{
name = topUC;
position = "{319, 783}";
}
);
layerId = UUID0;
name = Regular;
paths = (
{
closed = 1;
nodes = (
"275 240 LINE",
"363 240 LINE",
"125 696 LINE",
"22 696 LINE"
);
},
{
closed = 1;
nodes = (
"275 240 LINE",
"363 240 LINE",
"616 696 LINE",
"518 696 LINE"
);
},
{
closed = 1;
nodes = (
"275 280 LINE",
"275 0 LINE",
"363 0 LINE",
"363 280 LINE"
);
}
);
width = 638;
},
{
anchors = (
{
name = topUC;
position = "{319, 783}";
}
);
layerId = "CD42366C-28E1-4C24-AB95-7D2C522D2B07";
name = Bold;
paths = (
{
closed = 1;
nodes = (
"253 280 LINE",
"253 0 LINE",
"385 0 LINE",
"385 280 LINE"
);
},
{
closed = 1;
nodes = (
"259 240 LINE",
"385 240 LINE",
"638 696 LINE",
"496 696 LINE"
);
},
{
closed = 1;
nodes = (
"253 240 LINE",
"379 240 LINE",
"147 696 LINE",
"0 696 LINE"
);
}
);
width = 638;
}
);
unicode = 0059;
},
{
color = 1;
glyphname = Z;
lastChange = "2015-06-08 01:23:03 +0000";
layers = (
{
anchors = (
{
name = bottom;
position = "{319, -116}";
},
{
name = topUC;
position = "{319, 783}";
}
);
layerId = UUID0;
name = Regular;
paths = (
{
closed = 1;
nodes = (
"572 696 LINE",
"66 696 LINE",
"66 620 LINE",
"486 620 LINE",
"572 631 LINE"
);
},
{
closed = 1;
nodes = (
"594 76 LINE",
"74 76 LINE",
"44 65 LINE",
"44 0 LINE",
"594 0 LINE"
);
},
{
closed = 1;
nodes = (
"155 65 LINE",
"572 631 LINE",
"463 631 LINE",
"44 65 LINE"
);
}
);
width = 638;
},
{
anchors = (
{
name = bottom;
position = "{319, -116}";
},
{
name = topUC;
position = "{319, 783}";
}
);
layerId = "CD42366C-28E1-4C24-AB95-7D2C522D2B07";
name = Bold;
paths = (
{
closed = 1;
nodes = (
"594 696 LINE",
"44 696 LINE",
"44 587 LINE",
"486 587 LINE",
"594 598 LINE"
);
},
{
closed = 1;
nodes = (
"616 109 LINE",
"52 109 LINE",
"22 98 LINE",
"22 0 LINE",
"616 0 LINE"
);
},
{
closed = 1;
nodes = (
"188 98 LINE",
"594 598 LINE",
"430 598 LINE",
"22 98 LINE"
);
}
);
width = 638;
}
);
unicode = 005A;
},
{
color = 1;
glyphname = a;
lastChange = "2015-06-08 01:23:03 +0000";
layers = (
{
anchors = (
{
name = ogonek;
position = "{462, 52}";
},
{
name = top;
position = "{308, 638}";
}
);
layerId = UUID0;
name = Regular;
paths = (
{
closed = 1;
nodes = (
"332 -12 OFFCURVE",
"397 32 OFFCURVE",
"452 107 CURVE",
"452 178 LINE",
"396 113 OFFCURVE",
"343 62 OFFCURVE",
"257 62 CURVE SMOOTH",
"201 62 OFFCURVE",
"161 97 OFFCURVE",
"161 152 CURVE SMOOTH",
"161 219 OFFCURVE",
"229 238 OFFCURVE",
"306 238 CURVE SMOOTH",
"451 238 LINE",
"451 296 LINE",
"400 302 OFFCURVE",
"361 305 OFFCURVE",
"310 305 CURVE SMOOTH",
"179 305 OFFCURVE",
"66 263 OFFCURVE",
"66 147 CURVE SMOOTH",
"66 49 OFFCURVE",
"138 -12 OFFCURVE",
"239 -12 CURVE SMOOTH"
);
},
{
closed = 1;
nodes = (
"440 0 LINE",
"528 0 LINE",
"506 116 LINE",
"506 348 LINE SMOOTH",
"506 461 OFFCURVE",
"426 534 OFFCURVE",
"312 534 CURVE SMOOTH",
"235 534 OFFCURVE",
"174 522 OFFCURVE",
"110 478 CURVE",
"110 393 LINE",
"170 435 OFFCURVE",
"225 457 OFFCURVE",
"299 457 CURVE SMOOTH",
"370 457 OFFCURVE",
"418 408 OFFCURVE",
"418 336 CURVE SMOOTH",
"418 116 LINE"
);
}
);
width = 616;
},
{
anchors = (
{
name = ogonek;
position = "{462, 52}";
},
{
name = top;
position = "{308, 638}";
}
);
layerId = "CD42366C-28E1-4C24-AB95-7D2C522D2B07";
name = Bold;
paths = (
{
closed = 1;
nodes = (
"318 -12 OFFCURVE",
"384 26 OFFCURVE",
"441 107 CURVE",
"441 211 LINE",
"375 130 OFFCURVE",
"321 95 OFFCURVE",
"254 95 CURVE SMOOTH",
"202 95 OFFCURVE",
"176 116 OFFCURVE",
"176 159 CURVE SMOOTH",
"176 214 OFFCURVE",
"217 231 OFFCURVE",
"299 231 CURVE SMOOTH",
"440 231 LINE",
"440 312 LINE",
"387 318 OFFCURVE",
"345 321 OFFCURVE",
"307 321 CURVE SMOOTH",
"134 321 OFFCURVE",
"44 257 OFFCURVE",
"44 151 CURVE SMOOTH",
"44 52 OFFCURVE",
"124 -12 OFFCURVE",
"234 -12 CURVE SMOOTH"
);
},
{
closed = 1;
nodes = (
"440 0 LINE",
"550 0 LINE",
"528 116 LINE",
"528 348 LINE SMOOTH",
"528 470 OFFCURVE",
"448 534 OFFCURVE",
"300 534 CURVE SMOOTH",
"219 534 OFFCURVE",
"153 515 OFFCURVE",
"88 467 CURVE",
"88 349 LINE",
"158 399 OFFCURVE",
"216 424 OFFCURVE",
"291 424 CURVE SMOOTH",
"371 424 OFFCURVE",
"407 395 OFFCURVE",
"407 336 CURVE SMOOTH",
"407 116 LINE"
);
}
);
width = 616;
}
);
unicode = 0061;
},
{
color = 1;
glyphname = ae;
lastChange = "2015-06-08 01:23:03 +0000";
layers = (
{
anchors = (
{
name = top;
position = "{473, 638}";
}
);
layerId = UUID0;
name = Regular;
paths = (
{
closed = 1;
nodes = (
"743 -12 OFFCURVE",
"799 6 OFFCURVE",
"858 49 CURVE",
"858 137 LINE",
"854 137 LINE",
"797 90 OFFCURVE",
"742 64 OFFCURVE",
"680 64 CURVE SMOOTH",
"576 64 OFFCURVE",
"519 134 OFFCURVE",
"509 232 CURVE",
"880 232 LINE",
"880 261 LINE SMOOTH",
"880 415 OFFCURVE",
"799 534 OFFCURVE",
"652 534 CURVE SMOOTH",
"577 534 OFFCURVE",
"517 503 OFFCURVE",
"477 452 CURVE",
"444 504 OFFCURVE",
"385 534 OFFCURVE",
"312 534 CURVE SMOOTH",
"235 534 OFFCURVE",
"174 522 OFFCURVE",
"110 478 CURVE",
"110 393 LINE",
"170 435 OFFCURVE",
"225 457 OFFCURVE",
"299 457 CURVE SMOOTH",
"370 457 OFFCURVE",
"418 408 OFFCURVE",
"418 336 CURVE SMOOTH",
"418 299 LINE",
"381 303 OFFCURVE",
"349 305 OFFCURVE",
"310 305 CURVE SMOOTH",
"179 305 OFFCURVE",
"66 263 OFFCURVE",
"66 147 CURVE SMOOTH",
"66 49 OFFCURVE",
"138 -12 OFFCURVE",
"239 -12 CURVE SMOOTH",
"339 -12 OFFCURVE",
"410 23 OFFCURVE",
"470 85 CURVE",
"515 24 OFFCURVE",
"586 -12 OFFCURVE",
"679 -12 CURVE SMOOTH"
);
},
{
closed = 1;
nodes = (
"201 62 OFFCURVE",
"161 97 OFFCURVE",
"161 152 CURVE SMOOTH",
"161 219 OFFCURVE",
"229 238 OFFCURVE",
"306 238 CURVE SMOOTH",
"418 238 LINE",
"421 200 OFFCURVE",
"429 165 OFFCURVE",
"443 134 CURVE",
"390 92 OFFCURVE",
"336 62 OFFCURVE",
"257 62 CURVE SMOOTH"
);
},
{
closed = 1;
nodes = (
"740 461 OFFCURVE",
"781 390 OFFCURVE",
"789 300 CURVE",
"510 300 LINE",
"519 389 OFFCURVE",
"566 461 OFFCURVE",
"653 461 CURVE SMOOTH"
);
}
);
width = 946;
},
{
anchors = (
{
name = top;
position = "{473, 638}";
}
);
layerId = "CD42366C-28E1-4C24-AB95-7D2C522D2B07";
name = Bold;
paths = (
{
closed = 1;
nodes = (
"751 -12 OFFCURVE",
"814 6 OFFCURVE",
"880 49 CURVE",
"880 170 LINE",
"876 170 LINE",
"812 123 OFFCURVE",
"750 97 OFFCURVE",
"681 97 CURVE SMOOTH",
"589 97 OFFCURVE",
"540 143 OFFCURVE",
"531 209 CURVE",
"902 209 LINE",
"902 261 LINE SMOOTH",
"902 415 OFFCURVE",
"813 534 OFFCURVE",
"653 534 CURVE SMOOTH",
"577 534 OFFCURVE",
"517 507 OFFCURVE",
"477 463 CURVE",
"437 515 OFFCURVE",
"381 534 OFFCURVE",
"302 534 CURVE SMOOTH",
"232 534 OFFCURVE",
"156 519 OFFCURVE",
"88 467 CURVE",
"88 349 LINE",
"148 394 OFFCURVE",
"219 424 OFFCURVE",
"288 424 CURVE SMOOTH",
"363 424 OFFCURVE",
"396 388 OFFCURVE",
"396 336 CURVE SMOOTH",
"396 322 LINE",
"367 326 OFFCURVE",
"340 328 OFFCURVE",
"311 328 CURVE SMOOTH",
"168 328 OFFCURVE",
"44 279 OFFCURVE",
"44 150 CURVE SMOOTH",
"44 49 OFFCURVE",
"120 -12 OFFCURVE",
"245 -12 CURVE SMOOTH",
"336 -12 OFFCURVE",
"412 20 OFFCURVE",
"470 74 CURVE",
"515 20 OFFCURVE",
"586 -12 OFFCURVE",
"680 -12 CURVE SMOOTH"
);
},
{
closed = 1;
nodes = (
"210 95 OFFCURVE",
"183 117 OFFCURVE",
"183 155 CURVE SMOOTH",
"183 210 OFFCURVE",
"242 228 OFFCURVE",
"306 228 CURVE SMOOTH",
"396 228 LINE",
"398 202 OFFCURVE",
"402 178 OFFCURVE",
"410 156 CURVE",
"367 121 OFFCURVE",
"318 95 OFFCURVE",
"262 95 CURVE SMOOTH"
);
},
{
closed = 1;
nodes = (
"726 428 OFFCURVE",
"760 376 OFFCURVE",
"767 310 CURVE",
"532 310 LINE",
"540 375 OFFCURVE",
"579 428 OFFCURVE",
"653 428 CURVE SMOOTH"
);
}
);
width = 946;
}
);
unicode = 00E6;
},
{
color = 1;
glyphname = b;
lastChange = "2015-06-08 01:23:03 +0000";
layers = (
{
layerId = UUID0;
name = Regular;
paths = (
{
closed = 1;
nodes = (
"484 -11 OFFCURVE",
"572 105 OFFCURVE",
"572 260 CURVE SMOOTH",
"572 413 OFFCURVE",
"500 534 OFFCURVE",
"359 534 CURVE SMOOTH",
"273 534 OFFCURVE",
"212 494 OFFCURVE",
"164 423 CURVE",
"164 338 LINE",
"216 404 OFFCURVE",
"268 453 OFFCURVE",
"351 453 CURVE SMOOTH",
"443 453 OFFCURVE",
"477 364 OFFCURVE",
"477 260 CURVE SMOOTH",
"477 152 OFFCURVE",
"426 67 OFFCURVE",
"326 67 CURVE SMOOTH",
"266 67 OFFCURVE",
"221 78 OFFCURVE",
"165 99 CURVE",
"165 34 LINE",
"223 8 OFFCURVE",
"271 -11 OFFCURVE",
"335 -11 CURVE SMOOTH"
);
},
{
closed = 1;
nodes = (
"110 0 LINE",
"198 0 LINE",
"198 754 LINE",
"110 754 LINE"
);
}
);
width = 638;
},
{
layerId = "CD42366C-28E1-4C24-AB95-7D2C522D2B07";
name = Bold;
paths = (
{
closed = 1;
nodes = (
"495 -11 OFFCURVE",
"594 89 OFFCURVE",
"594 259 CURVE SMOOTH",
"594 426 OFFCURVE",
"499 534 OFFCURVE",
"363 534 CURVE SMOOTH",
"285 534 OFFCURVE",
"218 498 OFFCURVE",
"164 412 CURVE",
"164 305 LINE",
"226 383 OFFCURVE",
"287 420 OFFCURVE",
"349 420 CURVE SMOOTH",
"421 420 OFFCURVE",
"455 369 OFFCURVE",
"455 261 CURVE SMOOTH",
"455 147 OFFCURVE",
"417 100 OFFCURVE",
"326 100 CURVE SMOOTH",
"279 100 OFFCURVE",
"222 100 OFFCURVE",
"165 132 CURVE",
"165 45 LINE",
"243 2 OFFCURVE",
"283 -11 OFFCURVE",
"339 -11 CURVE SMOOTH"
);
},
{
closed = 1;
nodes = (
"88 0 LINE",
"220 0 LINE",
"220 754 LINE",
"88 754 LINE"
);
}
);
width = 638;
}
);
unicode = 0062;
},
{
color = 1;
glyphname = c;
lastChange = "2015-06-08 01:23:03 +0000";
layers = (
{
anchors = (
{
name = bottom;
position = "{275, -116}";
},
{
name = top;
position = "{286, 638}";
}
);
layerId = UUID0;
name = Regular;
paths = (
{
closed = 1;
nodes = (
"371 454 OFFCURVE",
"420 438 OFFCURVE",
"469 398 CURVE",
"473 398 LINE",
"473 483 LINE",
"424 524 OFFCURVE",
"372 534 OFFCURVE",
"308 534 CURVE SMOOTH",
"157 534 OFFCURVE",
"66 417 OFFCURVE",
"66 259 CURVE SMOOTH",
"66 103 OFFCURVE",
"157 -12 OFFCURVE",
"307 -12 CURVE SMOOTH",
"377 -12 OFFCURVE",
"433 4 OFFCURVE",
"484 52 CURVE",
"484 137 LINE",
"480 137 LINE",
"428 90 OFFCURVE",
"376 68 OFFCURVE",
"306 68 CURVE SMOOTH",
"209 68 OFFCURVE",
"159 152 OFFCURVE",
"159 258 CURVE SMOOTH",
"159 367 OFFCURVE",
"208 454 OFFCURVE",
"307 454 CURVE SMOOTH"
);
}
);
width = 550;
},
{
anchors = (
{
name = bottom;
position = "{275, -116}";
},
{
name = top;
position = "{275, 638}";
}
);
layerId = "CD42366C-28E1-4C24-AB95-7D2C522D2B07";
name = Bold;
paths = (
{
closed = 1;
nodes = (
"370 421 OFFCURVE",
"441 404 OFFCURVE",
"491 365 CURVE",
"495 365 LINE",
"495 477 LINE",
"452 515 OFFCURVE",
"383 534 OFFCURVE",
"315 534 CURVE SMOOTH",
"153 534 OFFCURVE",
"44 426 OFFCURVE",
"44 259 CURVE SMOOTH",
"44 94 OFFCURVE",
"149 -12 OFFCURVE",
"315 -12 CURVE SMOOTH",
"395 -12 OFFCURVE",
"460 13 OFFCURVE",
"506 57 CURVE",
"506 170 LINE",
"502 170 LINE",
"449 125 OFFCURVE",
"379 101 OFFCURVE",
"318 101 CURVE SMOOTH",
"226 101 OFFCURVE",
"181 155 OFFCURVE",
"181 259 CURVE SMOOTH",
"181 365 OFFCURVE",
"228 421 OFFCURVE",
"320 421 CURVE SMOOTH"
);
}
);
width = 550;
}
);
unicode = 0063;
},
{
color = 1;
glyphname = d;
lastChange = "2015-06-08 01:23:03 +0000";
layers = (
{
anchors = (
{
name = bottom;
position = "{319, -116}";
},
{
name = caronalt;
position = "{628, 638}";
}
);
layerId = UUID0;
name = Regular;
paths = (
{
closed = 1;
nodes = (
"357 -11 OFFCURVE",
"422 27 OFFCURVE",
"474 100 CURVE",
"474 185 LINE",
"419 119 OFFCURVE",
"366 70 OFFCURVE",
"281 70 CURVE SMOOTH",
"192 70 OFFCURVE",
"161 157 OFFCURVE",
"161 258 CURVE SMOOTH",
"161 368 OFFCURVE",
"212 456 OFFCURVE",
"313 456 CURVE SMOOTH",
"373 456 OFFCURVE",
"418 444 OFFCURVE",
"473 421 CURVE",
"473 484 LINE",
"416 514 OFFCURVE",
"368 534 OFFCURVE",
"304 534 CURVE SMOOTH",
"153 534 OFFCURVE",
"66 415 OFFCURVE",
"66 256 CURVE SMOOTH",
"66 108 OFFCURVE",
"132 -11 OFFCURVE",
"267 -11 CURVE SMOOTH"
);
},
{
closed = 1;
nodes = (
"462 0 LINE",
"550 0 LINE",
"528 116 LINE",
"528 754 LINE",
"440 754 LINE",
"440 116 LINE"
);
}
);
width = 638;
},
{
anchors = (
{
name = bottom;
position = "{319, -116}";
},
{
name = caronalt;
position = "{628, 638}";
}
);
layerId = "CD42366C-28E1-4C24-AB95-7D2C522D2B07";
name = Bold;
paths = (
{
closed = 1;
nodes = (
"344 -11 OFFCURVE",
"427 39 OFFCURVE",
"474 120 CURVE",
"474 221 LINE",
"410 135 OFFCURVE",
"346 97 OFFCURVE",
"289 97 CURVE SMOOTH",
"218 97 OFFCURVE",
"183 156 OFFCURVE",
"183 259 CURVE SMOOTH",
"183 373 OFFCURVE",
"226 425 OFFCURVE",
"318 425 CURVE SMOOTH",
"359 425 OFFCURVE",
"418 415 OFFCURVE",
"473 396 CURVE",
"473 473 LINE",
"414 515 OFFCURVE",
"357 534 OFFCURVE",
"290 534 CURVE SMOOTH",
"133 534 OFFCURVE",
"44 431 OFFCURVE",
"44 257 CURVE SMOOTH",
"44 91 OFFCURVE",
"125 -11 OFFCURVE",
"254 -11 CURVE SMOOTH"
);
},
{
closed = 1;
nodes = (
"550 754 LINE",
"418 754 LINE",
"418 116 LINE",
"451 0 LINE",
"572 0 LINE",
"550 116 LINE"
);
}
);
width = 638;
}
);
unicode = 0064;
},
{
color = 1;
glyphname = eth;
lastChange = "2015-06-08 01:23:03 +0000";
layers = (
{
layerId = UUID0;
name = Regular;
paths = (
{
closed = 1;
nodes = (
"455 155 OFFCURVE",
"404 69 OFFCURVE",
"299 69 CURVE SMOOTH",
"209 69 OFFCURVE",
"160 133 OFFCURVE",
"160 240 CURVE SMOOTH",
"160 354 OFFCURVE",
"215 415 OFFCURVE",
"311 415 CURVE SMOOTH",
"375 415 OFFCURVE",
"439 388 OFFCURVE",
"496 339 CURVE",
"496 418 LINE",
"439 470 OFFCURVE",
"390 495 OFFCURVE",
"312 495 CURVE SMOOTH",
"163 495 OFFCURVE",
"66 405 OFFCURVE",
"66 241 CURVE SMOOTH",
"66 85 OFFCURVE",
"153 -12 OFFCURVE",
"298 -12 CURVE SMOOTH",
"461 -12 OFFCURVE",
"550 111 OFFCURVE",
"550 319 CURVE SMOOTH",
"550 529 OFFCURVE",
"459 681 OFFCURVE",
"307 765 CURVE",
"210 743 LINE",
"210 739 LINE",
"392 631 OFFCURVE",
"455 516 OFFCURVE",
"455 326 CURVE SMOOTH"
);
},
{
closed = 1;
nodes = (
"242 561 LINE",
"550 618 LINE",
"550 688 LINE",
"242 631 LINE"
);
}
);
width = 594;
},
{
layerId = "CD42366C-28E1-4C24-AB95-7D2C522D2B07";
name = Bold;
paths = (
{
closed = 1;
nodes = (
"433 177 OFFCURVE",
"389 102 OFFCURVE",
"299 102 CURVE SMOOTH",
"223 102 OFFCURVE",
"182 154 OFFCURVE",
"182 240 CURVE SMOOTH",
"182 333 OFFCURVE",
"229 382 OFFCURVE",
"311 382 CURVE SMOOTH",
"375 382 OFFCURVE",
"439 355 OFFCURVE",
"496 306 CURVE",
"496 418 LINE",
"439 470 OFFCURVE",
"390 495 OFFCURVE",
"312 495 CURVE SMOOTH",
"150 495 OFFCURVE",
"44 405 OFFCURVE",
"44 241 CURVE SMOOTH",
"44 85 OFFCURVE",
"139 -12 OFFCURVE",
"298 -12 CURVE SMOOTH",
"475 -12 OFFCURVE",
"572 111 OFFCURVE",
"572 319 CURVE SMOOTH",
"572 529 OFFCURVE",
"481 681 OFFCURVE",
"329 765 CURVE",
"188 743 LINE",
"188 739 LINE",
"370 631 OFFCURVE",
"433 516 OFFCURVE",
"433 326 CURVE SMOOTH"
);
},
{
closed = 1;
nodes = (
"220 544 LINE",
"572 601 LINE",
"572 699 LINE",
"220 642 LINE"
);
}
);
width = 594;
}
);
unicode = 00F0;
},
{
color = 1;
glyphname = e;
lastChange = "2015-06-08 01:23:03 +0000";
layers = (
{
anchors = (
{
name = bottom;
position = "{297, -116}";
},
{
name = ogonek;
position = "{444, 52}";
},
{
name = top;
position = "{297, 638}";
}
);
layerId = UUID0;
name = Regular;
paths = (
{
closed = 1;
nodes = (
"391 -12 OFFCURVE",
"447 6 OFFCURVE",
"506 49 CURVE",
"506 137 LINE",
"502 137 LINE",
"445 90 OFFCURVE",
"390 64 OFFCURVE",
"328 64 CURVE SMOOTH",
"213 64 OFFCURVE",
"156 150 OFFCURVE",
"156 265 CURVE SMOOTH",
"156 370 OFFCURVE",
"203 461 OFFCURVE",
"301 461 CURVE SMOOTH",
"400 461 OFFCURVE",
"439 369 OFFCURVE",
"439 261 CURVE",
"493 300 LINE",
"127 300 LINE",
"127 232 LINE",
"528 232 LINE",
"528 261 LINE SMOOTH",
"528 415 OFFCURVE",
"447 534 OFFCURVE",
"300 534 CURVE SMOOTH",
"154 534 OFFCURVE",
"66 417 OFFCURVE",
"66 264 CURVE SMOOTH",
"66 102 OFFCURVE",
"164 -12 OFFCURVE",
"327 -12 CURVE SMOOTH"
);
}
);
width = 594;
},
{
anchors = (
{
name = bottom;
position = "{297, -116}";
},
{
name = ogonek;
position = "{444, 52}";
},
{
name = top;
position = "{297, 638}";
}
);
layerId = "CD42366C-28E1-4C24-AB95-7D2C522D2B07";
name = Bold;
paths = (
{
closed = 1;
nodes = (
"399 -12 OFFCURVE",
"475 11 OFFCURVE",
"528 52 CURVE",
"528 159 LINE",
"524 159 LINE",
"463 119 OFFCURVE",
"381 97 OFFCURVE",
"321 97 CURVE SMOOTH",
"222 97 OFFCURVE",
"170 156 OFFCURVE",
"170 260 CURVE SMOOTH",
"170 363 OFFCURVE",
"222 428 OFFCURVE",
"302 428 CURVE SMOOTH",
"378 428 OFFCURVE",
"417 368 OFFCURVE",
"417 261 CURVE",
"493 311 LINE",
"127 311 LINE",
"127 221 LINE",
"550 221 LINE",
"550 261 LINE SMOOTH",
"550 429 OFFCURVE",
"455 534 OFFCURVE",
"302 534 CURVE SMOOTH",
"147 534 OFFCURVE",
"44 425 OFFCURVE",
"44 261 CURVE SMOOTH",
"44 93 OFFCURVE",
"151 -12 OFFCURVE",
"320 -12 CURVE SMOOTH"
);
}
);
width = 594;
}
);
unicode = 0065;
},
{
color = 1;
glyphname = f;
lastChange = "2015-06-08 01:23:03 +0000";
layers = (
{
layerId = UUID0;
name = Regular;
paths = (
{
closed = 1;
nodes = (
"44 446 LINE",
"154 446 LINE",
"154 0 LINE",
"242 0 LINE",
"242 446 LINE",
"396 446 LINE",
"396 522 LINE",
"242 522 LINE",
"242 592 LINE SMOOTH",
"242 646 OFFCURVE",
"266 689 OFFCURVE",
"334 689 CURVE SMOOTH",
"355 689 OFFCURVE",
"370 685 OFFCURVE",
"396 673 CURVE",
"396 749 LINE",
"365 761 OFFCURVE",
"346 766 OFFCURVE",
"316 766 CURVE SMOOTH",
"205 766 OFFCURVE",
"154 695 OFFCURVE",
"154 582 CURVE SMOOTH",
"154 522 LINE",
"44 522 LINE"
);
}
);
width = 440;
},
{
layerId = "CD42366C-28E1-4C24-AB95-7D2C522D2B07";
name = Bold;
paths = (
{
closed = 1;
nodes = (
"132 424 LINE",
"418 424 LINE",
"418 522 LINE",
"264 522 LINE",
"264 582 LINE SMOOTH",
"264 637 OFFCURVE",
"286 656 OFFCURVE",
"336 656 CURVE SMOOTH",
"366 656 OFFCURVE",
"391 649 OFFCURVE",
"418 633 CURVE",
"418 742 LINE",
"393 758 OFFCURVE",
"368 766 OFFCURVE",
"323 766 CURVE SMOOTH",
"201 766 OFFCURVE",
"132 708 OFFCURVE",
"132 582 CURVE SMOOTH"
);
},
{
closed = 1;
nodes = (
"22 424 LINE",
"161 424 LINE",
"161 522 LINE",
"22 522 LINE"
);
},
{
closed = 1;
nodes = (
"264 0 LINE",
"264 424 LINE",
"132 424 LINE",
"132 0 LINE"
);
}
);
width = 440;
}
);
unicode = 0066;
},
{
color = 1;
glyphname = g;
lastChange = "2015-06-08 01:23:03 +0000";
layers = (
{
anchors = (
{
name = top;
position = "{319, 638}";
}
);
layerId = UUID0;
name = Regular;
paths = (
{
closed = 1;
nodes = (
"371 7 OFFCURVE",
"416 24 OFFCURVE",
"474 74 CURVE",
"474 159 LINE",
"413 113 OFFCURVE",
"372 88 OFFCURVE",
"295 88 CURVE SMOOTH",
"198 88 OFFCURVE",
"161 160 OFFCURVE",
"161 267 CURVE SMOOTH",
"161 381 OFFCURVE",
"207 456 OFFCURVE",
"314 456 CURVE SMOOTH",
"377 456 OFFCURVE",
"414 447 OFFCURVE",
"473 424 CURVE",
"473 489 LINE",
"410 517 OFFCURVE",
"373 534 OFFCURVE",
"304 534 CURVE SMOOTH",
"144 534 OFFCURVE",
"66 432 OFFCURVE",
"66 266 CURVE SMOOTH",
"66 106 OFFCURVE",
"141 7 OFFCURVE",
"294 7 CURVE SMOOTH"
);
},
{
closed = 1;
nodes = (
"450 -244 OFFCURVE",
"528 -137 OFFCURVE",
"528 34 CURVE SMOOTH",
"528 407 LINE",
"550 523 LINE",
"462 523 LINE",
"440 435 LINE",
"440 22 LINE SMOOTH",
"440 -90 OFFCURVE",
"392 -162 OFFCURVE",
"286 -162 CURVE SMOOTH",
"201 -162 OFFCURVE",
"152 -144 OFFCURVE",
"87 -90 CURVE",
"87 -179 LINE",
"151 -233 OFFCURVE",
"202 -244 OFFCURVE",
"286 -244 CURVE SMOOTH"
);
}
);
width = 638;
},
{
anchors = (
{
name = top;
position = "{319, 638}";
}
);
layerId = "CD42366C-28E1-4C24-AB95-7D2C522D2B07";
name = Bold;
paths = (
{
closed = 1;
nodes = (
"364 7 OFFCURVE",
"423 30 OFFCURVE",
"474 74 CURVE",
"474 192 LINE",
"410 144 OFFCURVE",
"352 121 OFFCURVE",
"296 121 CURVE SMOOTH",
"218 121 OFFCURVE",
"183 166 OFFCURVE",
"183 268 CURVE SMOOTH",
"183 376 OFFCURVE",
"222 423 OFFCURVE",
"314 423 CURVE SMOOTH",
"362 423 OFFCURVE",
"419 423 OFFCURVE",
"473 391 CURVE",
"473 489 LINE",
"398 522 OFFCURVE",
"356 534 OFFCURVE",
"301 534 CURVE SMOOTH",
"143 534 OFFCURVE",
"44 434 OFFCURVE",
"44 268 CURVE SMOOTH",
"44 105 OFFCURVE",
"139 7 OFFCURVE",
"291 7 CURVE SMOOTH"
);
},
{
closed = 1;
nodes = (
"452 -244 OFFCURVE",
"550 -162 OFFCURVE",
"550 0 CURVE SMOOTH",
"550 407 LINE",
"572 522 LINE",
"440 522 LINE",
"418 435 LINE",
"418 0 LINE SMOOTH",
"418 -81 OFFCURVE",
"379 -129 OFFCURVE",
"278 -129 CURVE SMOOTH",
"204 -129 OFFCURVE",
"136 -103 OFFCURVE",
"76 -57 CURVE",
"76 -168 LINE",
"131 -216 OFFCURVE",
"184 -244 OFFCURVE",
"283 -244 CURVE SMOOTH"
);
}
);
width = 638;
}
);
unicode = 0067;
},
{
color = 1;
glyphname = h;
lastChange = "2015-06-08 01:23:03 +0000";
layers = (
{
anchors = (
{
name = bottom;
position = "{319, -116}";
},
{
name = top;
position = "{319, 638}";
}
);
layerId = UUID0;
name = Regular;
paths = (
{
closed = 1;
nodes = (
"440 0 LINE",
"528 0 LINE",
"528 362 LINE SMOOTH",
"528 468 OFFCURVE",
"479 534 OFFCURVE",
"378 534 CURVE SMOOTH",
"288 534 OFFCURVE",
"241 500 OFFCURVE",
"176 436 CURVE",
"176 367 LINE",
"235 421 OFFCURVE",
"275 455 OFFCURVE",
"355 455 CURVE SMOOTH",
"414 455 OFFCURVE",
"440 414 OFFCURVE",
"440 350 CURVE SMOOTH"
);
},
{
closed = 1;
nodes = (
"110 0 LINE",
"198 0 LINE",
"198 754 LINE",
"110 754 LINE"
);
}
);
width = 638;
},
{
anchors = (
{
name = bottom;
position = "{319, -116}";
},
{
name = top;
position = "{319, 638}";
}
);
layerId = "CD42366C-28E1-4C24-AB95-7D2C522D2B07";
name = Bold;
paths = (
{
closed = 1;
nodes = (
"418 0 LINE",
"550 0 LINE",
"550 365 LINE SMOOTH",
"550 466 OFFCURVE",
"480 534 OFFCURVE",
"374 534 CURVE SMOOTH",
"311 534 OFFCURVE",
"260 509 OFFCURVE",
"198 447 CURVE",
"198 334 LINE",
"244 389 OFFCURVE",
"289 417 OFFCURVE",
"330 417 CURVE SMOOTH",
"393 417 OFFCURVE",
"418 381 OFFCURVE",
"418 290 CURVE SMOOTH"
);
},
{
closed = 1;
nodes = (
"88 0 LINE",
"220 0 LINE",
"220 754 LINE",
"88 754 LINE"
);
}
);
width = 638;
}
);
unicode = 0068;
},
{
color = 1;
glyphname = i;
lastChange = "2015-06-08 01:23:03 +0000";
layers = (
{
anchors = (
{
name = bottom;
position = "{198, -116}";
},
{
name = ogonek;
position = "{198, 52}";
}
);
layerId = UUID0;
name = Regular;
paths = (
{
closed = 1;
nodes = (
"176 0 LINE",
"264 0 LINE",
"264 522 LINE",
"66 522 LINE",
"66 446 LINE",
"176 446 LINE"
);
},
{
closed = 1;
nodes = (
"261 640 OFFCURVE",
"283 663 OFFCURVE",
"283 704 CURVE SMOOTH",
"283 745 OFFCURVE",
"261 768 OFFCURVE",
"220 768 CURVE SMOOTH",
"179 768 OFFCURVE",
"157 745 OFFCURVE",
"157 704 CURVE SMOOTH",
"157 663 OFFCURVE",
"179 640 OFFCURVE",
"220 640 CURVE SMOOTH"
);
}
);
width = 396;
},
{
anchors = (
{
name = bottom;
position = "{198, -116}";
},
{
name = ogonek;
position = "{198, 52}";
}
);
layerId = "CD42366C-28E1-4C24-AB95-7D2C522D2B07";
name = Bold;
paths = (
{
closed = 1;
nodes = (
"154 0 LINE",
"286 0 LINE",
"286 522 LINE",
"44 522 LINE",
"44 424 LINE",
"154 424 LINE"
);
},
{
closed = 1;
nodes = (
"264 600 OFFCURVE",
"302 633 OFFCURVE",
"302 683 CURVE SMOOTH",
"302 733 OFFCURVE",
"264 766 OFFCURVE",
"220 766 CURVE SMOOTH",
"176 766 OFFCURVE",
"138 733 OFFCURVE",
"138 683 CURVE SMOOTH",
"138 633 OFFCURVE",
"176 600 OFFCURVE",
"220 600 CURVE SMOOTH"
);
}
);
width = 396;
}
);
unicode = 0069;
},
{
glyphname = dotlessi;
lastChange = "2015-04-08 16:24:57 +0000";
layers = (
{
anchors = (
{
name = top;
position = "{198, 638}";
}
);
layerId = UUID0;
name = Regular;
paths = (
{
closed = 1;
nodes = (
"176 0 LINE",
"264 0 LINE",
"264 522 LINE",
"66 522 LINE",
"66 446 LINE",
"176 446 LINE"
);
}
);
width = 396;
},
{
anchors = (
{
name = top;
position = "{198, 638}";
}
);
layerId = "CD42366C-28E1-4C24-AB95-7D2C522D2B07";
name = Bold;
paths = (
{
closed = 1;
nodes = (
"154 0 LINE",
"286 0 LINE",
"286 522 LINE",
"44 522 LINE",
"44 424 LINE",
"154 424 LINE"
);
}
);
width = 396;
}
);
unicode = 0131;
},
{
color = 1;
glyphname = j;
lastChange = "2015-06-08 01:23:03 +0000";
layers = (
{
layerId = UUID0;
name = Regular;
paths = (
{
closed = 1;
nodes = (
"261 640 OFFCURVE",
"283 663 OFFCURVE",
"283 704 CURVE SMOOTH",
"283 745 OFFCURVE",
"261 768 OFFCURVE",
"220 768 CURVE SMOOTH",
"179 768 OFFCURVE",
"157 745 OFFCURVE",
"157 704 CURVE SMOOTH",
"157 663 OFFCURVE",
"179 640 OFFCURVE",
"220 640 CURVE SMOOTH"
);
},
{
closed = 1;
nodes = (
"66 522 LINE",
"66 446 LINE",
"176 446 LINE",
"176 -60 LINE SMOOTH",
"176 -124 OFFCURVE",
"152 -167 OFFCURVE",
"93 -167 CURVE SMOOTH",
"64 -167 OFFCURVE",
"48 -164 OFFCURVE",
"22 -151 CURVE",
"22 -227 LINE",
"51 -243 OFFCURVE",
"72 -244 OFFCURVE",
"105 -244 CURVE SMOOTH",
"213 -244 OFFCURVE",
"264 -173 OFFCURVE",
"264 -60 CURVE SMOOTH",
"264 522 LINE"
);
}
);
width = 396;
},
{
layerId = "CD42366C-28E1-4C24-AB95-7D2C522D2B07";
name = Bold;
paths = (
{
closed = 1;
nodes = (
"44 522 LINE",
"44 424 LINE",
"154 424 LINE",
"154 -60 LINE SMOOTH",
"154 -115 OFFCURVE",
"135 -134 OFFCURVE",
"93 -134 CURVE SMOOTH",
"59 -134 OFFCURVE",
"31 -127 OFFCURVE",
"0 -107 CURVE",
"0 -216 LINE",
"28 -236 OFFCURVE",
"56 -244 OFFCURVE",
"105 -244 CURVE SMOOTH",
"221 -244 OFFCURVE",
"286 -186 OFFCURVE",
"286 -60 CURVE SMOOTH",
"286 522 LINE"
);
},
{
closed = 1;
nodes = (
"264 600 OFFCURVE",
"302 633 OFFCURVE",
"302 683 CURVE SMOOTH",
"302 733 OFFCURVE",
"264 766 OFFCURVE",
"220 766 CURVE SMOOTH",
"176 766 OFFCURVE",
"138 733 OFFCURVE",
"138 683 CURVE SMOOTH",
"138 633 OFFCURVE",
"176 600 OFFCURVE",
"220 600 CURVE SMOOTH"
);
}
);
width = 396;
}
);
unicode = 006A;
},
{
glyphname = dotlessj;
lastChange = "2015-04-08 16:24:57 +0000";
layers = (
{
anchors = (
{
name = top;
position = "{198, 638}";
}
);
layerId = UUID0;
name = Regular;
paths = (
{
closed = 1;
nodes = (
"66 522 LINE",
"66 446 LINE",
"176 446 LINE",
"176 -60 LINE SMOOTH",
"176 -124 OFFCURVE",
"152 -167 OFFCURVE",
"93 -167 CURVE SMOOTH",
"64 -167 OFFCURVE",
"48 -164 OFFCURVE",
"22 -151 CURVE",
"22 -227 LINE",
"51 -243 OFFCURVE",
"72 -244 OFFCURVE",
"105 -244 CURVE SMOOTH",
"213 -244 OFFCURVE",
"264 -173 OFFCURVE",
"264 -60 CURVE SMOOTH",
"264 522 LINE"
);
}
);
width = 396;
},
{
anchors = (
{
name = top;
position = "{198, 638}";
}
);
layerId = "CD42366C-28E1-4C24-AB95-7D2C522D2B07";
name = Bold;
paths = (
{
closed = 1;
nodes = (
"44 522 LINE",
"44 424 LINE",
"154 424 LINE",
"154 -60 LINE SMOOTH",
"154 -115 OFFCURVE",
"135 -134 OFFCURVE",
"93 -134 CURVE SMOOTH",
"59 -134 OFFCURVE",
"31 -127 OFFCURVE",
"0 -107 CURVE",
"0 -216 LINE",
"28 -236 OFFCURVE",
"56 -244 OFFCURVE",
"105 -244 CURVE SMOOTH",
"221 -244 OFFCURVE",
"286 -186 OFFCURVE",
"286 -60 CURVE SMOOTH",
"286 522 LINE"
);
}
);
width = 396;
}
);
unicode = 0237;
},
{
color = 1;
glyphname = k;
lastChange = "2015-06-08 01:23:03 +0000";
layers = (
{
anchors = (
{
name = bottom;
position = "{319, -116}";
}
);
layerId = UUID0;
name = Regular;
paths = (
{
closed = 1;
nodes = (
"198 0 LINE",
"198 754 LINE",
"110 754 LINE",
"110 0 LINE"
);
},
{
closed = 1;
nodes = (
"159 110 LINE",
"550 522 LINE",
"444 522 LINE",
"148 204 LINE"
);
},
{
closed = 1;
nodes = (
"572 0 LINE",
"348 318 LINE",
"277 274 LINE",
"460 0 LINE"
);
}
);
width = 594;
},
{
anchors = (
{
name = bottom;
position = "{319, -116}";
}
);
layerId = "CD42366C-28E1-4C24-AB95-7D2C522D2B07";
name = Bold;
paths = (
{
closed = 1;
nodes = (
"220 0 LINE",
"220 754 LINE",
"88 754 LINE",
"88 0 LINE"
);
},
{
closed = 1;
nodes = (
"181 110 LINE",
"572 522 LINE",
"422 522 LINE",
"126 204 LINE"
);
},
{
closed = 1;
nodes = (
"594 0 LINE",
"370 318 LINE",
"255 274 LINE",
"438 0 LINE"
);
}
);
width = 594;
}
);
unicode = 006B;
},
{
glyphname = kgreenlandic;
lastChange = "2015-04-08 16:24:57 +0000";
layers = (
{
layerId = UUID0;
name = Regular;
paths = (
{
closed = 1;
nodes = (
"198 0 LINE",
"198 151 LINE",
"292 250 LINE",
"460 0 LINE",
"572 0 LINE",
"351 313 LINE",
"550 522 LINE",
"444 522 LINE",
"198 257 LINE",
"198 522 LINE",
"110 522 LINE",
"110 0 LINE"
);
}
);
width = 594;
},
{
layerId = "CD42366C-28E1-4C24-AB95-7D2C522D2B07";
name = Bold;
paths = (
{
closed = 1;
nodes = (
"220 0 LINE",
"220 151 LINE",
"290 225 LINE",
"438 0 LINE",
"594 0 LINE",
"373 313 LINE",
"572 522 LINE",
"422 522 LINE",
"220 303 LINE",
"220 522 LINE",
"110 522 LINE",
"110 0 LINE"
);
}
);
width = 594;
}
);
unicode = 0138;
},
{
color = 1;
glyphname = l;
lastChange = "2015-06-08 01:23:03 +0000";
layers = (
{
anchors = (
{
name = bottom;
position = "{154, -116}";
},
{
name = caronalt;
position = "{298, 638}";
},
{
name = periodcentered;
position = "{298, 348}";
},
{
name = top;
position = "{154, 638}";
}
);
layerId = UUID0;
name = Regular;
paths = (
{
closed = 1;
nodes = (
"198 0 LINE",
"198 754 LINE",
"110 754 LINE",
"110 0 LINE"
);
}
);
width = 308;
},
{
anchors = (
{
name = bottom;
position = "{154, -116}";
},
{
name = caronalt;
position = "{298, 638}";
},
{
name = periodcentered;
position = "{298, 348}";
},
{
name = top;
position = "{154, 638}";
}
);
layerId = "CD42366C-28E1-4C24-AB95-7D2C522D2B07";
name = Bold;
paths = (
{
closed = 1;
nodes = (
"220 0 LINE",
"220 754 LINE",
"88 754 LINE",
"88 0 LINE"
);
}
);
width = 308;
}
);
unicode = 006C;
},
{
glyphname = lslash;
lastChange = "2015-04-08 16:24:57 +0000";
layers = (
{
components = (
{
name = l;
}
);
layerId = UUID0;
name = Regular;
paths = (
{
closed = 1;
nodes = (
"22 290 LINE",
"286 395 LINE",
"286 481 LINE",
"22 371 LINE"
);
}
);
width = 308;
},
{
components = (
{
name = l;
}
);
layerId = "CD42366C-28E1-4C24-AB95-7D2C522D2B07";
name = Bold;
paths = (
{
closed = 1;
nodes = (
"22 268 LINE",
"286 373 LINE",
"286 503 LINE",
"22 393 LINE"
);
}
);
width = 308;
}
);
unicode = 0142;
},
{
color = 1;
glyphname = m;
lastChange = "2015-06-08 01:23:03 +0000";
layers = (
{
layerId = UUID0;
name = Regular;
paths = (
{
closed = 1;
nodes = (
"418 0 LINE",
"506 0 LINE",
"506 362 LINE SMOOTH",
"506 466 OFFCURVE",
"464 534 OFFCURVE",
"367 534 CURVE SMOOTH",
"280 534 OFFCURVE",
"236 499 OFFCURVE",
"176 436 CURVE",
"176 367 LINE",
"231 420 OFFCURVE",
"268 455 OFFCURVE",
"344 455 CURVE SMOOTH",
"400 455 OFFCURVE",
"418 412 OFFCURVE",
"418 350 CURVE SMOOTH"
);
},
{
closed = 1;
nodes = (
"110 0 LINE",
"198 0 LINE",
"198 406 LINE",
"176 522 LINE",
"88 522 LINE",
"110 406 LINE"
);
},
{
closed = 1;
nodes = (
"726 0 LINE",
"814 0 LINE",
"814 362 LINE SMOOTH",
"814 468 OFFCURVE",
"770 536 OFFCURVE",
"675 534 CURVE SMOOTH",
"594 532 OFFCURVE",
"544 499 OFFCURVE",
"484 436 CURVE",
"484 367 LINE",
"539 420 OFFCURVE",
"576 455 OFFCURVE",
"652 455 CURVE SMOOTH",
"708 455 OFFCURVE",
"726 412 OFFCURVE",
"726 350 CURVE SMOOTH"
);
}
);
width = 924;
},
{
layerId = "CD42366C-28E1-4C24-AB95-7D2C522D2B07";
name = Bold;
paths = (
{
closed = 1;
nodes = (
"396 0 LINE",
"528 0 LINE",
"528 372 LINE SMOOTH",
"528 471 OFFCURVE",
"464 534 OFFCURVE",
"363 534 CURVE SMOOTH",
"296 534 OFFCURVE",
"245 510 OFFCURVE",
"188 450 CURVE",
"188 337 LINE",
"230 389 OFFCURVE",
"275 417 OFFCURVE",
"319 417 CURVE SMOOTH",
"374 417 OFFCURVE",
"396 381 OFFCURVE",
"396 290 CURVE SMOOTH"
);
},
{
closed = 1;
nodes = (
"88 0 LINE",
"220 0 LINE",
"220 406 LINE",
"187 522 LINE",
"66 522 LINE",
"88 406 LINE"
);
},
{
closed = 1;
nodes = (
"704 0 LINE",
"836 0 LINE",
"836 372 LINE SMOOTH",
"836 471 OFFCURVE",
"772 534 OFFCURVE",
"671 534 CURVE SMOOTH",
"602 534 OFFCURVE",
"548 508 OFFCURVE",
"496 451 CURVE",
"496 337 LINE",
"538 389 OFFCURVE",
"583 417 OFFCURVE",
"627 417 CURVE SMOOTH",
"682 417 OFFCURVE",
"704 381 OFFCURVE",
"704 290 CURVE SMOOTH"
);
}
);
width = 924;
}
);
unicode = 006D;
},
{
color = 1;
glyphname = n;
lastChange = "2015-06-08 01:23:03 +0000";
layers = (
{
anchors = (
{
name = apostrophe;
position = "{10, 638}";
},
{
name = bottom;
position = "{319, -116}";
},
{
name = top;
position = "{319, 638}";
}
);
layerId = UUID0;
name = Regular;
paths = (
{
closed = 1;
nodes = (
"440 0 LINE",
"528 0 LINE",
"528 362 LINE SMOOTH",
"528 468 OFFCURVE",
"479 534 OFFCURVE",
"378 534 CURVE SMOOTH",
"288 534 OFFCURVE",
"241 500 OFFCURVE",
"176 436 CURVE",
"176 367 LINE",
"235 421 OFFCURVE",
"275 455 OFFCURVE",
"355 455 CURVE SMOOTH",
"414 455 OFFCURVE",
"440 414 OFFCURVE",
"440 350 CURVE SMOOTH"
);
},
{
closed = 1;
nodes = (
"110 0 LINE",
"198 0 LINE",
"198 406 LINE",
"176 522 LINE",
"88 522 LINE",
"110 406 LINE"
);
}
);
width = 638;
},
{
anchors = (
{
name = apostrophe;
position = "{10, 638}";
},
{
name = bottom;
position = "{319, -116}";
},
{
name = top;
position = "{319, 638}";
}
);
layerId = "CD42366C-28E1-4C24-AB95-7D2C522D2B07";
name = Bold;
paths = (
{
closed = 1;
nodes = (
"418 0 LINE",
"550 0 LINE",
"550 365 LINE SMOOTH",
"550 466 OFFCURVE",
"480 534 OFFCURVE",
"374 534 CURVE SMOOTH",
"311 534 OFFCURVE",
"260 509 OFFCURVE",
"198 447 CURVE",
"198 334 LINE",
"243 389 OFFCURVE",
"289 417 OFFCURVE",
"330 417 CURVE SMOOTH",
"393 417 OFFCURVE",
"418 381 OFFCURVE",
"418 290 CURVE SMOOTH"
);
},
{
closed = 1;
nodes = (
"88 0 LINE",
"220 0 LINE",
"220 406 LINE",
"187 522 LINE",
"66 522 LINE",
"88 406 LINE"
);
}
);
width = 638;
}
);
unicode = 006E;
},
{
color = 1;
glyphname = eng;
lastChange = "2015-06-10 20:23:55 +0000";
layers = (
{
layerId = UUID0;
name = Regular;
paths = (
{
closed = 1;
nodes = (
"110 0 LINE",
"198 0 LINE",
"198 387 LINE",
"246 429 OFFCURVE",
"285 455 OFFCURVE",
"355 455 CURVE SMOOTH",
"414 455 OFFCURVE",
"440 414 OFFCURVE",
"440 350 CURVE SMOOTH",
"440 -60 LINE SMOOTH",
"440 -124 OFFCURVE",
"416 -167 OFFCURVE",
"357 -167 CURVE SMOOTH",
"328 -167 OFFCURVE",
"312 -164 OFFCURVE",
"286 -151 CURVE",
"286 -227 LINE",
"315 -243 OFFCURVE",
"336 -244 OFFCURVE",
"369 -244 CURVE SMOOTH",
"477 -244 OFFCURVE",
"528 -173 OFFCURVE",
"528 -60 CURVE SMOOTH",
"528 362 LINE SMOOTH",
"528 468 OFFCURVE",
"479 534 OFFCURVE",
"378 534 CURVE SMOOTH",
"294 534 OFFCURVE",
"247 505 OFFCURVE",
"189 449 CURVE",
"176 522 LINE",
"88 522 LINE",
"110 406 LINE"
);
}
);
width = 638;
},
{
layerId = "CD42366C-28E1-4C24-AB95-7D2C522D2B07";
name = Bold;
paths = (
{
closed = 1;
nodes = (
"88 0 LINE",
"220 0 LINE",
"220 359 LINE",
"258 397 OFFCURVE",
"293 417 OFFCURVE",
"335 417 CURVE SMOOTH",
"393 417 OFFCURVE",
"418 378 OFFCURVE",
"418 290 CURVE SMOOTH",
"418 -60 LINE SMOOTH",
"418 -117 OFFCURVE",
"399 -134 OFFCURVE",
"353 -134 CURVE SMOOTH",
"324 -134 OFFCURVE",
"295 -127 OFFCURVE",
"264 -107 CURVE",
"264 -216 LINE",
"292 -236 OFFCURVE",
"321 -244 OFFCURVE",
"366 -244 CURVE SMOOTH",
"485 -244 OFFCURVE",
"550 -187 OFFCURVE",
"550 -60 CURVE SMOOTH",
"550 365 LINE SMOOTH",
"550 466 OFFCURVE",
"480 534 OFFCURVE",
"375 534 CURVE SMOOTH",
"314 534 OFFCURVE",
"264 511 OFFCURVE",
"206 455 CURVE",
"187 522 LINE",
"66 522 LINE",
"88 406 LINE"
);
}
);
width = 638;
}
);
unicode = 014B;
},
{
color = 1;
glyphname = o;
lastChange = "2015-06-08 01:23:03 +0000";
layers = (
{
anchors = (
{
name = bottom;
position = "{308, -116}";
},
{
name = ogonek;
position = "{308, 52}";
},
{
name = top;
position = "{308, 638}";
}
);
layerId = UUID0;
name = Regular;
paths = (
{
closed = 1;
nodes = (
"463 -12 OFFCURVE",
"550 99 OFFCURVE",
"550 261 CURVE SMOOTH",
"550 423 OFFCURVE",
"463 534 OFFCURVE",
"308 534 CURVE SMOOTH",
"153 534 OFFCURVE",
"66 423 OFFCURVE",
"66 261 CURVE SMOOTH",
"66 99 OFFCURVE",
"153 -12 OFFCURVE",
"308 -12 CURVE SMOOTH"
);
},
{
closed = 1;
nodes = (
"206 64 OFFCURVE",
"162 149 OFFCURVE",
"162 261 CURVE SMOOTH",
"162 373 OFFCURVE",
"206 458 OFFCURVE",
"308 458 CURVE SMOOTH",
"410 458 OFFCURVE",
"455 373 OFFCURVE",
"455 261 CURVE SMOOTH",
"455 149 OFFCURVE",
"410 64 OFFCURVE",
"308 64 CURVE SMOOTH"
);
}
);
width = 616;
},
{
anchors = (
{
name = bottom;
position = "{308, -116}";
},
{
name = ogonek;
position = "{308, 52}";
},
{
name = top;
position = "{308, 638}";
}
);
layerId = "CD42366C-28E1-4C24-AB95-7D2C522D2B07";
name = Bold;
paths = (
{
closed = 1;
nodes = (
"468 -12 OFFCURVE",
"572 95 OFFCURVE",
"572 261 CURVE SMOOTH",
"572 427 OFFCURVE",
"468 534 OFFCURVE",
"308 534 CURVE SMOOTH",
"148 534 OFFCURVE",
"44 427 OFFCURVE",
"44 261 CURVE SMOOTH",
"44 95 OFFCURVE",
"148 -12 OFFCURVE",
"308 -12 CURVE SMOOTH"
);
},
{
closed = 1;
nodes = (
"231 97 OFFCURVE",
"183 154 OFFCURVE",
"183 261 CURVE SMOOTH",
"183 369 OFFCURVE",
"231 425 OFFCURVE",
"308 425 CURVE SMOOTH",
"385 425 OFFCURVE",
"433 369 OFFCURVE",
"433 261 CURVE SMOOTH",
"433 154 OFFCURVE",
"385 97 OFFCURVE",
"308 97 CURVE SMOOTH"
);
}
);
width = 616;
}
);
unicode = 006F;
},
{
color = 9;
glyphname = oslash;
lastChange = "2015-06-08 01:20:13 +0000";
layers = (
{
anchors = (
{
name = top;
position = "{308, 638}";
}
);
layerId = UUID0;
name = Regular;
paths = (
{
closed = 1;
nodes = (
"143 0 LINE",
"167 29 LINE",
"204 2 OFFCURVE",
"251 -12 OFFCURVE",
"308 -12 CURVE SMOOTH",
"463 -12 OFFCURVE",
"550 99 OFFCURVE",
"550 261 CURVE SMOOTH",
"550 331 OFFCURVE",
"534 392 OFFCURVE",
"503 438 CURVE",
"572 522 LINE",
"473 522 LINE",
"449 493 LINE",
"411 519 OFFCURVE",
"364 534 OFFCURVE",
"308 534 CURVE SMOOTH",
"153 534 OFFCURVE",
"66 423 OFFCURVE",
"66 261 CURVE SMOOTH",
"66 191 OFFCURVE",
"82 130 OFFCURVE",
"113 84 CURVE",
"44 0 LINE"
);
},
{
closed = 1;
nodes = (
"161 373 OFFCURVE",
"206 458 OFFCURVE",
"308 458 CURVE SMOOTH",
"344 458 OFFCURVE",
"373 447 OFFCURVE",
"396 428 CURVE",
"176 161 LINE",
"165 190 OFFCURVE",
"161 224 OFFCURVE",
"161 261 CURVE SMOOTH"
);
},
{
closed = 1;
nodes = (
"272 64 OFFCURVE",
"243 75 OFFCURVE",
"220 94 CURVE",
"440 361 LINE",
"450 332 OFFCURVE",
"455 298 OFFCURVE",
"455 261 CURVE SMOOTH",
"455 149 OFFCURVE",
"410 64 OFFCURVE",
"308 64 CURVE SMOOTH"
);
}
);
width = 616;
},
{
anchors = (
{
name = top;
position = "{308, 638}";
}
);
layerId = "CD42366C-28E1-4C24-AB95-7D2C522D2B07";
name = Bold;
paths = (
{
closed = 1;
nodes = (
"468 -12 OFFCURVE",
"572 95 OFFCURVE",
"572 261 CURVE SMOOTH",
"572 427 OFFCURVE",
"468 534 OFFCURVE",
"308 534 CURVE SMOOTH",
"148 534 OFFCURVE",
"44 427 OFFCURVE",
"44 261 CURVE SMOOTH",
"44 95 OFFCURVE",
"148 -12 OFFCURVE",
"308 -12 CURVE SMOOTH"
);
},
{
closed = 1;
nodes = (
"231 97 OFFCURVE",
"183 154 OFFCURVE",
"183 261 CURVE SMOOTH",
"183 369 OFFCURVE",
"231 425 OFFCURVE",
"308 425 CURVE SMOOTH",
"385 425 OFFCURVE",
"433 369 OFFCURVE",
"433 261 CURVE SMOOTH",
"433 154 OFFCURVE",
"385 97 OFFCURVE",
"308 97 CURVE SMOOTH"
);
},
{
closed = 1;
nodes = (
"0 0 LINE",
"143 0 LINE",
"616 522 LINE",
"473 522 LINE"
);
}
);
width = 616;
}
);
unicode = 00F8;
},
{
color = 1;
glyphname = p;
lastChange = "2015-06-08 01:23:03 +0000";
layers = (
{
layerId = UUID0;
name = Regular;
paths = (
{
closed = 1;
nodes = (
"176 522 LINE",
"88 522 LINE",
"110 406 LINE",
"110 -232 LINE",
"198 -232 LINE",
"198 406 LINE"
);
},
{
closed = 1;
nodes = (
"484 -11 OFFCURVE",
"572 105 OFFCURVE",
"572 260 CURVE SMOOTH",
"572 413 OFFCURVE",
"500 534 OFFCURVE",
"359 534 CURVE SMOOTH",
"273 534 OFFCURVE",
"212 494 OFFCURVE",
"164 423 CURVE",
"164 338 LINE",
"216 404 OFFCURVE",
"268 453 OFFCURVE",
"351 453 CURVE SMOOTH",
"443 453 OFFCURVE",
"477 364 OFFCURVE",
"477 260 CURVE SMOOTH",
"477 152 OFFCURVE",
"426 67 OFFCURVE",
"326 67 CURVE SMOOTH",
"266 67 OFFCURVE",
"221 78 OFFCURVE",
"165 99 CURVE",
"165 34 LINE",
"223 8 OFFCURVE",
"271 -11 OFFCURVE",
"335 -11 CURVE SMOOTH"
);
}
);
width = 638;
},
{
layerId = "CD42366C-28E1-4C24-AB95-7D2C522D2B07";
name = Bold;
paths = (
{
closed = 1;
nodes = (
"295 533 OFFCURVE",
"211 483 OFFCURVE",
"164 402 CURVE",
"164 301 LINE",
"226 385 OFFCURVE",
"288 425 OFFCURVE",
"352 425 CURVE SMOOTH",
"419 425 OFFCURVE",
"455 366 OFFCURVE",
"455 264 CURVE SMOOTH",
"455 152 OFFCURVE",
"412 97 OFFCURVE",
"325 97 CURVE SMOOTH",
"277 97 OFFCURVE",
"219 108 OFFCURVE",
"165 126 CURVE",
"165 49 LINE",
"224 6 OFFCURVE",
"278 -12 OFFCURVE",
"352 -12 CURVE SMOOTH",
"491 -12 OFFCURVE",
"594 107 OFFCURVE",
"594 266 CURVE SMOOTH",
"594 425 OFFCURVE",
"508 533 OFFCURVE",
"382 533 CURVE SMOOTH"
);
},
{
closed = 1;
nodes = (
"88 -232 LINE",
"220 -232 LINE",
"220 406 LINE",
"187 522 LINE",
"66 522 LINE",
"88 406 LINE"
);
}
);
width = 638;
}
);
unicode = 0070;
},
{
color = 1;
glyphname = thorn;
lastChange = "2015-06-08 01:23:03 +0000";
layers = (
{
layerId = UUID0;
name = Regular;
paths = (
{
closed = 1;
nodes = (
"484 -11 OFFCURVE",
"572 105 OFFCURVE",
"572 260 CURVE SMOOTH",
"572 413 OFFCURVE",
"500 534 OFFCURVE",
"359 534 CURVE SMOOTH",
"292 534 OFFCURVE",
"240 510 OFFCURVE",
"198 466 CURVE",
"198 754 LINE",
"110 754 LINE",
"110 -232 LINE",
"198 -232 LINE",
"198 19 LINE",
"242 1 OFFCURVE",
"283 -11 OFFCURVE",
"335 -11 CURVE SMOOTH"
);
},
{
closed = 1;
nodes = (
"443 453 OFFCURVE",
"477 364 OFFCURVE",
"477 260 CURVE SMOOTH",
"477 152 OFFCURVE",
"426 67 OFFCURVE",
"326 67 CURVE SMOOTH",
"278 67 OFFCURVE",
"240 74 OFFCURVE",
"198 87 CURVE",
"198 378 LINE",
"240 423 OFFCURVE",
"286 453 OFFCURVE",
"351 453 CURVE SMOOTH"
);
}
);
width = 638;
},
{
layerId = "CD42366C-28E1-4C24-AB95-7D2C522D2B07";
name = Bold;
paths = (
{
closed = 1;
nodes = (
"495 -11 OFFCURVE",
"594 89 OFFCURVE",
"594 259 CURVE SMOOTH",
"594 426 OFFCURVE",
"499 534 OFFCURVE",
"363 534 CURVE SMOOTH",
"285 534 OFFCURVE",
"218 498 OFFCURVE",
"164 412 CURVE",
"164 305 LINE",
"226 383 OFFCURVE",
"287 420 OFFCURVE",
"349 420 CURVE SMOOTH",
"421 420 OFFCURVE",
"455 369 OFFCURVE",
"455 261 CURVE SMOOTH",
"455 147 OFFCURVE",
"417 100 OFFCURVE",
"326 100 CURVE SMOOTH",
"279 100 OFFCURVE",
"222 100 OFFCURVE",
"165 132 CURVE",
"165 45 LINE",
"243 2 OFFCURVE",
"283 -11 OFFCURVE",
"339 -11 CURVE SMOOTH"
);
},
{
closed = 1;
nodes = (
"88 -232 LINE",
"220 -232 LINE",
"220 754 LINE",
"88 754 LINE"
);
}
);
width = 638;
}
);
unicode = 00FE;
},
{
color = 1;
glyphname = q;
lastChange = "2015-06-08 01:23:03 +0000";
layers = (
{
layerId = UUID0;
name = Regular;
paths = (
{
closed = 1;
nodes = (
"440 441 LINE",
"440 -232 LINE",
"528 -232 LINE",
"528 407 LINE",
"550 523 LINE",
"462 523 LINE"
);
},
{
closed = 1;
nodes = (
"357 -11 OFFCURVE",
"422 27 OFFCURVE",
"474 100 CURVE",
"474 185 LINE",
"419 119 OFFCURVE",
"366 70 OFFCURVE",
"281 70 CURVE SMOOTH",
"192 70 OFFCURVE",
"161 157 OFFCURVE",
"161 258 CURVE SMOOTH",
"161 368 OFFCURVE",
"212 456 OFFCURVE",
"313 456 CURVE SMOOTH",
"373 456 OFFCURVE",
"418 444 OFFCURVE",
"473 421 CURVE",
"473 484 LINE",
"416 514 OFFCURVE",
"368 534 OFFCURVE",
"304 534 CURVE SMOOTH",
"153 534 OFFCURVE",
"66 415 OFFCURVE",
"66 256 CURVE SMOOTH",
"66 108 OFFCURVE",
"132 -11 OFFCURVE",
"267 -11 CURVE SMOOTH"
);
}
);
width = 638;
},
{
layerId = "CD42366C-28E1-4C24-AB95-7D2C522D2B07";
name = Bold;
paths = (
{
closed = 1;
nodes = (
"362 -11 OFFCURVE",
"427 18 OFFCURVE",
"474 67 CURVE",
"474 174 LINE",
"411 127 OFFCURVE",
"353 103 OFFCURVE",
"298 103 CURVE SMOOTH",
"217 103 OFFCURVE",
"183 153 OFFCURVE",
"183 275 CURVE SMOOTH",
"183 376 OFFCURVE",
"224 423 OFFCURVE",
"313 423 CURVE SMOOTH",
"389 423 OFFCURVE",
"433 414 OFFCURVE",
"473 391 CURVE",
"473 484 LINE",
"397 521 OFFCURVE",
"354 534 OFFCURVE",
"304 534 CURVE SMOOTH",
"146 534 OFFCURVE",
"44 433 OFFCURVE",
"44 275 CURVE SMOOTH",
"44 90 OFFCURVE",
"134 -11 OFFCURVE",
"298 -11 CURVE SMOOTH"
);
},
{
closed = 1;
nodes = (
"418 417 LINE",
"418 -231 LINE",
"550 -231 LINE",
"550 407 LINE",
"572 523 LINE",
"440 523 LINE"
);
}
);
width = 638;
}
);
unicode = 0071;
},
{
color = 1;
glyphname = r;
lastChange = "2015-06-08 01:23:03 +0000";
layers = (
{
anchors = (
{
name = bottom;
position = "{220, -116}";
},
{
name = top;
position = "{220, 638}";
}
);
layerId = UUID0;
name = Regular;
paths = (
{
closed = 1;
nodes = (
"196 368 LINE",
"237 413 OFFCURVE",
"301 437 OFFCURVE",
"381 437 CURVE SMOOTH",
"396 437 LINE",
"396 534 LINE",
"365 534 LINE SMOOTH",
"300 534 OFFCURVE",
"259 506 OFFCURVE",
"182 412 CURVE"
);
},
{
closed = 1;
nodes = (
"110 0 LINE",
"198 0 LINE",
"198 406 LINE",
"176 522 LINE",
"88 522 LINE",
"110 406 LINE"
);
}
);
width = 440;
},
{
anchors = (
{
name = bottom;
position = "{220, -116}";
},
{
name = top;
position = "{220, 638}";
}
);
layerId = "CD42366C-28E1-4C24-AB95-7D2C522D2B07";
name = Bold;
paths = (
{
closed = 1;
nodes = (
"196 335 LINE",
"237 380 OFFCURVE",
"301 404 OFFCURVE",
"381 404 CURVE SMOOTH",
"418 404 LINE",
"418 534 LINE",
"365 534 LINE SMOOTH",
"300 534 OFFCURVE",
"259 506 OFFCURVE",
"182 412 CURVE"
);
},
{
closed = 1;
nodes = (
"88 0 LINE",
"220 0 LINE",
"220 406 LINE",
"198 522 LINE",
"66 522 LINE",
"88 406 LINE"
);
}
);
width = 440;
}
);
unicode = 0072;
},
{
color = 1;
glyphname = s;
lastChange = "2015-06-08 01:23:03 +0000";
layers = (
{
anchors = (
{
name = bottom;
position = "{264, -116}";
},
{
name = top;
position = "{264, 638}";
}
);
layerId = UUID0;
name = Regular;
paths = (
{
closed = 1;
nodes = (
"376 -12 OFFCURVE",
"462 55 OFFCURVE",
"462 153 CURVE SMOOTH",
"462 255 OFFCURVE",
"368 281 OFFCURVE",
"286 304 CURVE SMOOTH",
"222 323 OFFCURVE",
"164 339 OFFCURVE",
"164 388 CURVE SMOOTH",
"164 431 OFFCURVE",
"208 456 OFFCURVE",
"278 456 CURVE SMOOTH",
"334 456 OFFCURVE",
"383 440 OFFCURVE",
"440 400 CURVE",
"440 489 LINE",
"387 521 OFFCURVE",
"329 534 OFFCURVE",
"274 534 CURVE SMOOTH",
"156 534 OFFCURVE",
"76 474 OFFCURVE",
"76 380 CURVE SMOOTH",
"76 282 OFFCURVE",
"167 255 OFFCURVE",
"248 233 CURVE SMOOTH",
"314 214 OFFCURVE",
"374 198 OFFCURVE",
"374 145 CURVE SMOOTH",
"374 97 OFFCURVE",
"325 66 OFFCURVE",
"252 66 CURVE SMOOTH",
"189 66 OFFCURVE",
"129 89 OFFCURVE",
"66 136 CURVE",
"66 44 LINE",
"122 8 OFFCURVE",
"188 -12 OFFCURVE",
"254 -12 CURVE SMOOTH"
);
}
);
width = 528;
},
{
anchors = (
{
name = bottom;
position = "{264, -116}";
},
{
name = top;
position = "{264, 638}";
}
);
layerId = "CD42366C-28E1-4C24-AB95-7D2C522D2B07";
name = Bold;
paths = (
{
closed = 1;
nodes = (
"389 -12 OFFCURVE",
"484 55 OFFCURVE",
"484 151 CURVE SMOOTH",
"484 364 OFFCURVE",
"186 294 OFFCURVE",
"186 378 CURVE SMOOTH",
"186 408 OFFCURVE",
"227 423 OFFCURVE",
"292 423 CURVE SMOOTH",
"352 423 OFFCURVE",
"401 406 OFFCURVE",
"462 367 CURVE",
"462 489 LINE",
"402 521 OFFCURVE",
"349 534 OFFCURVE",
"281 534 CURVE SMOOTH",
"143 534 OFFCURVE",
"54 474 OFFCURVE",
"54 380 CURVE SMOOTH",
"54 175 OFFCURVE",
"352 248 OFFCURVE",
"352 152 CURVE SMOOTH",
"352 116 OFFCURVE",
"314 99 OFFCURVE",
"242 99 CURVE SMOOTH",
"168 99 OFFCURVE",
"111 122 OFFCURVE",
"44 169 CURVE",
"44 44 LINE",
"107 8 OFFCURVE",
"180 -12 OFFCURVE",
"254 -12 CURVE SMOOTH"
);
}
);
width = 528;
}
);
unicode = 0073;
},
{
color = 1;
glyphname = germandbls;
lastChange = "2015-06-10 20:24:44 +0000";
layers = (
{
layerId = UUID0;
name = Regular;
paths = (
{
closed = 1;
nodes = (
"362 394 OFFCURVE",
"376 382 OFFCURVE",
"462 338 CURVE SMOOTH",
"550 293 OFFCURVE",
"616 259 OFFCURVE",
"616 159 CURVE SMOOTH",
"616 35 OFFCURVE",
"515 -12 OFFCURVE",
"425 -12 CURVE SMOOTH",
"374 -12 OFFCURVE",
"322 3 OFFCURVE",
"264 44 CURVE",
"264 136 LINE",
"323 87 OFFCURVE",
"371 66 OFFCURVE",
"423 66 CURVE SMOOTH",
"479 66 OFFCURVE",
"528 91 OFFCURVE",
"528 152 CURVE SMOOTH",
"528 213 OFFCURVE",
"478 239 OFFCURVE",
"424 265 CURVE SMOOTH",
"322 315 OFFCURVE",
"274 347 OFFCURVE",
"274 412 CURVE SMOOTH",
"274 521 OFFCURVE",
"407 532 OFFCURVE",
"407 613 CURVE SMOOTH",
"407 662 OFFCURVE",
"360 690 OFFCURVE",
"304 690 CURVE SMOOTH",
"233 690 OFFCURVE",
"198 646 OFFCURVE",
"198 592 CURVE SMOOTH",
"198 0 LINE",
"110 0 LINE",
"110 582 LINE SMOOTH",
"110 695 OFFCURVE",
"175 768 OFFCURVE",
"302 768 CURVE SMOOTH",
"429 768 OFFCURVE",
"495 696 OFFCURVE",
"495 616 CURVE SMOOTH",
"495 502 OFFCURVE",
"362 475 OFFCURVE",
"362 414 CURVE SMOOTH"
);
}
);
width = 682;
},
{
layerId = "CD42366C-28E1-4C24-AB95-7D2C522D2B07";
name = Bold;
paths = (
{
closed = 1;
nodes = (
"406 392 OFFCURVE",
"431 375 OFFCURVE",
"484 346 CURVE SMOOTH",
"588 289 OFFCURVE",
"638 257 OFFCURVE",
"638 167 CURVE SMOOTH",
"638 32 OFFCURVE",
"525 -12 OFFCURVE",
"429 -12 CURVE SMOOTH",
"373 -12 OFFCURVE",
"322 3 OFFCURVE",
"264 44 CURVE",
"264 169 LINE",
"324 119 OFFCURVE",
"373 99 OFFCURVE",
"422 99 CURVE SMOOTH",
"466 99 OFFCURVE",
"506 115 OFFCURVE",
"506 167 CURVE SMOOTH",
"506 202 OFFCURVE",
"487 212 OFFCURVE",
"402 255 CURVE SMOOTH",
"331 291 OFFCURVE",
"274 327 OFFCURVE",
"274 408 CURVE SMOOTH",
"274 520 OFFCURVE",
"385 532 OFFCURVE",
"385 602 CURVE SMOOTH",
"385 638 OFFCURVE",
"356 657 OFFCURVE",
"312 657 CURVE SMOOTH",
"246 657 OFFCURVE",
"220 613 OFFCURVE",
"220 559 CURVE SMOOTH",
"220 0 LINE",
"88 0 LINE",
"88 582 LINE SMOOTH",
"88 695 OFFCURVE",
"160 768 OFFCURVE",
"303 768 CURVE SMOOTH",
"444 768 OFFCURVE",
"517 697 OFFCURVE",
"517 612 CURVE SMOOTH",
"517 508 OFFCURVE",
"406 471 OFFCURVE",
"406 418 CURVE SMOOTH"
);
}
);
width = 682;
}
);
unicode = 00DF;
},
{
color = 1;
glyphname = schwa;
lastChange = "2015-06-10 20:24:44 +0000";
layers = (
{
layerId = UUID0;
name = Regular;
paths = (
{
closed = 1;
nodes = (
"203 534 OFFCURVE",
"147 516 OFFCURVE",
"88 473 CURVE",
"88 385 LINE",
"92 385 LINE",
"149 432 OFFCURVE",
"204 458 OFFCURVE",
"265 458 CURVE SMOOTH",
"370 458 OFFCURVE",
"437 380 OFFCURVE",
"437 268 CURVE",
"66 268 LINE",
"66 239 LINE SMOOTH",
"66 97 OFFCURVE",
"148 -12 OFFCURVE",
"292 -12 CURVE SMOOTH",
"441 -12 OFFCURVE",
"528 105 OFFCURVE",
"528 258 CURVE SMOOTH",
"528 420 OFFCURVE",
"430 534 OFFCURVE",
"267 534 CURVE SMOOTH"
);
},
{
closed = 1;
nodes = (
"206 61 OFFCURVE",
"165 122 OFFCURVE",
"157 200 CURVE",
"436 200 LINE",
"436 123 OFFCURVE",
"380 61 OFFCURVE",
"293 61 CURVE SMOOTH"
);
}
);
width = 594;
},
{
layerId = "CD42366C-28E1-4C24-AB95-7D2C522D2B07";
name = Bold;
paths = (
{
closed = 1;
nodes = (
"195 534 OFFCURVE",
"132 513 OFFCURVE",
"66 462 CURVE",
"66 341 LINE",
"70 341 LINE",
"134 395 OFFCURVE",
"196 425 OFFCURVE",
"265 425 CURVE SMOOTH",
"357 425 OFFCURVE",
"415 370 OFFCURVE",
"415 291 CURVE",
"44 291 LINE",
"44 239 LINE SMOOTH",
"44 97 OFFCURVE",
"134 -12 OFFCURVE",
"292 -12 CURVE SMOOTH",
"455 -12 OFFCURVE",
"550 105 OFFCURVE",
"550 258 CURVE SMOOTH",
"550 420 OFFCURVE",
"444 534 OFFCURVE",
"267 534 CURVE SMOOTH"
);
},
{
closed = 1;
nodes = (
"220 94 OFFCURVE",
"186 137 OFFCURVE",
"179 190 CURVE",
"414 190 LINE",
"414 137 OFFCURVE",
"367 94 OFFCURVE",
"293 94 CURVE SMOOTH"
);
}
);
width = 594;
}
);
unicode = 0259;
},
{
color = 1;
glyphname = t;
lastChange = "2015-06-08 01:23:03 +0000";
layers = (
{
anchors = (
{
name = bottom;
position = "{220, -116}";
},
{
name = caronalt;
position = "{430, 638}";
}
);
layerId = UUID0;
name = Regular;
paths = (
{
closed = 1;
nodes = (
"154 662 LINE",
"154 522 LINE",
"44 522 LINE",
"44 446 LINE",
"154 446 LINE",
"154 138 LINE SMOOTH",
"154 48 OFFCURVE",
"204 -12 OFFCURVE",
"291 -12 CURVE SMOOTH",
"331 -12 OFFCURVE",
"359 -10 OFFCURVE",
"396 6 CURVE",
"396 84 LINE",
"365 71 OFFCURVE",
"341 65 OFFCURVE",
"307 65 CURVE SMOOTH",
"263 65 OFFCURVE",
"242 100 OFFCURVE",
"242 147 CURVE SMOOTH",
"242 446 LINE",
"396 446 LINE",
"396 522 LINE",
"242 522 LINE",
"242 708 LINE"
);
}
);
width = 440;
},
{
anchors = (
{
name = bottom;
position = "{220, -116}";
},
{
name = caronalt;
position = "{430, 638}";
}
);
layerId = "CD42366C-28E1-4C24-AB95-7D2C522D2B07";
name = Bold;
paths = (
{
closed = 1;
nodes = (
"132 662 LINE",
"132 522 LINE",
"22 522 LINE",
"22 424 LINE",
"132 424 LINE",
"132 172 LINE SMOOTH",
"132 48 OFFCURVE",
"187 -12 OFFCURVE",
"299 -12 CURVE SMOOTH",
"342 -12 OFFCURVE",
"393 -4 OFFCURVE",
"418 6 CURVE",
"418 115 LINE",
"396 106 OFFCURVE",
"355 98 OFFCURVE",
"319 98 CURVE SMOOTH",
"283 98 OFFCURVE",
"264 122 OFFCURVE",
"264 172 CURVE SMOOTH",
"264 424 LINE",
"418 424 LINE",
"418 522 LINE",
"264 522 LINE",
"264 708 LINE"
);
}
);
width = 440;
}
);
unicode = 0074;
},
{
color = 1;
glyphname = u;
lastChange = "2015-06-08 01:23:03 +0000";
layers = (
{
anchors = (
{
name = bottom;
position = "{308, -116}";
},
{
name = ogonek;
position = "{462, 52}";
},
{
name = top;
position = "{308, 638}";
}
);
layerId = UUID0;
name = Regular;
paths = (
{
closed = 1;
nodes = (
"175 522 LINE",
"87 522 LINE",
"87 160 LINE SMOOTH",
"87 58 OFFCURVE",
"140 -12 OFFCURVE",
"237 -12 CURVE SMOOTH",
"323 -12 OFFCURVE",
"377 25 OFFCURVE",
"439 86 CURVE",
"439 155 LINE",
"382 103 OFFCURVE",
"337 67 OFFCURVE",
"260 67 CURVE SMOOTH",
"203 67 OFFCURVE",
"175 111 OFFCURVE",
"175 172 CURVE SMOOTH"
);
},
{
closed = 1;
nodes = (
"505 522 LINE",
"417 522 LINE",
"417 116 LINE",
"439 0 LINE",
"527 0 LINE",
"505 116 LINE"
);
}
);
width = 616;
},
{
anchors = (
{
name = bottom;
position = "{308, -116}";
},
{
name = ogonek;
position = "{462, 52}";
},
{
name = top;
position = "{308, 638}";
}
);
layerId = "CD42366C-28E1-4C24-AB95-7D2C522D2B07";
name = Bold;
paths = (
{
closed = 1;
nodes = (
"198 522 LINE",
"66 522 LINE",
"66 157 LINE SMOOTH",
"66 59 OFFCURVE",
"137 -12 OFFCURVE",
"233 -12 CURVE SMOOTH",
"301 -12 OFFCURVE",
"345 8 OFFCURVE",
"418 75 CURVE",
"418 188 LINE",
"365 128 OFFCURVE",
"325 105 OFFCURVE",
"276 105 CURVE SMOOTH",
"225 105 OFFCURVE",
"198 148 OFFCURVE",
"198 232 CURVE SMOOTH"
);
},
{
closed = 1;
nodes = (
"528 522 LINE",
"396 522 LINE",
"396 116 LINE",
"429 0 LINE",
"550 0 LINE",
"528 116 LINE"
);
}
);
width = 616;
}
);
unicode = 0075;
},
{
color = 1;
glyphname = v;
lastChange = "2015-06-08 01:23:03 +0000";
layers = (
{
layerId = UUID0;
name = Regular;
paths = (
{
closed = 1;
nodes = (
"325 0 LINE",
"134 522 LINE",
"44 522 LINE",
"237 0 LINE"
);
},
{
closed = 1;
nodes = (
"357 0 LINE",
"550 522 LINE",
"464 522 LINE",
"273 0 LINE"
);
}
);
width = 594;
},
{
layerId = "CD42366C-28E1-4C24-AB95-7D2C522D2B07";
name = Bold;
paths = (
{
closed = 1;
nodes = (
"337 0 LINE",
"156 522 LINE",
"22 522 LINE",
"215 0 LINE"
);
},
{
closed = 1;
nodes = (
"379 0 LINE",
"572 522 LINE",
"442 522 LINE",
"261 0 LINE"
);
}
);
width = 594;
}
);
unicode = 0076;
},
{
color = 1;
glyphname = w;
lastChange = "2015-06-08 01:23:03 +0000";
layers = (
{
anchors = (
{
name = top;
position = "{440, 638}";
}
);
layerId = UUID0;
name = Regular;
paths = (
{
closed = 1;
nodes = (
"292 0 LINE",
"134 522 LINE",
"44 522 LINE",
"204 0 LINE"
);
},
{
closed = 1;
nodes = (
"318 0 LINE",
"476 522 LINE",
"396 522 LINE",
"240 0 LINE"
);
},
{
closed = 1;
nodes = (
"644 0 LINE",
"486 522 LINE",
"402 522 LINE",
"562 0 LINE"
);
},
{
closed = 1;
nodes = (
"676 0 LINE",
"835 522 LINE",
"749 522 LINE",
"592 0 LINE"
);
}
);
width = 880;
},
{
anchors = (
{
name = top;
position = "{440, 638}";
}
);
layerId = "CD42366C-28E1-4C24-AB95-7D2C522D2B07";
name = Bold;
paths = (
{
closed = 1;
nodes = (
"304 0 LINE",
"156 522 LINE",
"22 522 LINE",
"182 0 LINE"
);
},
{
closed = 1;
nodes = (
"340 0 LINE",
"488 522 LINE",
"374 522 LINE",
"228 0 LINE"
);
},
{
closed = 1;
nodes = (
"656 0 LINE",
"508 522 LINE",
"390 522 LINE",
"540 0 LINE"
);
},
{
closed = 1;
nodes = (
"698 0 LINE",
"857 522 LINE",
"727 522 LINE",
"580 0 LINE"
);
}
);
width = 880;
}
);
unicode = 0077;
},
{
color = 1;
glyphname = x;
lastChange = "2015-06-08 01:23:03 +0000";
layers = (
{
layerId = UUID0;
name = Regular;
paths = (
{
closed = 1;
nodes = (
"550 0 LINE",
"146 522 LINE",
"44 522 LINE",
"448 0 LINE"
);
},
{
closed = 1;
nodes = (
"260 310 LINE",
"22 0 LINE",
"117 0 LINE",
"300 244 LINE"
);
},
{
closed = 1;
nodes = (
"313 241 LINE",
"528 522 LINE",
"433 522 LINE",
"273 307 LINE"
);
}
);
width = 572;
},
{
layerId = "CD42366C-28E1-4C24-AB95-7D2C522D2B07";
name = Bold;
paths = (
{
closed = 1;
nodes = (
"572 0 LINE",
"168 522 LINE",
"22 522 LINE",
"426 0 LINE"
);
},
{
closed = 1;
nodes = (
"238 310 LINE",
"0 0 LINE",
"139 0 LINE",
"322 244 LINE"
);
},
{
closed = 1;
nodes = (
"335 241 LINE",
"550 522 LINE",
"411 522 LINE",
"251 307 LINE"
);
}
);
width = 572;
}
);
unicode = 0078;
},
{
color = 1;
glyphname = y;
lastChange = "2015-06-08 01:23:03 +0000";
layers = (
{
anchors = (
{
name = top;
position = "{297, 638}";
}
);
layerId = UUID0;
name = Regular;
paths = (
{
closed = 1;
nodes = (
"333 0 LINE",
"134 522 LINE",
"44 522 LINE",
"255 -17 LINE"
);
},
{
closed = 1;
nodes = (
"251 -232 LINE",
"550 522 LINE",
"456 522 LINE",
"281 50 LINE",
"273 50 LINE",
"161 -232 LINE"
);
}
);
width = 594;
},
{
anchors = (
{
name = top;
position = "{297, 638}";
}
);
layerId = "CD42366C-28E1-4C24-AB95-7D2C522D2B07";
name = Bold;
paths = (
{
closed = 1;
nodes = (
"354 0 LINE",
"156 522 LINE",
"22 522 LINE",
"233 -17 LINE"
);
},
{
closed = 1;
nodes = (
"273 -232 LINE",
"571 522 LINE",
"439 522 LINE",
"268 50 LINE",
"260 50 LINE",
"148 -232 LINE"
);
}
);
width = 594;
}
);
unicode = 0079;
},
{
color = 1;
glyphname = z;
lastChange = "2015-06-08 01:23:03 +0000";
layers = (
{
anchors = (
{
name = bottom;
position = "{297, -116}";
},
{
name = top;
position = "{297, 638}";
}
);
layerId = UUID0;
name = Regular;
paths = (
{
closed = 1;
nodes = (
"506 522 LINE",
"88 522 LINE",
"88 453 LINE",
"444 453 LINE",
"506 463 LINE"
);
},
{
closed = 1;
nodes = (
"528 69 LINE",
"96 69 LINE",
"66 59 LINE",
"66 0 LINE",
"528 0 LINE"
);
},
{
closed = 1;
nodes = (
"171 59 LINE",
"506 463 LINE",
"402 463 LINE",
"66 59 LINE"
);
}
);
width = 594;
},
{
anchors = (
{
name = bottom;
position = "{297, -116}";
},
{
name = top;
position = "{297, 638}";
}
);
layerId = "CD42366C-28E1-4C24-AB95-7D2C522D2B07";
name = Bold;
paths = (
{
closed = 1;
nodes = (
"529 522 LINE",
"66 522 LINE",
"66 420 LINE",
"466 420 LINE",
"529 430 LINE"
);
},
{
closed = 1;
nodes = (
"550 102 LINE",
"74 102 LINE",
"44 92 LINE",
"44 0 LINE",
"550 0 LINE"
);
},
{
closed = 1;
nodes = (
"220 98 LINE",
"529 430 LINE",
"354 424 LINE",
"44 92 LINE"
);
}
);
width = 594;
}
);
unicode = 007A;
},
{
color = 1;
glyphname = f_b;
lastChange = "2015-06-10 20:25:49 +0000";
layers = (
{
layerId = UUID0;
name = Regular;
paths = (
{
closed = 1;
nodes = (
"242 0 LINE",
"242 446 LINE",
"374 446 LINE",
"374 522 LINE",
"242 522 LINE",
"242 592 LINE SMOOTH",
"242 646 OFFCURVE",
"277 689 OFFCURVE",
"356 689 CURVE SMOOTH",
"409 689 OFFCURVE",
"442 671 OFFCURVE",
"502 624 CURVE",
"506 624 LINE",
"506 716 LINE",
"439 755 OFFCURVE",
"400 766 OFFCURVE",
"338 766 CURVE SMOOTH",
"222 766 OFFCURVE",
"154 695 OFFCURVE",
"154 582 CURVE SMOOTH",
"154 522 LINE",
"44 522 LINE",
"44 446 LINE",
"154 446 LINE",
"154 0 LINE"
);
},
{
closed = 1;
nodes = (
"836 -11 OFFCURVE",
"924 105 OFFCURVE",
"924 260 CURVE SMOOTH",
"924 413 OFFCURVE",
"852 534 OFFCURVE",
"711 534 CURVE SMOOTH",
"644 534 OFFCURVE",
"592 510 OFFCURVE",
"550 465 CURVE",
"550 754 LINE",
"546 754 LINE",
"506 716 LINE",
"462 716 LINE",
"462 0 LINE",
"550 0 LINE",
"550 19 LINE",
"594 1 OFFCURVE",
"635 -11 OFFCURVE",
"687 -11 CURVE SMOOTH"
);
},
{
closed = 1;
nodes = (
"630 67 OFFCURVE",
"592 74 OFFCURVE",
"550 87 CURVE",
"550 378 LINE",
"592 423 OFFCURVE",
"638 453 OFFCURVE",
"703 453 CURVE SMOOTH",
"795 453 OFFCURVE",
"829 364 OFFCURVE",
"829 260 CURVE SMOOTH",
"829 152 OFFCURVE",
"778 67 OFFCURVE",
"678 67 CURVE SMOOTH"
);
}
);
width = 990;
},
{
layerId = "CD42366C-28E1-4C24-AB95-7D2C522D2B07";
name = Bold;
paths = (
{
closed = 1;
nodes = (
"264 0 LINE",
"264 424 LINE",
"374 424 LINE",
"374 522 LINE",
"264 522 LINE",
"264 559 LINE SMOOTH",
"264 613 OFFCURVE",
"292 656 OFFCURVE",
"356 656 CURVE SMOOTH",
"409 656 OFFCURVE",
"442 638 OFFCURVE",
"502 591 CURVE",
"506 591 LINE",
"506 716 LINE",
"439 755 OFFCURVE",
"400 766 OFFCURVE",
"338 766 CURVE SMOOTH",
"208 766 OFFCURVE",
"132 695 OFFCURVE",
"132 582 CURVE SMOOTH",
"132 522 LINE",
"22 522 LINE",
"22 424 LINE",
"132 424 LINE",
"132 0 LINE"
);
},
{
closed = 1;
nodes = (
"847 -11 OFFCURVE",
"946 89 OFFCURVE",
"946 259 CURVE SMOOTH",
"946 426 OFFCURVE",
"851 534 OFFCURVE",
"715 534 CURVE SMOOTH",
"662.057 534 OFFCURVE",
"614.182 517.414 OFFCURVE",
"572 479.865 CURVE",
"572 754 LINE",
"568 754 LINE",
"506 716 LINE",
"440 708 LINE",
"440 0 LINE",
"572 0 LINE",
"572 16.823 LINE",
"617.319 -3.976 OFFCURVE",
"649.837 -11 OFFCURVE",
"691 -11 CURVE SMOOTH"
);
},
{
closed = 1;
nodes = (
"646.21 100 OFFCURVE",
"609.845 100 OFFCURVE",
"572 109.902 CURVE",
"572 364.601 LINE",
"614.966 401.986 OFFCURVE",
"657.74 420 OFFCURVE",
"701 420 CURVE SMOOTH",
"773 420 OFFCURVE",
"807 369 OFFCURVE",
"807 261 CURVE SMOOTH",
"807 147 OFFCURVE",
"769 100 OFFCURVE",
"678 100 CURVE SMOOTH"
);
}
);
width = 990;
}
);
},
{
color = 1;
glyphname = f_f;
lastChange = "2015-06-10 20:25:49 +0000";
layers = (
{
layerId = UUID0;
name = Regular;
paths = (
{
closed = 1;
nodes = (
"352 446 LINE",
"462 446 LINE",
"462 0 LINE",
"550 0 LINE",
"550 446 LINE",
"704 446 LINE",
"704 522 LINE",
"550 522 LINE",
"550 592 LINE SMOOTH",
"550 646 OFFCURVE",
"574 689 OFFCURVE",
"643 689 CURVE SMOOTH",
"664 689 OFFCURVE",
"678 685 OFFCURVE",
"704 673 CURVE",
"704 749 LINE",
"674 761 OFFCURVE",
"654 766 OFFCURVE",
"624 766 CURVE SMOOTH",
"513 766 OFFCURVE",
"462 695 OFFCURVE",
"462 582 CURVE SMOOTH",
"462 522 LINE",
"352 522 LINE"
);
},
{
closed = 1;
nodes = (
"44 446 LINE",
"154 446 LINE",
"154 0 LINE",
"242 0 LINE",
"242 446 LINE",
"396 446 LINE",
"396 522 LINE",
"242 522 LINE",
"242 570 LINE SMOOTH",
"242 624 OFFCURVE",
"282 670 OFFCURVE",
"369 670 CURVE SMOOTH",
"419 670 OFFCURVE",
"458 655 OFFCURVE",
"506 607 CURVE",
"506 705 LINE",
"451 733 OFFCURVE",
"410 744 OFFCURVE",
"359 744 CURVE SMOOTH",
"229 744 OFFCURVE",
"154 673 OFFCURVE",
"154 560 CURVE SMOOTH",
"154 522 LINE",
"44 522 LINE"
);
}
);
width = 748;
},
{
layerId = "CD42366C-28E1-4C24-AB95-7D2C522D2B07";
name = Bold;
paths = (
{
closed = 1;
nodes = (
"330 424 LINE",
"440 424 LINE",
"440 0 LINE",
"572 0 LINE",
"572 424 LINE",
"704 424 LINE",
"704 522 LINE",
"572 522 LINE",
"572 598 LINE SMOOTH",
"572 634 OFFCURVE",
"590 662 OFFCURVE",
"643 662 CURVE SMOOTH",
"664 662 OFFCURVE",
"678 658 OFFCURVE",
"704 646 CURVE",
"704 749 LINE",
"674 761 OFFCURVE",
"654 766 OFFCURVE",
"624 766 CURVE SMOOTH",
"502 766 OFFCURVE",
"446 695 OFFCURVE",
"446 582 CURVE SMOOTH",
"446 522 LINE",
"330 522 LINE"
);
},
{
closed = 1;
nodes = (
"22 424 LINE",
"132 424 LINE",
"132 0 LINE",
"264 0 LINE",
"264 424 LINE",
"374 424 LINE",
"374 522 LINE",
"264 522 LINE",
"264 543 LINE SMOOTH",
"264 597 OFFCURVE",
"297 643 OFFCURVE",
"369 643 CURVE SMOOTH",
"419 643 OFFCURVE",
"458 628 OFFCURVE",
"506 580 CURVE",
"506 705 LINE",
"451 733 OFFCURVE",
"410 744 OFFCURVE",
"359 744 CURVE SMOOTH",
"215 744 OFFCURVE",
"132 673 OFFCURVE",
"132 560 CURVE SMOOTH",
"132 522 LINE",
"22 522 LINE"
);
}
);
width = 748;
}
);
unicode = FB00;
},
{
color = 1;
glyphname = f_f_b;
lastChange = "2015-06-10 20:25:49 +0000";
layers = (
{
layerId = UUID0;
name = Regular;
paths = (
{
closed = 1;
nodes = (
"44 446 LINE",
"154 446 LINE",
"154 0 LINE",
"242 0 LINE",
"242 446 LINE",
"396 446 LINE",
"396 522 LINE",
"242 522 LINE",
"242 570 LINE SMOOTH",
"242 624 OFFCURVE",
"282 670 OFFCURVE",
"369 670 CURVE SMOOTH",
"419 670 OFFCURVE",
"458 655 OFFCURVE",
"506 607 CURVE",
"506 705 LINE",
"451 733 OFFCURVE",
"410 744 OFFCURVE",
"359 744 CURVE SMOOTH",
"229 744 OFFCURVE",
"154 673 OFFCURVE",
"154 560 CURVE SMOOTH",
"154 522 LINE",
"44 522 LINE"
);
},
{
closed = 1;
nodes = (
"352 446 LINE",
"462 446 LINE",
"462 0 LINE",
"550 0 LINE",
"550 446 LINE",
"682 446 LINE",
"682 522 LINE",
"550 522 LINE",
"550 592 LINE SMOOTH",
"550 646 OFFCURVE",
"585 689 OFFCURVE",
"664 689 CURVE SMOOTH",
"717 689 OFFCURVE",
"750 671 OFFCURVE",
"810 624 CURVE",
"814 624 LINE",
"814 716 LINE",
"747 755 OFFCURVE",
"708 766 OFFCURVE",
"646 766 CURVE SMOOTH",
"530 766 OFFCURVE",
"462 695 OFFCURVE",
"462 582 CURVE SMOOTH",
"462 522 LINE",
"352 522 LINE"
);
},
{
closed = 1;
nodes = (
"770 0 LINE",
"858 0 LINE",
"858 19 LINE",
"902 1 OFFCURVE",
"943 -11 OFFCURVE",
"995 -11 CURVE SMOOTH",
"1144 -11 OFFCURVE",
"1232 105 OFFCURVE",
"1232 260 CURVE SMOOTH",
"1232 413 OFFCURVE",
"1160 534 OFFCURVE",
"1019 534 CURVE SMOOTH",
"952 534 OFFCURVE",
"900 510 OFFCURVE",
"858 465 CURVE",
"858 754 LINE",
"854 754 LINE",
"814 716 LINE",
"770 716 LINE"
);
},
{
closed = 1;
nodes = (
"1103 453 OFFCURVE",
"1137 364 OFFCURVE",
"1137 260 CURVE SMOOTH",
"1137 152 OFFCURVE",
"1086 67 OFFCURVE",
"986 67 CURVE SMOOTH",
"938 67 OFFCURVE",
"900 74 OFFCURVE",
"858 87 CURVE",
"858 378 LINE",
"900 423 OFFCURVE",
"946 453 OFFCURVE",
"1011 453 CURVE SMOOTH"
);
}
);
width = 1298;
},
{
layerId = "CD42366C-28E1-4C24-AB95-7D2C522D2B07";
name = Bold;
paths = (
{
closed = 1;
nodes = (
"22 424 LINE",
"132 424 LINE",
"132 0 LINE",
"264 0 LINE",
"264 424 LINE",
"374 424 LINE",
"374 522 LINE",
"264 522 LINE",
"264 543 LINE SMOOTH",
"264 597 OFFCURVE",
"297 643 OFFCURVE",
"369 643 CURVE SMOOTH",
"419 643 OFFCURVE",
"458 628 OFFCURVE",
"506 580 CURVE",
"506 705 LINE",
"451 733 OFFCURVE",
"410 744 OFFCURVE",
"359 744 CURVE SMOOTH",
"215 744 OFFCURVE",
"132 673 OFFCURVE",
"132 560 CURVE SMOOTH",
"132 522 LINE",
"22 522 LINE"
);
},
{
closed = 1;
nodes = (
"352 424 LINE",
"440 424 LINE",
"440 0 LINE",
"572 0 LINE",
"572 424 LINE",
"682 424 LINE",
"682 522 LINE",
"572 522 LINE",
"572 559 LINE SMOOTH",
"572 613 OFFCURVE",
"600 656 OFFCURVE",
"664 656 CURVE SMOOTH",
"717 656 OFFCURVE",
"750 638 OFFCURVE",
"810 591 CURVE",
"814 591 LINE",
"814 716 LINE",
"747 755 OFFCURVE",
"708 766 OFFCURVE",
"646 766 CURVE SMOOTH",
"516 766 OFFCURVE",
"440 695 OFFCURVE",
"440 582 CURVE SMOOTH",
"440 522 LINE",
"352 522 LINE"
);
},
{
closed = 1;
nodes = (
"1155 -11 OFFCURVE",
"1254 89 OFFCURVE",
"1254 259 CURVE SMOOTH",
"1254 426 OFFCURVE",
"1159 534 OFFCURVE",
"1023 534 CURVE SMOOTH",
"945 534 OFFCURVE",
"878 498 OFFCURVE",
"824 412 CURVE",
"824 305 LINE",
"886 383 OFFCURVE",
"947 420 OFFCURVE",
"1009 420 CURVE SMOOTH",
"1081 420 OFFCURVE",
"1115 369 OFFCURVE",
"1115 261 CURVE SMOOTH",
"1115 147 OFFCURVE",
"1077 100 OFFCURVE",
"986 100 CURVE SMOOTH",
"939 100 OFFCURVE",
"882 100 OFFCURVE",
"825 132 CURVE",
"825 45 LINE",
"903 2 OFFCURVE",
"943 -11 OFFCURVE",
"999 -11 CURVE SMOOTH"
);
},
{
closed = 1;
nodes = (
"748 0 LINE",
"880 0 LINE",
"880 754 LINE",
"876 754 LINE",
"814 716 LINE",
"748 708 LINE"
);
}
);
width = 1298;
}
);
},
{
color = 1;
glyphname = f_f_h;
lastChange = "2015-06-10 20:25:49 +0000";
layers = (
{
layerId = UUID0;
name = Regular;
paths = (
{
closed = 1;
nodes = (
"44 446 LINE",
"154 446 LINE",
"154 0 LINE",
"242 0 LINE",
"242 446 LINE",
"396 446 LINE",
"396 522 LINE",
"242 522 LINE",
"242 570 LINE SMOOTH",
"242 624 OFFCURVE",
"282 670 OFFCURVE",
"369 670 CURVE SMOOTH",
"419 670 OFFCURVE",
"458 655 OFFCURVE",
"506 607 CURVE",
"506 705 LINE",
"451 733 OFFCURVE",
"410 744 OFFCURVE",
"359 744 CURVE SMOOTH",
"229 744 OFFCURVE",
"154 673 OFFCURVE",
"154 560 CURVE SMOOTH",
"154 522 LINE",
"44 522 LINE"
);
},
{
closed = 1;
nodes = (
"352 446 LINE",
"462 446 LINE",
"462 0 LINE",
"550 0 LINE",
"550 446 LINE",
"682 446 LINE",
"682 522 LINE",
"550 522 LINE",
"550 592 LINE SMOOTH",
"550 646 OFFCURVE",
"585 689 OFFCURVE",
"664 689 CURVE SMOOTH",
"717 689 OFFCURVE",
"750 671 OFFCURVE",
"810 624 CURVE",
"814 624 LINE",
"814 716 LINE",
"747 755 OFFCURVE",
"708 766 OFFCURVE",
"646 766 CURVE SMOOTH",
"530 766 OFFCURVE",
"462 695 OFFCURVE",
"462 582 CURVE SMOOTH",
"462 522 LINE",
"352 522 LINE"
);
},
{
closed = 1;
nodes = (
"770 0 LINE",
"858 0 LINE",
"858 387 LINE",
"906 429 OFFCURVE",
"945 455 OFFCURVE",
"1015 455 CURVE SMOOTH",
"1074 455 OFFCURVE",
"1100 414 OFFCURVE",
"1100 350 CURVE SMOOTH",
"1100 0 LINE",
"1188 0 LINE",
"1188 362 LINE SMOOTH",
"1188 468 OFFCURVE",
"1139 534 OFFCURVE",
"1038 534 CURVE SMOOTH",
"958 534 OFFCURVE",
"912 508 OFFCURVE",
"858 457 CURVE",
"858 754 LINE",
"854 754 LINE",
"814 716 LINE",
"770 716 LINE"
);
}
);
width = 1298;
},
{
layerId = "CD42366C-28E1-4C24-AB95-7D2C522D2B07";
name = Bold;
paths = (
{
closed = 1;
nodes = (
"22 424 LINE",
"132 424 LINE",
"132 0 LINE",
"264 0 LINE",
"264 424 LINE",
"374 424 LINE",
"374 522 LINE",
"264 522 LINE",
"264 543 LINE SMOOTH",
"264 597 OFFCURVE",
"297 643 OFFCURVE",
"369 643 CURVE SMOOTH",
"419 643 OFFCURVE",
"458 628 OFFCURVE",
"506 580 CURVE",
"506 705 LINE",
"451 733 OFFCURVE",
"410 744 OFFCURVE",
"359 744 CURVE SMOOTH",
"215 744 OFFCURVE",
"132 673 OFFCURVE",
"132 560 CURVE SMOOTH",
"132 522 LINE",
"22 522 LINE"
);
},
{
closed = 1;
nodes = (
"352 424 LINE",
"440 424 LINE",
"440 0 LINE",
"572 0 LINE",
"572 424 LINE",
"682 424 LINE",
"682 522 LINE",
"572 522 LINE",
"572 559 LINE SMOOTH",
"572 613 OFFCURVE",
"600 656 OFFCURVE",
"664 656 CURVE SMOOTH",
"717 656 OFFCURVE",
"750 638 OFFCURVE",
"810 591 CURVE",
"814 591 LINE",
"814 716 LINE",
"747 755 OFFCURVE",
"708 766 OFFCURVE",
"646 766 CURVE SMOOTH",
"516 766 OFFCURVE",
"440 695 OFFCURVE",
"440 582 CURVE SMOOTH",
"440 522 LINE",
"352 522 LINE"
);
},
{
closed = 1;
nodes = (
"1078 0 LINE",
"1210 0 LINE",
"1210 365 LINE SMOOTH",
"1210 466 OFFCURVE",
"1140 534 OFFCURVE",
"1034 534 CURVE SMOOTH",
"971 534 OFFCURVE",
"920 509 OFFCURVE",
"858 447 CURVE",
"858 334 LINE",
"904 389 OFFCURVE",
"949 417 OFFCURVE",
"990 417 CURVE SMOOTH",
"1053 417 OFFCURVE",
"1078 381 OFFCURVE",
"1078 290 CURVE SMOOTH"
);
},
{
closed = 1;
nodes = (
"748 0 LINE",
"880 0 LINE",
"880 754 LINE",
"876 754 LINE",
"814 716 LINE",
"748 702 LINE"
);
}
);
width = 1298;
}
);
},
{
color = 1;
glyphname = f_f_i;
lastChange = "2015-06-10 20:25:49 +0000";
layers = (
{
layerId = UUID0;
name = Regular;
paths = (
{
closed = 1;
nodes = (
"44 446 LINE",
"154 446 LINE",
"154 0 LINE",
"242 0 LINE",
"242 446 LINE",
"396 446 LINE",
"396 522 LINE",
"242 522 LINE",
"242 570 LINE SMOOTH",
"242 624 OFFCURVE",
"282 670 OFFCURVE",
"369 670 CURVE SMOOTH",
"419 670 OFFCURVE",
"458 655 OFFCURVE",
"506 607 CURVE",
"506 705 LINE",
"451 733 OFFCURVE",
"410 744 OFFCURVE",
"359 744 CURVE SMOOTH",
"229 744 OFFCURVE",
"154 673 OFFCURVE",
"154 560 CURVE SMOOTH",
"154 522 LINE",
"44 522 LINE"
);
},
{
closed = 1;
nodes = (
"352 446 LINE",
"462 446 LINE",
"462 0 LINE",
"550 0 LINE",
"550 446 LINE",
"704 446 LINE",
"704 522 LINE",
"550 522 LINE",
"550 592 LINE SMOOTH",
"550 646 OFFCURVE",
"585 689 OFFCURVE",
"664 689 CURVE SMOOTH",
"717 689 OFFCURVE",
"750 677 OFFCURVE",
"810 646 CURVE",
"814 646 LINE",
"814 729 LINE",
"747 757 OFFCURVE",
"708 766 OFFCURVE",
"646 766 CURVE SMOOTH",
"530 766 OFFCURVE",
"462 695 OFFCURVE",
"462 582 CURVE SMOOTH",
"462 522 LINE",
"352 522 LINE"
);
},
{
closed = 1;
nodes = (
"770 0 LINE",
"858 0 LINE",
"858 522 LINE",
"660 522 LINE",
"660 446 LINE",
"770 446 LINE"
);
}
);
width = 968;
},
{
layerId = "CD42366C-28E1-4C24-AB95-7D2C522D2B07";
name = Bold;
paths = (
{
closed = 1;
nodes = (
"22 424 LINE",
"132 424 LINE",
"132 0 LINE",
"264 0 LINE",
"264 424 LINE",
"374 424 LINE",
"374 522 LINE",
"264 522 LINE",
"264 543 LINE SMOOTH",
"264 597 OFFCURVE",
"297 643 OFFCURVE",
"369 643 CURVE SMOOTH",
"419 643 OFFCURVE",
"458 628 OFFCURVE",
"506 580 CURVE",
"506 705 LINE",
"451 733 OFFCURVE",
"410 744 OFFCURVE",
"359 744 CURVE SMOOTH",
"215 744 OFFCURVE",
"132 673 OFFCURVE",
"132 560 CURVE SMOOTH",
"132 522 LINE",
"22 522 LINE"
);
},
{
closed = 1;
nodes = (
"352 424 LINE",
"440 424 LINE",
"440 0 LINE",
"572 0 LINE",
"572 424 LINE",
"682 424 LINE",
"704 522 LINE",
"572 522 LINE",
"572 559 LINE SMOOTH",
"572 613 OFFCURVE",
"601 656 OFFCURVE",
"678 656 CURVE SMOOTH",
"724 656 OFFCURVE",
"759 641 OFFCURVE",
"810 613 CURVE",
"814 613 LINE",
"814 729 LINE",
"757 753 OFFCURVE",
"711 766 OFFCURVE",
"654 766 CURVE SMOOTH",
"512 766 OFFCURVE",
"440 687 OFFCURVE",
"440 560 CURVE SMOOTH",
"440 522 LINE",
"352 522 LINE"
);
},
{
closed = 1;
nodes = (
"748 0 LINE",
"880 0 LINE",
"880 522 LINE",
"660 522 LINE",
"638 424 LINE",
"748 424 LINE"
);
}
);
width = 968;
}
);
unicode = FB03;
},
{
color = 1;
glyphname = f_f_j;
lastChange = "2015-06-10 20:25:49 +0000";
layers = (
{
layerId = UUID0;
name = Regular;
paths = (
{
closed = 1;
nodes = (
"44 446 LINE",
"154 446 LINE",
"154 0 LINE",
"242 0 LINE",
"242 446 LINE",
"396 446 LINE",
"396 522 LINE",
"242 522 LINE",
"242 570 LINE SMOOTH",
"242 624 OFFCURVE",
"282 670 OFFCURVE",
"369 670 CURVE SMOOTH",
"419 670 OFFCURVE",
"458 655 OFFCURVE",
"506 607 CURVE",
"506 705 LINE",
"451 733 OFFCURVE",
"410 744 OFFCURVE",
"359 744 CURVE SMOOTH",
"229 744 OFFCURVE",
"154 673 OFFCURVE",
"154 560 CURVE SMOOTH",
"154 522 LINE",
"44 522 LINE"
);
},
{
closed = 1;
nodes = (
"352 446 LINE",
"462 446 LINE",
"462 0 LINE",
"550 0 LINE",
"550 446 LINE",
"704 446 LINE",
"704 522 LINE",
"550 522 LINE",
"550 592 LINE SMOOTH",
"550 646 OFFCURVE",
"585 689 OFFCURVE",
"664 689 CURVE SMOOTH",
"717 689 OFFCURVE",
"750 677 OFFCURVE",
"810 646 CURVE",
"814 646 LINE",
"814 729 LINE",
"747 757 OFFCURVE",
"708 766 OFFCURVE",
"646 766 CURVE SMOOTH",
"530 766 OFFCURVE",
"462 695 OFFCURVE",
"462 582 CURVE SMOOTH",
"462 522 LINE",
"352 522 LINE"
);
},
{
closed = 1;
nodes = (
"660 522 LINE",
"660 446 LINE",
"770 446 LINE",
"770 -60 LINE SMOOTH",
"770 -124 OFFCURVE",
"746 -167 OFFCURVE",
"687 -167 CURVE SMOOTH",
"658 -167 OFFCURVE",
"642 -164 OFFCURVE",
"616 -151 CURVE",
"616 -227 LINE",
"645 -243 OFFCURVE",
"666 -244 OFFCURVE",
"699 -244 CURVE SMOOTH",
"807 -244 OFFCURVE",
"858 -173 OFFCURVE",
"858 -60 CURVE SMOOTH",
"858 522 LINE"
);
}
);
width = 968;
},
{
layerId = "CD42366C-28E1-4C24-AB95-7D2C522D2B07";
name = Bold;
paths = (
{
closed = 1;
nodes = (
"22 424 LINE",
"132 424 LINE",
"132 0 LINE",
"264 0 LINE",
"264 424 LINE",
"374 424 LINE",
"374 522 LINE",
"264 522 LINE",
"264 543 LINE SMOOTH",
"264 597 OFFCURVE",
"297 643 OFFCURVE",
"369 643 CURVE SMOOTH",
"419 643 OFFCURVE",
"458 628 OFFCURVE",
"506 580 CURVE",
"506 705 LINE",
"451 733 OFFCURVE",
"410 744 OFFCURVE",
"359 744 CURVE SMOOTH",
"215 744 OFFCURVE",
"132 673 OFFCURVE",
"132 560 CURVE SMOOTH",
"132 522 LINE",
"22 522 LINE"
);
},
{
closed = 1;
nodes = (
"352 424 LINE",
"440 424 LINE",
"440 0 LINE",
"572 0 LINE",
"572 424 LINE",
"682 424 LINE",
"704 522 LINE",
"572 522 LINE",
"572 559 LINE SMOOTH",
"572 613 OFFCURVE",
"601 656 OFFCURVE",
"678 656 CURVE SMOOTH",
"724 656 OFFCURVE",
"759 641 OFFCURVE",
"810 613 CURVE",
"814 613 LINE",
"814 729 LINE",
"757 753 OFFCURVE",
"711 766 OFFCURVE",
"654 766 CURVE SMOOTH",
"512 766 OFFCURVE",
"440 687 OFFCURVE",
"440 560 CURVE SMOOTH",
"440 522 LINE",
"352 522 LINE"
);
},
{
closed = 1;
nodes = (
"638 522 LINE",
"638 424 LINE",
"748 424 LINE",
"748 -60 LINE SMOOTH",
"748 -115 OFFCURVE",
"729 -134 OFFCURVE",
"687 -134 CURVE SMOOTH",
"653 -134 OFFCURVE",
"625 -127 OFFCURVE",
"594 -107 CURVE",
"594 -216 LINE",
"622 -236 OFFCURVE",
"650 -244 OFFCURVE",
"699 -244 CURVE SMOOTH",
"815 -244 OFFCURVE",
"880 -186 OFFCURVE",
"880 -60 CURVE SMOOTH",
"880 522 LINE"
);
}
);
width = 968;
}
);
},
{
color = 1;
glyphname = f_f_k;
lastChange = "2015-06-10 20:25:49 +0000";
layers = (
{
layerId = UUID0;
name = Regular;
paths = (
{
closed = 1;
nodes = (
"44 446 LINE",
"154 446 LINE",
"154 0 LINE",
"242 0 LINE",
"242 446 LINE",
"396 446 LINE",
"396 522 LINE",
"242 522 LINE",
"242 570 LINE SMOOTH",
"242 624 OFFCURVE",
"282 670 OFFCURVE",
"369 670 CURVE SMOOTH",
"419 670 OFFCURVE",
"458 655 OFFCURVE",
"506 607 CURVE",
"506 705 LINE",
"451 733 OFFCURVE",
"410 744 OFFCURVE",
"359 744 CURVE SMOOTH",
"229 744 OFFCURVE",
"154 673 OFFCURVE",
"154 560 CURVE SMOOTH",
"154 522 LINE",
"44 522 LINE"
);
},
{
closed = 1;
nodes = (
"352 446 LINE",
"462 446 LINE",
"462 0 LINE",
"550 0 LINE",
"550 446 LINE",
"682 446 LINE",
"682 522 LINE",
"550 522 LINE",
"550 592 LINE SMOOTH",
"550 646 OFFCURVE",
"585 689 OFFCURVE",
"664 689 CURVE SMOOTH",
"717 689 OFFCURVE",
"750 671 OFFCURVE",
"810 624 CURVE",
"814 624 LINE",
"814 716 LINE",
"747 755 OFFCURVE",
"708 766 OFFCURVE",
"646 766 CURVE SMOOTH",
"530 766 OFFCURVE",
"462 695 OFFCURVE",
"462 582 CURVE SMOOTH",
"462 522 LINE",
"352 522 LINE"
);
},
{
closed = 1;
nodes = (
"858 0 LINE",
"858 151 LINE",
"952 250 LINE",
"1120 0 LINE",
"1232 0 LINE",
"1011 313 LINE",
"1210 522 LINE",
"1104 522 LINE",
"858 257 LINE",
"858 754 LINE",
"853 754 LINE",
"814 716 LINE",
"770 716 LINE",
"770 0 LINE"
);
}
);
width = 1254;
},
{
layerId = "CD42366C-28E1-4C24-AB95-7D2C522D2B07";
name = Bold;
paths = (
{
closed = 1;
nodes = (
"22 424 LINE",
"132 424 LINE",
"132 0 LINE",
"264 0 LINE",
"264 424 LINE",
"374 424 LINE",
"374 522 LINE",
"264 522 LINE",
"264 543 LINE SMOOTH",
"264 597 OFFCURVE",
"297 643 OFFCURVE",
"369 643 CURVE SMOOTH",
"419 643 OFFCURVE",
"458 628 OFFCURVE",
"506 580 CURVE",
"506 705 LINE",
"451 733 OFFCURVE",
"410 744 OFFCURVE",
"359 744 CURVE SMOOTH",
"215 744 OFFCURVE",
"132 673 OFFCURVE",
"132 560 CURVE SMOOTH",
"132 522 LINE",
"22 522 LINE"
);
},
{
closed = 1;
nodes = (
"352 424 LINE",
"440 424 LINE",
"440 0 LINE",
"572 0 LINE",
"572 424 LINE",
"682 424 LINE",
"682 522 LINE",
"572 522 LINE",
"572 559 LINE SMOOTH",
"572 613 OFFCURVE",
"600 656 OFFCURVE",
"664 656 CURVE SMOOTH",
"717 656 OFFCURVE",
"750 638 OFFCURVE",
"810 591 CURVE",
"814 591 LINE",
"814 716 LINE",
"747 755 OFFCURVE",
"708 766 OFFCURVE",
"646 766 CURVE SMOOTH",
"516 766 OFFCURVE",
"440 695 OFFCURVE",
"440 582 CURVE SMOOTH",
"440 522 LINE",
"352 522 LINE"
);
},
{
closed = 1;
nodes = (
"880 0 LINE",
"880 754 LINE",
"876 754 LINE",
"814 716 LINE",
"748 707 LINE",
"748 0 LINE"
);
},
{
closed = 1;
nodes = (
"841 110 LINE",
"1232 522 LINE",
"1082 522 LINE",
"786 204 LINE"
);
},
{
closed = 1;
nodes = (
"1254 0 LINE",
"1030 318 LINE",
"915 274 LINE",
"1098 0 LINE"
);
}
);
width = 1254;
}
);
},
{
color = 1;
glyphname = f_f_l;
lastChange = "2015-06-10 20:25:49 +0000";
layers = (
{
layerId = UUID0;
name = Regular;
paths = (
{
closed = 1;
nodes = (
"44 446 LINE",
"154 446 LINE",
"154 0 LINE",
"242 0 LINE",
"242 446 LINE",
"396 446 LINE",
"396 522 LINE",
"242 522 LINE",
"242 570 LINE SMOOTH",
"242 624 OFFCURVE",
"282 670 OFFCURVE",
"369 670 CURVE SMOOTH",
"419 670 OFFCURVE",
"458 655 OFFCURVE",
"506 607 CURVE",
"506 705 LINE",
"451 733 OFFCURVE",
"410 744 OFFCURVE",
"359 744 CURVE SMOOTH",
"229 744 OFFCURVE",
"154 673 OFFCURVE",
"154 560 CURVE SMOOTH",
"154 522 LINE",
"44 522 LINE"
);
},
{
closed = 1;
nodes = (
"352 446 LINE",
"462 446 LINE",
"462 0 LINE",
"550 0 LINE",
"550 446 LINE",
"682 446 LINE",
"682 522 LINE",
"550 522 LINE",
"550 592 LINE SMOOTH",
"550 646 OFFCURVE",
"585 689 OFFCURVE",
"664 689 CURVE SMOOTH",
"717 689 OFFCURVE",
"750 671 OFFCURVE",
"810 624 CURVE",
"814 624 LINE",
"814 716 LINE",
"747 755 OFFCURVE",
"708 766 OFFCURVE",
"646 766 CURVE SMOOTH",
"530 766 OFFCURVE",
"462 695 OFFCURVE",
"462 582 CURVE SMOOTH",
"462 522 LINE",
"352 522 LINE"
);
},
{
closed = 1;
nodes = (
"770 0 LINE",
"858 0 LINE",
"858 754 LINE",
"854 754 LINE",
"814 716 LINE",
"770 716 LINE"
);
}
);
width = 968;
},
{
layerId = "CD42366C-28E1-4C24-AB95-7D2C522D2B07";
name = Bold;
paths = (
{
closed = 1;
nodes = (
"22 424 LINE",
"132 424 LINE",
"132 0 LINE",
"264 0 LINE",
"264 424 LINE",
"374 424 LINE",
"374 522 LINE",
"264 522 LINE",
"264 543 LINE SMOOTH",
"264 597 OFFCURVE",
"297 643 OFFCURVE",
"369 643 CURVE SMOOTH",
"419 643 OFFCURVE",
"458 628 OFFCURVE",
"506 580 CURVE",
"506 705 LINE",
"451 733 OFFCURVE",
"410 744 OFFCURVE",
"359 744 CURVE SMOOTH",
"215 744 OFFCURVE",
"132 673 OFFCURVE",
"132 560 CURVE SMOOTH",
"132 522 LINE",
"22 522 LINE"
);
},
{
closed = 1;
nodes = (
"352 424 LINE",
"440 424 LINE",
"440 0 LINE",
"572 0 LINE",
"572 424 LINE",
"682 424 LINE",
"682 522 LINE",
"572 522 LINE",
"572 559 LINE SMOOTH",
"572 613 OFFCURVE",
"600 656 OFFCURVE",
"664 656 CURVE SMOOTH",
"717 656 OFFCURVE",
"750 638 OFFCURVE",
"810 591 CURVE",
"814 591 LINE",
"814 716 LINE",
"747 755 OFFCURVE",
"708 766 OFFCURVE",
"646 766 CURVE SMOOTH",
"516 766 OFFCURVE",
"440 695 OFFCURVE",
"440 582 CURVE SMOOTH",
"440 522 LINE",
"352 522 LINE"
);
},
{
closed = 1;
nodes = (
"748 0 LINE",
"880 0 LINE",
"880 754 LINE",
"876 754 LINE",
"814 716 LINE",
"748 716 LINE"
);
}
);
width = 968;
}
);
unicode = FB04;
},
{
color = 1;
glyphname = f_f_t;
lastChange = "2015-06-10 20:25:49 +0000";
layers = (
{
layerId = UUID0;
name = Regular;
paths = (
{
closed = 1;
nodes = (
"44 446 LINE",
"154 446 LINE",
"154 0 LINE",
"242 0 LINE",
"242 446 LINE",
"396 446 LINE",
"396 522 LINE",
"242 522 LINE",
"242 570 LINE SMOOTH",
"242 624 OFFCURVE",
"282 670 OFFCURVE",
"369 670 CURVE SMOOTH",
"419 670 OFFCURVE",
"458 655 OFFCURVE",
"506 607 CURVE",
"506 705 LINE",
"451 733 OFFCURVE",
"410 744 OFFCURVE",
"359 744 CURVE SMOOTH",
"229 744 OFFCURVE",
"154 673 OFFCURVE",
"154 560 CURVE SMOOTH",
"154 522 LINE",
"44 522 LINE"
);
},
{
closed = 1;
nodes = (
"770 637 LINE",
"770 522 LINE",
"660 522 LINE",
"660 446 LINE",
"770 446 LINE",
"770 138 LINE SMOOTH",
"770 48 OFFCURVE",
"820 -12 OFFCURVE",
"907 -12 CURVE SMOOTH",
"947 -12 OFFCURVE",
"975 -10 OFFCURVE",
"1012 6 CURVE",
"1012 84 LINE",
"981 71 OFFCURVE",
"958 65 OFFCURVE",
"923 65 CURVE SMOOTH",
"879 65 OFFCURVE",
"858 100 OFFCURVE",
"858 147 CURVE SMOOTH",
"858 446 LINE",
"1012 446 LINE",
"1012 522 LINE",
"858 522 LINE",
"858 683 LINE"
);
},
{
closed = 1;
nodes = (
"352 446 LINE",
"462 446 LINE",
"462 0 LINE",
"550 0 LINE",
"550 446 LINE",
"704 446 LINE",
"704 522 LINE",
"550 522 LINE",
"550 592 LINE SMOOTH",
"550 646 OFFCURVE",
"574 689 OFFCURVE",
"643 689 CURVE SMOOTH",
"663 689 OFFCURVE",
"677 685 OFFCURVE",
"704 673 CURVE",
"704 749 LINE",
"674 761 OFFCURVE",
"654 766 OFFCURVE",
"624 766 CURVE SMOOTH",
"513 766 OFFCURVE",
"462 695 OFFCURVE",
"462 582 CURVE SMOOTH",
"462 522 LINE",
"352 522 LINE"
);
}
);
width = 1056;
},
{
layerId = "CD42366C-28E1-4C24-AB95-7D2C522D2B07";
name = Bold;
paths = (
{
closed = 1;
nodes = (
"22 424 LINE",
"132 424 LINE",
"132 0 LINE",
"264 0 LINE",
"264 424 LINE",
"374 424 LINE",
"374 522 LINE",
"264 522 LINE",
"264 543 LINE SMOOTH",
"264 597 OFFCURVE",
"297 643 OFFCURVE",
"369 643 CURVE SMOOTH",
"419 643 OFFCURVE",
"458 628 OFFCURVE",
"506 580 CURVE",
"506 705 LINE",
"451 733 OFFCURVE",
"410 744 OFFCURVE",
"359 744 CURVE SMOOTH",
"215 744 OFFCURVE",
"132 673 OFFCURVE",
"132 560 CURVE SMOOTH",
"132 522 LINE",
"22 522 LINE"
);
},
{
closed = 1;
nodes = (
"330 424 LINE",
"440 424 LINE",
"440 0 LINE",
"572 0 LINE",
"572 424 LINE",
"704 424 LINE",
"704 522 LINE",
"572 522 LINE",
"572 598 LINE SMOOTH",
"572 634 OFFCURVE",
"590 662 OFFCURVE",
"643 662 CURVE SMOOTH",
"664 662 OFFCURVE",
"678 658 OFFCURVE",
"704 646 CURVE",
"704 749 LINE",
"674 761 OFFCURVE",
"654 766 OFFCURVE",
"624 766 CURVE SMOOTH",
"502 766 OFFCURVE",
"446 695 OFFCURVE",
"446 582 CURVE SMOOTH",
"446 522 LINE",
"330 522 LINE"
);
},
{
closed = 1;
nodes = (
"748 638 LINE",
"748 522 LINE",
"638 522 LINE",
"638 424 LINE",
"748 424 LINE",
"748 172 LINE SMOOTH",
"748 48 OFFCURVE",
"803 -12 OFFCURVE",
"915 -12 CURVE SMOOTH",
"958 -12 OFFCURVE",
"1009 -4 OFFCURVE",
"1034 6 CURVE",
"1034 115 LINE",
"1012 106 OFFCURVE",
"971 98 OFFCURVE",
"935 98 CURVE SMOOTH",
"899 98 OFFCURVE",
"880 122 OFFCURVE",
"880 172 CURVE SMOOTH",
"880 424 LINE",
"1034 424 LINE",
"1034 522 LINE",
"880 522 LINE",
"880 707 LINE"
);
}
);
width = 1056;
}
);
},
{
color = 1;
glyphname = f_h;
lastChange = "2015-06-10 20:25:49 +0000";
layers = (
{
layerId = UUID0;
name = Regular;
paths = (
{
closed = 1;
nodes = (
"44 446 LINE",
"154 446 LINE",
"154 0 LINE",
"242 0 LINE",
"242 446 LINE",
"374 446 LINE",
"374 522 LINE",
"242 522 LINE",
"242 592 LINE SMOOTH",
"242 646 OFFCURVE",
"277 689 OFFCURVE",
"356 689 CURVE SMOOTH",
"409 689 OFFCURVE",
"442 671 OFFCURVE",
"502 624 CURVE",
"506 624 LINE",
"506 716 LINE",
"439 755 OFFCURVE",
"400 766 OFFCURVE",
"338 766 CURVE SMOOTH",
"222 766 OFFCURVE",
"154 695 OFFCURVE",
"154 582 CURVE SMOOTH",
"154 522 LINE",
"44 522 LINE"
);
},
{
closed = 1;
nodes = (
"462 0 LINE",
"550 0 LINE",
"550 387 LINE",
"598 429 OFFCURVE",
"637 455 OFFCURVE",
"707 455 CURVE SMOOTH",
"766 455 OFFCURVE",
"792 414 OFFCURVE",
"792 350 CURVE SMOOTH",
"792 0 LINE",
"880 0 LINE",
"880 362 LINE SMOOTH",
"880 468 OFFCURVE",
"831 534 OFFCURVE",
"730 534 CURVE SMOOTH",
"650 534 OFFCURVE",
"604 508 OFFCURVE",
"550 457 CURVE",
"550 754 LINE",
"546 754 LINE",
"506 716 LINE",
"462 716 LINE"
);
}
);
width = 990;
},
{
layerId = "CD42366C-28E1-4C24-AB95-7D2C522D2B07";
name = Bold;
paths = (
{
closed = 1;
nodes = (
"22 424 LINE",
"132 424 LINE",
"132 0 LINE",
"264 0 LINE",
"264 424 LINE",
"374 424 LINE",
"374 522 LINE",
"264 522 LINE",
"264 559 LINE SMOOTH",
"264 613 OFFCURVE",
"292 656 OFFCURVE",
"356 656 CURVE SMOOTH",
"409 656 OFFCURVE",
"442 638 OFFCURVE",
"502 591 CURVE",
"506 591 LINE",
"506 716 LINE",
"439 755 OFFCURVE",
"400 766 OFFCURVE",
"338 766 CURVE SMOOTH",
"208 766 OFFCURVE",
"132 695 OFFCURVE",
"132 582 CURVE SMOOTH",
"132 522 LINE",
"22 522 LINE"
);
},
{
closed = 1;
nodes = (
"770 0 LINE",
"902 0 LINE",
"902 365 LINE SMOOTH",
"902 466 OFFCURVE",
"832 534 OFFCURVE",
"726 534 CURVE SMOOTH",
"663 534 OFFCURVE",
"612 509 OFFCURVE",
"550 447 CURVE",
"550 334 LINE",
"596 389 OFFCURVE",
"641 417 OFFCURVE",
"682 417 CURVE SMOOTH",
"745 417 OFFCURVE",
"770 381 OFFCURVE",
"770 290 CURVE SMOOTH"
);
},
{
closed = 1;
nodes = (
"440 0 LINE",
"572 0 LINE",
"572 754 LINE",
"568 754 LINE",
"506 716 LINE",
"440 702 LINE"
);
}
);
width = 990;
}
);
},
{
color = 1;
glyphname = f_i;
lastChange = "2015-06-10 20:25:49 +0000";
layers = (
{
layerId = UUID0;
name = Regular;
paths = (
{
closed = 1;
nodes = (
"44 446 LINE",
"154 446 LINE",
"154 0 LINE",
"242 0 LINE",
"242 446 LINE",
"396 446 LINE",
"396 522 LINE",
"242 522 LINE",
"242 592 LINE SMOOTH",
"242 646 OFFCURVE",
"277 689 OFFCURVE",
"356 689 CURVE SMOOTH",
"409 689 OFFCURVE",
"442 677 OFFCURVE",
"502 646 CURVE",
"506 646 LINE",
"506 729 LINE",
"439 757 OFFCURVE",
"400 766 OFFCURVE",
"338 766 CURVE SMOOTH",
"222 766 OFFCURVE",
"154 695 OFFCURVE",
"154 582 CURVE SMOOTH",
"154 522 LINE",
"44 522 LINE"
);
},
{
closed = 1;
nodes = (
"462 0 LINE",
"550 0 LINE",
"550 522 LINE",
"352 522 LINE",
"352 446 LINE",
"462 446 LINE"
);
}
);
width = 660;
},
{
layerId = "CD42366C-28E1-4C24-AB95-7D2C522D2B07";
name = Bold;
paths = (
{
closed = 1;
nodes = (
"22 424 LINE",
"132 424 LINE",
"132 0 LINE",
"264 0 LINE",
"264 424 LINE",
"374 424 LINE",
"396 522 LINE",
"264 522 LINE",
"264 559 LINE SMOOTH",
"264 613 OFFCURVE",
"293 656 OFFCURVE",
"370 656 CURVE SMOOTH",
"416 656 OFFCURVE",
"451 641 OFFCURVE",
"502 613 CURVE",
"506 613 LINE",
"506 729 LINE",
"449 753 OFFCURVE",
"403 766 OFFCURVE",
"346 766 CURVE SMOOTH",
"204 766 OFFCURVE",
"132 687 OFFCURVE",
"132 560 CURVE SMOOTH",
"132 522 LINE",
"22 522 LINE"
);
},
{
closed = 1;
nodes = (
"440 0 LINE",
"572 0 LINE",
"572 522 LINE",
"352 522 LINE",
"330 424 LINE",
"440 424 LINE"
);
}
);
width = 660;
}
);
unicode = FB01;
},
{
color = 1;
glyphname = f_j;
lastChange = "2015-06-10 20:25:49 +0000";
layers = (
{
layerId = UUID0;
name = Regular;
paths = (
{
closed = 1;
nodes = (
"44 446 LINE",
"154 446 LINE",
"154 0 LINE",
"242 0 LINE",
"242 446 LINE",
"396 446 LINE",
"396 522 LINE",
"242 522 LINE",
"242 592 LINE SMOOTH",
"242 646 OFFCURVE",
"277 689 OFFCURVE",
"356 689 CURVE SMOOTH",
"409 689 OFFCURVE",
"442 677 OFFCURVE",
"502 646 CURVE",
"506 646 LINE",
"506 729 LINE",
"439 757 OFFCURVE",
"400 766 OFFCURVE",
"338 766 CURVE SMOOTH",
"222 766 OFFCURVE",
"154 695 OFFCURVE",
"154 582 CURVE SMOOTH",
"154 522 LINE",
"44 522 LINE"
);
},
{
closed = 1;
nodes = (
"352 522 LINE",
"352 446 LINE",
"462 446 LINE",
"462 -60 LINE SMOOTH",
"462 -124 OFFCURVE",
"438 -167 OFFCURVE",
"379 -167 CURVE SMOOTH",
"350 -167 OFFCURVE",
"334 -164 OFFCURVE",
"308 -151 CURVE",
"308 -227 LINE",
"337 -243 OFFCURVE",
"358 -244 OFFCURVE",
"391 -244 CURVE SMOOTH",
"499 -244 OFFCURVE",
"550 -173 OFFCURVE",
"550 -60 CURVE SMOOTH",
"550 522 LINE"
);
}
);
width = 660;
},
{
layerId = "CD42366C-28E1-4C24-AB95-7D2C522D2B07";
name = Bold;
paths = (
{
closed = 1;
nodes = (
"22 424 LINE",
"132 424 LINE",
"132 0 LINE",
"264 0 LINE",
"264 424 LINE",
"374 424 LINE",
"396 522 LINE",
"264 522 LINE",
"264 559 LINE SMOOTH",
"264 613 OFFCURVE",
"293 656 OFFCURVE",
"370 656 CURVE SMOOTH",
"416 656 OFFCURVE",
"451 641 OFFCURVE",
"502 613 CURVE",
"506 613 LINE",
"506 729 LINE",
"449 753 OFFCURVE",
"403 766 OFFCURVE",
"346 766 CURVE SMOOTH",
"204 766 OFFCURVE",
"132 687 OFFCURVE",
"132 560 CURVE SMOOTH",
"132 522 LINE",
"22 522 LINE"
);
},
{
closed = 1;
nodes = (
"330 522 LINE",
"330 424 LINE",
"440 424 LINE",
"440 -60 LINE SMOOTH",
"440 -115 OFFCURVE",
"421 -134 OFFCURVE",
"379 -134 CURVE SMOOTH",
"345 -134 OFFCURVE",
"317 -127 OFFCURVE",
"286 -107 CURVE",
"286 -216 LINE",
"314 -236 OFFCURVE",
"342 -244 OFFCURVE",
"391 -244 CURVE SMOOTH",
"507 -244 OFFCURVE",
"572 -186 OFFCURVE",
"572 -60 CURVE SMOOTH",
"572 522 LINE"
);
}
);
width = 660;
}
);
},
{
color = 1;
glyphname = f_k;
lastChange = "2015-06-10 20:25:49 +0000";
layers = (
{
layerId = UUID0;
name = Regular;
paths = (
{
closed = 1;
nodes = (
"44 446 LINE",
"154 446 LINE",
"154 0 LINE",
"242 0 LINE",
"242 446 LINE",
"374 446 LINE",
"374 522 LINE",
"242 522 LINE",
"242 592 LINE SMOOTH",
"242 646 OFFCURVE",
"277 689 OFFCURVE",
"356 689 CURVE SMOOTH",
"409 689 OFFCURVE",
"442 671 OFFCURVE",
"502 624 CURVE",
"506 624 LINE",
"506 716 LINE",
"439 755 OFFCURVE",
"400 766 OFFCURVE",
"338 766 CURVE SMOOTH",
"222 766 OFFCURVE",
"154 695 OFFCURVE",
"154 582 CURVE SMOOTH",
"154 522 LINE",
"44 522 LINE"
);
},
{
closed = 1;
nodes = (
"550 0 LINE",
"550 151 LINE",
"644 250 LINE",
"812 0 LINE",
"924 0 LINE",
"703 313 LINE",
"902 522 LINE",
"796 522 LINE",
"550 257 LINE",
"550 754 LINE",
"545 754 LINE",
"506 716 LINE",
"462 716 LINE",
"462 0 LINE"
);
}
);
width = 946;
},
{
layerId = "CD42366C-28E1-4C24-AB95-7D2C522D2B07";
name = Bold;
paths = (
{
closed = 1;
nodes = (
"22 424 LINE",
"132 424 LINE",
"132 0 LINE",
"264 0 LINE",
"264 424 LINE",
"374 424 LINE",
"374 522 LINE",
"264 522 LINE",
"264 559 LINE SMOOTH",
"264 613 OFFCURVE",
"292 656 OFFCURVE",
"356 656 CURVE SMOOTH",
"409 656 OFFCURVE",
"442 638 OFFCURVE",
"502 591 CURVE",
"506 591 LINE",
"506 716 LINE",
"439 755 OFFCURVE",
"400 766 OFFCURVE",
"338 766 CURVE SMOOTH",
"208 766 OFFCURVE",
"132 695 OFFCURVE",
"132 582 CURVE SMOOTH",
"132 522 LINE",
"22 522 LINE"
);
},
{
closed = 1;
nodes = (
"572 0 LINE",
"572 754 LINE",
"568 754 LINE",
"506 716 LINE",
"440 707 LINE",
"440 0 LINE"
);
},
{
closed = 1;
nodes = (
"533 110 LINE",
"924 522 LINE",
"774 522 LINE",
"478 204 LINE"
);
},
{
closed = 1;
nodes = (
"946 0 LINE",
"722 318 LINE",
"607 274 LINE",
"790 0 LINE"
);
}
);
width = 946;
}
);
},
{
color = 1;
glyphname = f_l;
lastChange = "2015-06-10 20:25:49 +0000";
layers = (
{
layerId = UUID0;
name = Regular;
paths = (
{
closed = 1;
nodes = (
"44 446 LINE",
"154 446 LINE",
"154 0 LINE",
"242 0 LINE",
"242 446 LINE",
"374 446 LINE",
"374 522 LINE",
"242 522 LINE",
"242 592 LINE SMOOTH",
"242 646 OFFCURVE",
"277 689 OFFCURVE",
"356 689 CURVE SMOOTH",
"409 689 OFFCURVE",
"442 671 OFFCURVE",
"502 624 CURVE",
"506 624 LINE",
"506 716 LINE",
"439 755 OFFCURVE",
"400 766 OFFCURVE",
"338 766 CURVE SMOOTH",
"222 766 OFFCURVE",
"154 695 OFFCURVE",
"154 582 CURVE SMOOTH",
"154 522 LINE",
"44 522 LINE"
);
},
{
closed = 1;
nodes = (
"462 0 LINE",
"550 0 LINE",
"550 754 LINE",
"546 754 LINE",
"506 716 LINE",
"462 716 LINE"
);
}
);
width = 660;
},
{
layerId = "CD42366C-28E1-4C24-AB95-7D2C522D2B07";
name = Bold;
paths = (
{
closed = 1;
nodes = (
"22 424 LINE",
"132 424 LINE",
"132 0 LINE",
"264 0 LINE",
"264 424 LINE",
"374 424 LINE",
"374 522 LINE",
"264 522 LINE",
"264 559 LINE SMOOTH",
"264 613 OFFCURVE",
"292 656 OFFCURVE",
"356 656 CURVE SMOOTH",
"409 656 OFFCURVE",
"442 638 OFFCURVE",
"502 591 CURVE",
"506 591 LINE",
"506 716 LINE",
"439 755 OFFCURVE",
"400 766 OFFCURVE",
"338 766 CURVE SMOOTH",
"208 766 OFFCURVE",
"132 695 OFFCURVE",
"132 582 CURVE SMOOTH",
"132 522 LINE",
"22 522 LINE"
);
},
{
closed = 1;
nodes = (
"440 0 LINE",
"572 0 LINE",
"572 754 LINE",
"568 754 LINE",
"506 716 LINE",
"440 716 LINE"
);
}
);
width = 660;
}
);
unicode = FB02;
},
{
color = 1;
glyphname = f_t;
lastChange = "2015-06-10 20:25:49 +0000";
layers = (
{
layerId = UUID0;
name = Regular;
paths = (
{
closed = 1;
nodes = (
"462 637 LINE",
"462 522 LINE",
"352 522 LINE",
"352 446 LINE",
"462 446 LINE",
"462 138 LINE SMOOTH",
"462 48 OFFCURVE",
"512 -12 OFFCURVE",
"599 -12 CURVE SMOOTH",
"639 -12 OFFCURVE",
"667 -10 OFFCURVE",
"704 6 CURVE",
"704 84 LINE",
"673 71 OFFCURVE",
"649 65 OFFCURVE",
"615 65 CURVE SMOOTH",
"571 65 OFFCURVE",
"550 100 OFFCURVE",
"550 147 CURVE SMOOTH",
"550 446 LINE",
"704 446 LINE",
"704 522 LINE",
"550 522 LINE",
"550 683 LINE"
);
},
{
closed = 1;
nodes = (
"44 446 LINE",
"154 446 LINE",
"154 0 LINE",
"242 0 LINE",
"242 446 LINE",
"396 446 LINE",
"396 522 LINE",
"242 522 LINE",
"242 592 LINE SMOOTH",
"242 646 OFFCURVE",
"266 689 OFFCURVE",
"335 689 CURVE SMOOTH",
"356 689 OFFCURVE",
"370 685 OFFCURVE",
"396 673 CURVE",
"396 749 LINE",
"366 761 OFFCURVE",
"346 766 OFFCURVE",
"316 766 CURVE SMOOTH",
"205 766 OFFCURVE",
"154 695 OFFCURVE",
"154 582 CURVE SMOOTH",
"154 522 LINE",
"44 522 LINE"
);
}
);
width = 748;
},
{
layerId = "CD42366C-28E1-4C24-AB95-7D2C522D2B07";
name = Bold;
paths = (
{
closed = 1;
nodes = (
"22 424 LINE",
"132 424 LINE",
"132 0 LINE",
"264 0 LINE",
"264 424 LINE",
"396 424 LINE",
"396 522 LINE",
"264 522 LINE",
"264 598 LINE SMOOTH",
"264 634 OFFCURVE",
"282 662 OFFCURVE",
"335 662 CURVE SMOOTH",
"356 662 OFFCURVE",
"370 658 OFFCURVE",
"396 646 CURVE",
"396 749 LINE",
"366 761 OFFCURVE",
"346 766 OFFCURVE",
"316 766 CURVE SMOOTH",
"194 766 OFFCURVE",
"138 695 OFFCURVE",
"138 582 CURVE SMOOTH",
"138 522 LINE",
"22 522 LINE"
);
},
{
closed = 1;
nodes = (
"440 638 LINE",
"440 522 LINE",
"330 522 LINE",
"330 424 LINE",
"440 424 LINE",
"440 172 LINE SMOOTH",
"440 48 OFFCURVE",
"495 -12 OFFCURVE",
"607 -12 CURVE SMOOTH",
"650 -12 OFFCURVE",
"701 -4 OFFCURVE",
"726 6 CURVE",
"726 115 LINE",
"704 106 OFFCURVE",
"663 98 OFFCURVE",
"627 98 CURVE SMOOTH",
"591 98 OFFCURVE",
"572 122 OFFCURVE",
"572 172 CURVE SMOOTH",
"572 424 LINE",
"726 424 LINE",
"726 522 LINE",
"572 522 LINE",
"572 707 LINE"
);
}
);
width = 748;
}
);
},
{
color = 1;
glyphname = ordfeminine;
lastChange = "2015-06-10 20:22:17 +0000";
layers = (
{
layerId = UUID0;
name = Regular;
paths = (
{
closed = 1;
nodes = (
"184 420 OFFCURVE",
"219 444 OFFCURVE",
"248 483 CURVE",
"248 536 LINE",
"221 498 OFFCURVE",
"188 475 OFFCURVE",
"151 475 CURVE SMOOTH",
"124 475 OFFCURVE",
"111 487 OFFCURVE",
"111 506 CURVE SMOOTH",
"111 535 OFFCURVE",
"139 548 OFFCURVE",
"171 548 CURVE SMOOTH",
"248 548 LINE",
"248 590 LINE",
"221 593 OFFCURVE",
"197 594 OFFCURVE",
"181 594 CURVE SMOOTH",
"101 594 OFFCURVE",
"44 573 OFFCURVE",
"44 507 CURVE SMOOTH",
"44 453 OFFCURVE",
"81 420 OFFCURVE",
"137 420 CURVE SMOOTH"
);
},
{
closed = 1;
nodes = (
"235 427 LINE",
"297 427 LINE",
"286 488 LINE",
"286 609 LINE SMOOTH",
"286 669 OFFCURVE",
"243 708 OFFCURVE",
"169 708 CURVE SMOOTH",
"133 708 OFFCURVE",
"97 699 OFFCURVE",
"67 678 CURVE",
"67 616 LINE",
"99 638 OFFCURVE",
"130 650 OFFCURVE",
"162 650 CURVE SMOOTH",
"203 650 OFFCURVE",
"223 631 OFFCURVE",
"223 603 CURVE SMOOTH",
"223 488 LINE"
);
}
);
width = 330;
},
{
layerId = "CD42366C-28E1-4C24-AB95-7D2C522D2B07";
name = Bold;
paths = (
{
closed = 1;
nodes = (
"195 420 OFFCURVE",
"230 444 OFFCURVE",
"259 483 CURVE",
"259 536 LINE",
"232 505 OFFCURVE",
"199 486 OFFCURVE",
"162 486 CURVE SMOOTH",
"142 486 OFFCURVE",
"133 494 OFFCURVE",
"133 506 CURVE SMOOTH",
"133 527 OFFCURVE",
"156 537 OFFCURVE",
"182 537 CURVE SMOOTH",
"259 537 LINE",
"259 590 LINE",
"232 593 OFFCURVE",
"208 594 OFFCURVE",
"192 594 CURVE SMOOTH",
"106 594 OFFCURVE",
"44 573 OFFCURVE",
"44 507 CURVE SMOOTH",
"44 453 OFFCURVE",
"85 420 OFFCURVE",
"148 420 CURVE SMOOTH"
);
},
{
closed = 1;
nodes = (
"246 427 LINE",
"319 427 LINE",
"308 488 LINE",
"308 609 LINE SMOOTH",
"308 669 OFFCURVE",
"261 708 OFFCURVE",
"180 708 CURVE SMOOTH",
"140 708 OFFCURVE",
"100 699 OFFCURVE",
"67 678 CURVE",
"67 605 LINE",
"103 627 OFFCURVE",
"137 639 OFFCURVE",
"173 639 CURVE SMOOTH",
"207 639 OFFCURVE",
"223 624 OFFCURVE",
"223 603 CURVE SMOOTH",
"223 488 LINE"
);
}
);
width = 330;
}
);
unicode = 00AA;
},
{
color = 1;
glyphname = ordmasculine;
lastChange = "2015-06-10 20:22:17 +0000";
layers = (
{
layerId = UUID0;
name = Regular;
paths = (
{
closed = 1;
nodes = (
"262 420 OFFCURVE",
"308 479 OFFCURVE",
"308 564 CURVE SMOOTH",
"308 649 OFFCURVE",
"262 708 OFFCURVE",
"176 708 CURVE SMOOTH",
"90 708 OFFCURVE",
"44 649 OFFCURVE",
"44 564 CURVE SMOOTH",
"44 479 OFFCURVE",
"90 420 OFFCURVE",
"176 420 CURVE SMOOTH"
);
},
{
closed = 1;
nodes = (
"130 477 OFFCURVE",
"111 516 OFFCURVE",
"111 564 CURVE SMOOTH",
"111 611 OFFCURVE",
"130 651 OFFCURVE",
"177 651 CURVE SMOOTH",
"222 651 OFFCURVE",
"241 612 OFFCURVE",
"241 564 CURVE SMOOTH",
"241 515 OFFCURVE",
"222 477 OFFCURVE",
"177 477 CURVE SMOOTH"
);
}
);
width = 352;
},
{
layerId = "CD42366C-28E1-4C24-AB95-7D2C522D2B07";
name = Bold;
paths = (
{
closed = 1;
nodes = (
"269 420 OFFCURVE",
"319 479 OFFCURVE",
"319 564 CURVE SMOOTH",
"319 649 OFFCURVE",
"269 708 OFFCURVE",
"176 708 CURVE SMOOTH",
"83 708 OFFCURVE",
"33 649 OFFCURVE",
"33 564 CURVE SMOOTH",
"33 479 OFFCURVE",
"83 420 OFFCURVE",
"176 420 CURVE SMOOTH"
);
},
{
closed = 1;
nodes = (
"138 488 OFFCURVE",
"122 522 OFFCURVE",
"122 564 CURVE SMOOTH",
"122 605 OFFCURVE",
"138 640 OFFCURVE",
"177 640 CURVE SMOOTH",
"214 640 OFFCURVE",
"230 606 OFFCURVE",
"230 564 CURVE SMOOTH",
"230 521 OFFCURVE",
"214 488 OFFCURVE",
"177 488 CURVE SMOOTH"
);
}
);
width = 352;
}
);
unicode = 00BA;
},
{
glyphname = uni0394;
lastChange = "2015-04-08 16:24:57 +0000";
layers = (
{
layerId = UUID0;
name = Regular;
paths = (
{
closed = 1;
nodes = (
"385 696 LINE",
"292 696 LINE",
"545 0 LINE",
"638 0 LINE"
);
},
{
closed = 1;
nodes = (
"363 696 LINE",
"275 696 LINE",
"22 0 LINE",
"110 0 LINE"
);
},
{
closed = 1;
nodes = (
"577 0 LINE",
"577 75 LINE",
"93 75 LINE",
"93 0 LINE"
);
}
);
width = 660;
},
{
layerId = "CD42366C-28E1-4C24-AB95-7D2C522D2B07";
name = Bold;
paths = (
{
closed = 1;
nodes = (
"407 696 LINE",
"270 696 LINE",
"523 0 LINE",
"660 0 LINE"
);
},
{
closed = 1;
nodes = (
"385 696 LINE",
"253 696 LINE",
"0 0 LINE",
"132 0 LINE"
);
},
{
closed = 1;
nodes = (
"577 0 LINE",
"577 108 LINE",
"93 108 LINE",
"93 0 LINE"
);
}
);
width = 660;
}
);
unicode = 0394;
},
{
color = 1;
glyphname = Delta;
lastChange = "2015-06-10 20:44:10 +0000";
layers = (
{
layerId = UUID0;
name = Regular;
paths = (
{
closed = 1;
nodes = (
"385 696 LINE",
"292 696 LINE",
"545 0 LINE",
"638 0 LINE"
);
},
{
closed = 1;
nodes = (
"363 696 LINE",
"275 696 LINE",
"22 0 LINE",
"110 0 LINE"
);
},
{
closed = 1;
nodes = (
"577 0 LINE",
"577 75 LINE",
"93 75 LINE",
"93 0 LINE"
);
}
);
width = 660;
},
{
layerId = "CD42366C-28E1-4C24-AB95-7D2C522D2B07";
name = Bold;
paths = (
{
closed = 1;
nodes = (
"407 696 LINE",
"270 696 LINE",
"523 0 LINE",
"660 0 LINE"
);
},
{
closed = 1;
nodes = (
"385 696 LINE",
"253 696 LINE",
"0 0 LINE",
"132 0 LINE"
);
},
{
closed = 1;
nodes = (
"577 0 LINE",
"577 108 LINE",
"93 108 LINE",
"93 0 LINE"
);
}
);
width = 660;
}
);
unicode = 2206;
},
{
glyphname = uni03A9;
lastChange = "2015-04-08 16:24:57 +0000";
layers = (
{
layerId = UUID0;
name = Regular;
paths = (
{
closed = 1;
nodes = (
"726 0 LINE",
"726 75 LINE",
"553 75 LINE",
"650 133 OFFCURVE",
"704 236 OFFCURVE",
"704 368 CURVE SMOOTH",
"704 568 OFFCURVE",
"590 708 OFFCURVE",
"385 708 CURVE SMOOTH",
"180 708 OFFCURVE",
"66 568 OFFCURVE",
"66 368 CURVE SMOOTH",
"66 236 OFFCURVE",
"120 133 OFFCURVE",
"217 75 CURVE",
"44 75 LINE",
"44 0 LINE",
"334 0 LINE",
"334 75 LINE",
"215 102 OFFCURVE",
"161 221 OFFCURVE",
"161 361 CURVE SMOOTH",
"161 524 OFFCURVE",
"231 628 OFFCURVE",
"385 628 CURVE SMOOTH",
"539 628 OFFCURVE",
"609 524 OFFCURVE",
"609 361 CURVE SMOOTH",
"609 221 OFFCURVE",
"555 102 OFFCURVE",
"436 75 CURVE",
"436 0 LINE"
);
}
);
width = 770;
},
{
layerId = "CD42366C-28E1-4C24-AB95-7D2C522D2B07";
name = Bold;
paths = (
{
closed = 1;
nodes = (
"748 0 LINE",
"748 108 LINE",
"608 108 LINE",
"684 159 OFFCURVE",
"726 251 OFFCURVE",
"726 368 CURVE SMOOTH",
"726 568 OFFCURVE",
"604 708 OFFCURVE",
"385 708 CURVE SMOOTH",
"166 708 OFFCURVE",
"44 568 OFFCURVE",
"44 368 CURVE SMOOTH",
"44 251 OFFCURVE",
"86 159 OFFCURVE",
"162 108 CURVE",
"22 108 LINE",
"22 0 LINE",
"356 0 LINE",
"356 75 LINE",
"237 101 OFFCURVE",
"183 215 OFFCURVE",
"183 350 CURVE SMOOTH",
"183 500 OFFCURVE",
"246 595 OFFCURVE",
"385 595 CURVE SMOOTH",
"524 595 OFFCURVE",
"587 500 OFFCURVE",
"587 350 CURVE SMOOTH",
"587 215 OFFCURVE",
"533 101 OFFCURVE",
"414 75 CURVE",
"414 0 LINE"
);
}
);
width = 770;
}
);
unicode = 03A9;
},
{
color = 1;
glyphname = Omega;
lastChange = "2015-06-10 20:44:10 +0000";
layers = (
{
layerId = UUID0;
name = Regular;
paths = (
{
closed = 1;
nodes = (
"726 0 LINE",
"726 75 LINE",
"553 75 LINE",
"650 133 OFFCURVE",
"704 236 OFFCURVE",
"704 368 CURVE SMOOTH",
"704 568 OFFCURVE",
"590 708 OFFCURVE",
"385 708 CURVE SMOOTH",
"180 708 OFFCURVE",
"66 568 OFFCURVE",
"66 368 CURVE SMOOTH",
"66 236 OFFCURVE",
"120 133 OFFCURVE",
"217 75 CURVE",
"44 75 LINE",
"44 0 LINE",
"334 0 LINE",
"334 75 LINE",
"215 102 OFFCURVE",
"161 221 OFFCURVE",
"161 361 CURVE SMOOTH",
"161 524 OFFCURVE",
"231 628 OFFCURVE",
"385 628 CURVE SMOOTH",
"539 628 OFFCURVE",
"609 524 OFFCURVE",
"609 361 CURVE SMOOTH",
"609 221 OFFCURVE",
"555 102 OFFCURVE",
"436 75 CURVE",
"436 0 LINE"
);
}
);
width = 770;
},
{
layerId = "CD42366C-28E1-4C24-AB95-7D2C522D2B07";
name = Bold;
paths = (
{
closed = 1;
nodes = (
"748 0 LINE",
"748 108 LINE",
"608 108 LINE",
"684 159 OFFCURVE",
"726 251 OFFCURVE",
"726 368 CURVE SMOOTH",
"726 568 OFFCURVE",
"604 708 OFFCURVE",
"385 708 CURVE SMOOTH",
"166 708 OFFCURVE",
"44 568 OFFCURVE",
"44 368 CURVE SMOOTH",
"44 251 OFFCURVE",
"86 159 OFFCURVE",
"162 108 CURVE",
"22 108 LINE",
"22 0 LINE",
"356 0 LINE",
"356 75 LINE",
"237 101 OFFCURVE",
"183 215 OFFCURVE",
"183 350 CURVE SMOOTH",
"183 500 OFFCURVE",
"246 595 OFFCURVE",
"385 595 CURVE SMOOTH",
"524 595 OFFCURVE",
"587 500 OFFCURVE",
"587 350 CURVE SMOOTH",
"587 215 OFFCURVE",
"533 101 OFFCURVE",
"414 75 CURVE",
"414 0 LINE"
);
}
);
width = 770;
}
);
unicode = 2126;
},
{
color = 1;
glyphname = mu;
lastChange = "2015-06-10 20:44:10 +0000";
layers = (
{
layerId = UUID0;
name = Regular;
paths = (
{
closed = 1;
nodes = (
"176 -174 LINE",
"167 28 LINE",
"192 2 OFFCURVE",
"226 -12 OFFCURVE",
"268 -12 CURVE SMOOTH",
"324 -12 OFFCURVE",
"368 14 OFFCURVE",
"426 72 CURVE",
"440 0 LINE",
"528 0 LINE",
"506 116 LINE",
"506 522 LINE",
"418 522 LINE",
"418 133 LINE",
"375 94 OFFCURVE",
"331 67 OFFCURVE",
"276 67 CURVE SMOOTH",
"206 67 OFFCURVE",
"176 111 OFFCURVE",
"176 172 CURVE SMOOTH",
"176 522 LINE",
"88 522 LINE",
"88 -174 LINE"
);
}
);
width = 616;
},
{
layerId = "CD42366C-28E1-4C24-AB95-7D2C522D2B07";
name = Bold;
paths = (
{
closed = 1;
nodes = (
"198 -174 LINE",
"178 39 LINE",
"198 10 OFFCURVE",
"225 -12 OFFCURVE",
"277 -12 CURVE SMOOTH",
"330 -12 OFFCURVE",
"376 11 OFFCURVE",
"420 68 CURVE",
"440 0 LINE",
"550 0 LINE",
"528 116 LINE",
"528 522 LINE",
"396 522 LINE",
"396 166 LINE",
"367 124 OFFCURVE",
"329 100 OFFCURVE",
"281 100 CURVE SMOOTH",
"221 100 OFFCURVE",
"198 137 OFFCURVE",
"198 205 CURVE SMOOTH",
"198 522 LINE",
"66 522 LINE",
"66 -174 LINE"
);
}
);
width = 616;
}
);
unicode = 00B5;
},
{
glyphname = uni03BC;
lastChange = "2015-04-08 16:24:57 +0000";
layers = (
{
layerId = UUID0;
name = Regular;
paths = (
{
closed = 1;
nodes = (
"176 -174 LINE",
"167 28 LINE",
"192 2 OFFCURVE",
"226 -12 OFFCURVE",
"268 -12 CURVE SMOOTH",
"324 -12 OFFCURVE",
"368 14 OFFCURVE",
"426 72 CURVE",
"440 0 LINE",
"528 0 LINE",
"506 116 LINE",
"506 522 LINE",
"418 522 LINE",
"418 133 LINE",
"375 94 OFFCURVE",
"331 67 OFFCURVE",
"276 67 CURVE SMOOTH",
"206 67 OFFCURVE",
"176 111 OFFCURVE",
"176 172 CURVE SMOOTH",
"176 522 LINE",
"88 522 LINE",
"88 -174 LINE"
);
}
);
width = 616;
},
{
layerId = "CD42366C-28E1-4C24-AB95-7D2C522D2B07";
name = Bold;
paths = (
{
closed = 1;
nodes = (
"198 -174 LINE",
"178 39 LINE",
"198 10 OFFCURVE",
"225 -12 OFFCURVE",
"277 -12 CURVE SMOOTH",
"330 -12 OFFCURVE",
"376 11 OFFCURVE",
"420 68 CURVE",
"440 0 LINE",
"550 0 LINE",
"528 116 LINE",
"528 522 LINE",
"396 522 LINE",
"396 166 LINE",
"367 124 OFFCURVE",
"329 100 OFFCURVE",
"281 100 CURVE SMOOTH",
"221 100 OFFCURVE",
"198 137 OFFCURVE",
"198 205 CURVE SMOOTH",
"198 522 LINE",
"66 522 LINE",
"66 -174 LINE"
);
}
);
width = 616;
}
);
unicode = 03BC;
},
{
color = 1;
glyphname = pi;
lastChange = "2015-06-10 20:44:10 +0000";
layers = (
{
layerId = UUID0;
name = Regular;
paths = (
{
closed = 1;
nodes = (
"506 446 LINE",
"638 446 LINE",
"638 522 LINE",
"44 522 LINE",
"44 446 LINE",
"176 446 LINE",
"176 0 LINE",
"264 0 LINE",
"264 446 LINE",
"418 446 LINE",
"418 172 LINE SMOOTH",
"418 59 OFFCURVE",
"463 -12 OFFCURVE",
"558 -12 CURVE SMOOTH",
"588 -12 OFFCURVE",
"608 -7 OFFCURVE",
"638 5 CURVE",
"638 81 LINE",
"612 69 OFFCURVE",
"598 65 OFFCURVE",
"576 65 CURVE SMOOTH",
"524 65 OFFCURVE",
"506 108 OFFCURVE",
"506 162 CURVE SMOOTH"
);
}
);
width = 682;
},
{
layerId = "CD42366C-28E1-4C24-AB95-7D2C522D2B07";
name = Bold;
paths = (
{
closed = 1;
nodes = (
"528 413 LINE",
"638 413 LINE",
"638 522 LINE",
"44 522 LINE",
"44 413 LINE",
"154 413 LINE",
"154 0 LINE",
"286 0 LINE",
"286 413 LINE",
"396 413 LINE",
"396 172 LINE SMOOTH",
"396 59 OFFCURVE",
"448 -12 OFFCURVE",
"558 -12 CURVE SMOOTH",
"588 -12 OFFCURVE",
"608 -7 OFFCURVE",
"638 5 CURVE",
"638 114 LINE",
"621 102 OFFCURVE",
"612 98 OFFCURVE",
"597 98 CURVE SMOOTH",
"546 98 OFFCURVE",
"528 141 OFFCURVE",
"528 195 CURVE SMOOTH"
);
}
);
width = 682;
}
);
unicode = 03C0;
},
{
color = 1;
glyphname = zero;
lastChange = "2015-06-08 01:24:35 +0000";
layers = (
{
layerId = UUID0;
name = Regular;
paths = (
{
closed = 1;
nodes = (
"479 -12 OFFCURVE",
"550 146 OFFCURVE",
"550 348 CURVE SMOOTH",
"550 550 OFFCURVE",
"479 708 OFFCURVE",
"297 708 CURVE SMOOTH",
"115 708 OFFCURVE",
"44 550 OFFCURVE",
"44 348 CURVE SMOOTH",
"44 146 OFFCURVE",
"115 -12 OFFCURVE",
"297 -12 CURVE SMOOTH"
);
},
{
closed = 1;
nodes = (
"166 68 OFFCURVE",
"139 196 OFFCURVE",
"139 348 CURVE SMOOTH",
"139 500 OFFCURVE",
"166 628 OFFCURVE",
"297 628 CURVE SMOOTH",
"428 628 OFFCURVE",
"455 500 OFFCURVE",
"455 348 CURVE SMOOTH",
"455 196 OFFCURVE",
"428 68 OFFCURVE",
"297 68 CURVE SMOOTH"
);
}
);
width = 594;
},
{
layerId = "CD42366C-28E1-4C24-AB95-7D2C522D2B07";
name = Bold;
paths = (
{
closed = 1;
nodes = (
"495 -12 OFFCURVE",
"572 146 OFFCURVE",
"572 348 CURVE SMOOTH",
"572 550 OFFCURVE",
"495 708 OFFCURVE",
"297 708 CURVE SMOOTH",
"99 708 OFFCURVE",
"22 550 OFFCURVE",
"22 348 CURVE SMOOTH",
"22 146 OFFCURVE",
"99 -12 OFFCURVE",
"297 -12 CURVE SMOOTH"
);
},
{
closed = 1;
nodes = (
"194 101 OFFCURVE",
"161 214 OFFCURVE",
"161 348 CURVE SMOOTH",
"161 482 OFFCURVE",
"194 595 OFFCURVE",
"297 595 CURVE SMOOTH",
"400 595 OFFCURVE",
"433 482 OFFCURVE",
"433 348 CURVE SMOOTH",
"433 214 OFFCURVE",
"400 101 OFFCURVE",
"297 101 CURVE SMOOTH"
);
}
);
width = 594;
}
);
unicode = 0030;
},
{
color = 1;
glyphname = one;
lastChange = "2015-06-08 01:24:35 +0000";
layers = (
{
layerId = UUID0;
name = Regular;
paths = (
{
closed = 1;
nodes = (
"374 58 LINE",
"374 649 LINE",
"286 649 LINE",
"286 58 LINE"
);
},
{
closed = 1;
nodes = (
"528 0 LINE",
"528 83 LINE",
"66 83 LINE",
"66 0 LINE"
);
},
{
closed = 1;
nodes = (
"374 592 LINE",
"374 696 LINE",
"308 696 LINE",
"110 573 LINE",
"110 569 LINE",
"130 506 LINE",
"134 506 LINE",
"308 592 LINE"
);
}
);
width = 594;
},
{
layerId = "CD42366C-28E1-4C24-AB95-7D2C522D2B07";
name = Bold;
paths = (
{
closed = 1;
nodes = (
"396 58 LINE",
"396 649 LINE",
"264 649 LINE",
"264 58 LINE"
);
},
{
closed = 1;
nodes = (
"550 0 LINE",
"550 116 LINE",
"44 116 LINE",
"44 0 LINE"
);
},
{
closed = 1;
nodes = (
"396 559 LINE",
"396 696 LINE",
"286 696 LINE",
"66 573 LINE",
"66 569 LINE",
"86 473 LINE",
"90 473 LINE",
"286 559 LINE"
);
}
);
width = 594;
}
);
unicode = 0031;
},
{
color = 1;
glyphname = two;
lastChange = "2015-06-08 01:24:35 +0000";
layers = (
{
layerId = UUID0;
name = Regular;
paths = (
{
closed = 1;
nodes = (
"66 67 LINE",
"175 67 LINE",
"406 306 LINE SMOOTH",
"472 374 OFFCURVE",
"507 447 OFFCURVE",
"507 518 CURVE SMOOTH",
"507 633 OFFCURVE",
"414 708 OFFCURVE",
"271 708 CURVE SMOOTH",
"204 708 OFFCURVE",
"144 692 OFFCURVE",
"88 659 CURVE",
"88 571 LINE",
"143 608 OFFCURVE",
"204 627 OFFCURVE",
"267 627 CURVE SMOOTH",
"361 627 OFFCURVE",
"416 583 OFFCURVE",
"416 506 CURVE SMOOTH",
"416 456 OFFCURVE",
"393 417 OFFCURVE",
"316 334 CURVE SMOOTH"
);
},
{
closed = 1;
nodes = (
"66 0 LINE",
"528 0 LINE",
"528 84 LINE",
"104 84 LINE",
"66 67 LINE"
);
}
);
width = 594;
},
{
layerId = "CD42366C-28E1-4C24-AB95-7D2C522D2B07";
name = Bold;
paths = (
{
closed = 1;
nodes = (
"44 100 LINE",
"217 100 LINE",
"426 306 LINE SMOOTH",
"501 380 OFFCURVE",
"529 449 OFFCURVE",
"529 513 CURVE SMOOTH",
"529 636 OFFCURVE",
"427 708 OFFCURVE",
"270 708 CURVE SMOOTH",
"196 708 OFFCURVE",
"129 692 OFFCURVE",
"66 659 CURVE",
"66 538 LINE",
"128 575 OFFCURVE",
"197 594 OFFCURVE",
"264 594 CURVE SMOOTH",
"347 594 OFFCURVE",
"394 565 OFFCURVE",
"394 502 CURVE SMOOTH",
"394 458 OFFCURVE",
"371 412 OFFCURVE",
"289 334 CURVE SMOOTH"
);
},
{
closed = 1;
nodes = (
"44 0 LINE",
"550 0 LINE",
"550 117 LINE",
"82 117 LINE",
"44 100 LINE"
);
}
);
width = 594;
}
);
unicode = 0032;
},
{
color = 1;
glyphname = three;
lastChange = "2015-06-08 01:24:35 +0000";
layers = (
{
layerId = UUID0;
name = Regular;
paths = (
{
closed = 1;
nodes = (
"421 -12 OFFCURVE",
"528 70 OFFCURVE",
"528 188 CURVE SMOOTH",
"528 303 OFFCURVE",
"427 383 OFFCURVE",
"283 383 CURVE SMOOTH",
"198 383 LINE",
"198 323 LINE",
"242 323 LINE SMOOTH",
"361 323 OFFCURVE",
"436 273 OFFCURVE",
"436 195 CURVE SMOOTH",
"436 120 OFFCURVE",
"368 69 OFFCURVE",
"266 69 CURVE SMOOTH",
"199 69 OFFCURVE",
"137 91 OFFCURVE",
"70 137 CURVE",
"66 137 LINE",
"66 45 LINE",
"132 6 OFFCURVE",
"195 -12 OFFCURVE",
"267 -12 CURVE SMOOTH"
);
},
{
closed = 1;
nodes = (
"198 341 LINE",
"285 341 LINE SMOOTH",
"418 341 OFFCURVE",
"512 418 OFFCURVE",
"512 527 CURVE SMOOTH",
"512 636 OFFCURVE",
"417 708 OFFCURVE",
"274 708 CURVE SMOOTH",
"208 708 OFFCURVE",
"149 693 OFFCURVE",
"87 659 CURVE",
"87 572 LINE",
"91 572 LINE",
"159 610 OFFCURVE",
"211 626 OFFCURVE",
"268 626 CURVE SMOOTH",
"362 626 OFFCURVE",
"422 583 OFFCURVE",
"422 514 CURVE SMOOTH",
"422 443 OFFCURVE",
"356 402 OFFCURVE",
"242 402 CURVE SMOOTH",
"198 402 LINE"
);
}
);
width = 594;
},
{
layerId = "CD42366C-28E1-4C24-AB95-7D2C522D2B07";
name = Bold;
paths = (
{
closed = 1;
nodes = (
"434 -12 OFFCURVE",
"550 68 OFFCURVE",
"550 191 CURVE SMOOTH",
"550 310 OFFCURVE",
"441 399 OFFCURVE",
"283 399 CURVE SMOOTH",
"198 399 LINE",
"198 308 LINE",
"242 308 LINE SMOOTH",
"349 308 OFFCURVE",
"414 262 OFFCURVE",
"414 198 CURVE SMOOTH",
"414 137 OFFCURVE",
"354 102 OFFCURVE",
"263 102 CURVE SMOOTH",
"192 102 OFFCURVE",
"123 123 OFFCURVE",
"48 170 CURVE",
"44 170 LINE",
"44 45 LINE",
"117 6 OFFCURVE",
"187 -12 OFFCURVE",
"267 -12 CURVE SMOOTH"
);
},
{
closed = 1;
nodes = (
"198 326 LINE",
"285 326 LINE SMOOTH",
"431 326 OFFCURVE",
"534 411 OFFCURVE",
"534 524 CURVE SMOOTH",
"534 638 OFFCURVE",
"430 708 OFFCURVE",
"273 708 CURVE SMOOTH",
"200 708 OFFCURVE",
"134 693 OFFCURVE",
"65 659 CURVE",
"65 539 LINE",
"69 539 LINE",
"145 577 OFFCURVE",
"205 593 OFFCURVE",
"267 593 CURVE SMOOTH",
"349 593 OFFCURVE",
"400 565 OFFCURVE",
"400 512 CURVE SMOOTH",
"400 454 OFFCURVE",
"341 418 OFFCURVE",
"242 418 CURVE SMOOTH",
"198 418 LINE"
);
}
);
width = 594;
}
);
unicode = 0033;
},
{
color = 1;
glyphname = four;
lastChange = "2015-06-08 01:24:35 +0000";
layers = (
{
layerId = UUID0;
name = Regular;
paths = (
{
closed = 1;
nodes = (
"462 0 LINE",
"462 696 LINE",
"374 696 LINE",
"374 0 LINE"
);
},
{
closed = 1;
nodes = (
"572 163 LINE",
"572 243 LINE",
"117 243 LINE",
"44 230 LINE",
"44 163 LINE"
);
},
{
closed = 1;
nodes = (
"44 233 LINE",
"121 211 LINE",
"435 665 LINE",
"374 696 LINE"
);
}
);
width = 594;
},
{
layerId = "CD42366C-28E1-4C24-AB95-7D2C522D2B07";
name = Bold;
paths = (
{
closed = 1;
nodes = (
"473 0 LINE",
"473 696 LINE",
"341 696 LINE",
"341 0 LINE"
);
},
{
closed = 1;
nodes = (
"572 152 LINE",
"572 265 LINE",
"117 265 LINE",
"22 255 LINE",
"22 152 LINE"
);
},
{
closed = 1;
nodes = (
"22 255 LINE",
"154 233 LINE",
"441 665 LINE",
"341 696 LINE"
);
}
);
width = 594;
}
);
unicode = 0034;
},
{
color = 1;
glyphname = five;
lastChange = "2015-06-08 01:24:35 +0000";
layers = (
{
layerId = UUID0;
name = Regular;
paths = (
{
closed = 1;
nodes = (
"428 -11 OFFCURVE",
"528 78 OFFCURVE",
"528 213 CURVE SMOOTH",
"528 341 OFFCURVE",
"438 437 OFFCURVE",
"313 437 CURVE SMOOTH",
"234 437 OFFCURVE",
"154 399 OFFCURVE",
"88 331 CURVE",
"153 304 LINE",
"157 304 LINE",
"200 339 OFFCURVE",
"248 357 OFFCURVE",
"295 357 CURVE SMOOTH",
"379 357 OFFCURVE",
"437 298 OFFCURVE",
"437 216 CURVE SMOOTH",
"437 128 OFFCURVE",
"371 69 OFFCURVE",
"276 69 CURVE SMOOTH",
"206 69 OFFCURVE",
"124 101 OFFCURVE",
"70 148 CURVE",
"66 148 LINE",
"66 53 LINE",
"123 12 OFFCURVE",
"200 -11 OFFCURVE",
"277 -11 CURVE SMOOTH"
);
},
{
closed = 1;
nodes = (
"88 331 LINE",
"168 331 LINE",
"212 696 LINE",
"132 696 LINE",
"88 336 LINE"
);
},
{
closed = 1;
nodes = (
"132 614 LINE",
"495 614 LINE",
"495 696 LINE",
"132 696 LINE"
);
}
);
width = 594;
},
{
layerId = "CD42366C-28E1-4C24-AB95-7D2C522D2B07";
name = Bold;
paths = (
{
closed = 1;
nodes = (
"441 -11 OFFCURVE",
"550 77 OFFCURVE",
"550 214 CURVE SMOOTH",
"550 340 OFFCURVE",
"458 437 OFFCURVE",
"321 437 CURVE SMOOTH",
"220 437 OFFCURVE",
"137 385 OFFCURVE",
"66 298 CURVE",
"153 271 LINE",
"157 271 LINE",
"200 306 OFFCURVE",
"248 324 OFFCURVE",
"294 324 CURVE SMOOTH",
"367 324 OFFCURVE",
"415 279 OFFCURVE",
"415 216 CURVE SMOOTH",
"415 148 OFFCURVE",
"359 102 OFFCURVE",
"273 102 CURVE SMOOTH",
"200 102 OFFCURVE",
"108 135 OFFCURVE",
"48 181 CURVE",
"44 181 LINE",
"44 53 LINE",
"107 12 OFFCURVE",
"192 -11 OFFCURVE",
"276 -11 CURVE SMOOTH"
);
},
{
closed = 1;
nodes = (
"66 298 LINE",
"190 298 LINE",
"234 696 LINE",
"111 696 LINE",
"66 303 LINE"
);
},
{
closed = 1;
nodes = (
"111 581 LINE",
"517 581 LINE",
"517 696 LINE",
"111 696 LINE"
);
}
);
width = 594;
}
);
unicode = 0035;
},
{
color = 1;
glyphname = six;
lastChange = "2015-06-08 01:24:35 +0000";
layers = (
{
layerId = UUID0;
name = Regular;
paths = (
{
closed = 1;
nodes = (
"447 -12 OFFCURVE",
"550 82 OFFCURVE",
"550 217 CURVE SMOOTH",
"550 345 OFFCURVE",
"458 429 OFFCURVE",
"318 429 CURVE SMOOTH",
"241 429 OFFCURVE",
"182 404 OFFCURVE",
"120 345 CURVE",
"120 273 LINE",
"184 323 OFFCURVE",
"248 349 OFFCURVE",
"309 349 CURVE SMOOTH",
"397 349 OFFCURVE",
"456 296 OFFCURVE",
"456 215 CURVE SMOOTH",
"456 130 OFFCURVE",
"390 67 OFFCURVE",
"302 67 CURVE SMOOTH",
"195 67 OFFCURVE",
"139 159 OFFCURVE",
"139 328 CURVE SMOOTH",
"139 520 OFFCURVE",
"211 629 OFFCURVE",
"341 629 CURVE SMOOTH",
"398 629 OFFCURVE",
"459 608 OFFCURVE",
"513 570 CURVE",
"517 570 LINE",
"517 658 LINE",
"463 690 OFFCURVE",
"399 708 OFFCURVE",
"335 708 CURVE SMOOTH",
"155 708 OFFCURVE",
"44 565 OFFCURVE",
"44 330 CURVE SMOOTH",
"44 114 OFFCURVE",
"138 -12 OFFCURVE",
"304 -12 CURVE SMOOTH"
);
}
);
width = 594;
},
{
layerId = "CD42366C-28E1-4C24-AB95-7D2C522D2B07";
name = Bold;
paths = (
{
closed = 1;
nodes = (
"460 -12 OFFCURVE",
"572 80 OFFCURVE",
"572 221 CURVE SMOOTH",
"572 354 OFFCURVE",
"471 447 OFFCURVE",
"318 447 CURVE SMOOTH",
"241 447 OFFCURVE",
"182 424 OFFCURVE",
"120 369 CURVE",
"120 264 LINE",
"182 309 OFFCURVE",
"249 334 OFFCURVE",
"306 334 CURVE SMOOTH",
"387 334 OFFCURVE",
"434 284 OFFCURVE",
"434 219 CURVE SMOOTH",
"434 148 OFFCURVE",
"377 100 OFFCURVE",
"303 100 CURVE SMOOTH",
"208 100 OFFCURVE",
"161 180 OFFCURVE",
"161 328 CURVE SMOOTH",
"161 499 OFFCURVE",
"223 596 OFFCURVE",
"344 596 CURVE SMOOTH",
"401 596 OFFCURVE",
"473 575 OFFCURVE",
"535 531 CURVE",
"539 531 LINE",
"539 652 LINE",
"478 688 OFFCURVE",
"407 708 OFFCURVE",
"335 708 CURVE SMOOTH",
"141 708 OFFCURVE",
"22 565 OFFCURVE",
"22 330 CURVE SMOOTH",
"22 115 OFFCURVE",
"123 -12 OFFCURVE",
"305 -12 CURVE SMOOTH"
);
}
);
width = 594;
}
);
unicode = 0036;
},
{
color = 1;
glyphname = seven;
lastChange = "2015-06-08 01:24:35 +0000";
layers = (
{
layerId = UUID0;
name = Regular;
paths = (
{
closed = 1;
nodes = (
"495 614 LINE",
"550 629 LINE",
"550 696 LINE",
"66 696 LINE",
"66 614 LINE"
);
},
{
closed = 1;
nodes = (
"143 0 LINE",
"244 0 LINE",
"550 629 LINE",
"476 659 LINE",
"143 4 LINE"
);
}
);
width = 594;
},
{
layerId = "CD42366C-28E1-4C24-AB95-7D2C522D2B07";
name = Bold;
paths = (
{
closed = 1;
nodes = (
"495 581 LINE",
"572 629 LINE",
"572 696 LINE",
"66 696 LINE",
"66 581 LINE"
);
},
{
closed = 1;
nodes = (
"143 0 LINE",
"266 0 LINE",
"572 629 LINE",
"454 659 LINE",
"121 4 LINE"
);
}
);
width = 594;
}
);
unicode = 0037;
},
{
color = 1;
glyphname = eight;
lastChange = "2015-06-08 01:24:35 +0000";
layers = (
{
layerId = UUID0;
name = Regular;
paths = (
{
closed = 1;
nodes = (
"444 -12 OFFCURVE",
"550 72 OFFCURVE",
"550 191 CURVE SMOOTH",
"550 265 OFFCURVE",
"509 332 OFFCURVE",
"434 358 CURVE",
"500 381 OFFCURVE",
"537 449 OFFCURVE",
"537 518 CURVE SMOOTH",
"537 633 OFFCURVE",
"436 708 OFFCURVE",
"297 708 CURVE SMOOTH",
"158 708 OFFCURVE",
"57 633 OFFCURVE",
"57 518 CURVE SMOOTH",
"57 445 OFFCURVE",
"97 379 OFFCURVE",
"159 358 CURVE",
"92 334 OFFCURVE",
"44 271 OFFCURVE",
"44 191 CURVE SMOOTH",
"44 73 OFFCURVE",
"150 -12 OFFCURVE",
"298 -12 CURVE SMOOTH"
);
},
{
closed = 1;
nodes = (
"193 66 OFFCURVE",
"136 111 OFFCURVE",
"136 191 CURVE SMOOTH",
"136 272 OFFCURVE",
"195 318 OFFCURVE",
"297 318 CURVE SMOOTH",
"399 318 OFFCURVE",
"458 272 OFFCURVE",
"458 191 CURVE SMOOTH",
"458 111 OFFCURVE",
"400 66 OFFCURVE",
"296 66 CURVE SMOOTH"
);
},
{
closed = 1;
nodes = (
"202 400 OFFCURVE",
"147 442 OFFCURVE",
"147 516 CURVE SMOOTH",
"147 590 OFFCURVE",
"201 631 OFFCURVE",
"297 631 CURVE SMOOTH",
"393 631 OFFCURVE",
"447 590 OFFCURVE",
"447 516 CURVE SMOOTH",
"447 442 OFFCURVE",
"393 400 OFFCURVE",
"298 400 CURVE SMOOTH"
);
}
);
width = 594;
},
{
layerId = "CD42366C-28E1-4C24-AB95-7D2C522D2B07";
name = Bold;
paths = (
{
closed = 1;
nodes = (
"458 -12 OFFCURVE",
"572 72 OFFCURVE",
"572 193 CURVE SMOOTH",
"572 265 OFFCURVE",
"531 332 OFFCURVE",
"456 358 CURVE",
"521 380 OFFCURVE",
"559 449 OFFCURVE",
"559 517 CURVE SMOOTH",
"559 633 OFFCURVE",
"450 708 OFFCURVE",
"297 708 CURVE SMOOTH",
"145 708 OFFCURVE",
"35 633 OFFCURVE",
"35 516 CURVE SMOOTH",
"35 447 OFFCURVE",
"74 379 OFFCURVE",
"137 358 CURVE",
"71 335 OFFCURVE",
"22 271 OFFCURVE",
"22 193 CURVE SMOOTH",
"22 73 OFFCURVE",
"136 -12 OFFCURVE",
"298 -12 CURVE SMOOTH"
);
},
{
closed = 1;
nodes = (
"208 99 OFFCURVE",
"158 136 OFFCURVE",
"158 201 CURVE SMOOTH",
"158 267 OFFCURVE",
"210 303 OFFCURVE",
"297 303 CURVE SMOOTH",
"386 303 OFFCURVE",
"436 266 OFFCURVE",
"436 201 CURVE SMOOTH",
"436 137 OFFCURVE",
"387 99 OFFCURVE",
"297 99 CURVE SMOOTH"
);
},
{
closed = 1;
nodes = (
"215 415 OFFCURVE",
"169 448 OFFCURVE",
"169 506 CURVE SMOOTH",
"169 564 OFFCURVE",
"214 598 OFFCURVE",
"297 598 CURVE SMOOTH",
"380 598 OFFCURVE",
"425 564 OFFCURVE",
"425 506 CURVE SMOOTH",
"425 447 OFFCURVE",
"378 415 OFFCURVE",
"297 415 CURVE SMOOTH"
);
}
);
width = 594;
}
);
unicode = 0038;
},
{
color = 1;
glyphname = nine;
lastChange = "2015-06-08 01:24:35 +0000";
layers = (
{
layerId = UUID0;
name = Regular;
paths = (
{
closed = 1;
nodes = (
"447 -12 OFFCURVE",
"550 118 OFFCURVE",
"550 365 CURVE SMOOTH",
"550 590 OFFCURVE",
"464 708 OFFCURVE",
"292 708 CURVE SMOOTH",
"142 708 OFFCURVE",
"44 618 OFFCURVE",
"44 479 CURVE SMOOTH",
"44 348 OFFCURVE",
"131 267 OFFCURVE",
"276 267 CURVE SMOOTH",
"354 267 OFFCURVE",
"417 291 OFFCURVE",
"474 344 CURVE",
"474 423 LINE",
"414 372 OFFCURVE",
"352 347 OFFCURVE",
"288 347 CURVE SMOOTH",
"195 347 OFFCURVE",
"138 398 OFFCURVE",
"138 483 CURVE SMOOTH",
"138 570 OFFCURVE",
"199 627 OFFCURVE",
"293 627 CURVE SMOOTH",
"405 627 OFFCURVE",
"455 546 OFFCURVE",
"455 364 CURVE SMOOTH",
"455 162 OFFCURVE",
"394 70 OFFCURVE",
"260 70 CURVE SMOOTH",
"196 70 OFFCURVE",
"135 91 OFFCURVE",
"81 132 CURVE",
"77 132 LINE",
"77 42 LINE",
"134 4 OFFCURVE",
"185 -12 OFFCURVE",
"253 -12 CURVE SMOOTH"
);
}
);
width = 594;
},
{
layerId = "CD42366C-28E1-4C24-AB95-7D2C522D2B07";
name = Bold;
paths = (
{
closed = 1;
nodes = (
"462 -12 OFFCURVE",
"572 118 OFFCURVE",
"572 364 CURVE SMOOTH",
"572 590 OFFCURVE",
"479 708 OFFCURVE",
"292 708 CURVE SMOOTH",
"129 708 OFFCURVE",
"22 619 OFFCURVE",
"22 476 CURVE SMOOTH",
"22 342 OFFCURVE",
"117 254 OFFCURVE",
"273 254 CURVE SMOOTH",
"355 254 OFFCURVE",
"417 278 OFFCURVE",
"474 331 CURVE",
"474 443 LINE",
"414 392 OFFCURVE",
"351 367 OFFCURVE",
"290 367 CURVE SMOOTH",
"209 367 OFFCURVE",
"160 411 OFFCURVE",
"160 480 CURVE SMOOTH",
"160 551 OFFCURVE",
"212 594 OFFCURVE",
"291 594 CURVE SMOOTH",
"390 594 OFFCURVE",
"433 525 OFFCURVE",
"433 363 CURVE SMOOTH",
"433 182 OFFCURVE",
"379 103 OFFCURVE",
"256 103 CURVE SMOOTH",
"192 103 OFFCURVE",
"119 124 OFFCURVE",
"59 165 CURVE",
"55 165 LINE",
"55 42 LINE",
"119 4 OFFCURVE",
"177 -12 OFFCURVE",
"251 -12 CURVE SMOOTH"
);
}
);
width = 594;
}
);
unicode = 0039;
},
{
glyphname = zero.denominator;
lastChange = "2015-04-08 16:47:04 +0000";
layers = (
{
layerId = UUID0;
name = Regular;
paths = (
{
closed = 1;
nodes = (
"253 -12 OFFCURVE",
"286 51 OFFCURVE",
"286 132 CURVE SMOOTH",
"286 213 OFFCURVE",
"253 276 OFFCURVE",
"165 276 CURVE SMOOTH",
"79 276 OFFCURVE",
"44 213 OFFCURVE",
"44 132 CURVE SMOOTH",
"44 51 OFFCURVE",
"79 -12 OFFCURVE",
"165 -12 CURVE SMOOTH"
);
},
{
closed = 1;
nodes = (
"115 42 OFFCURVE",
"104 83 OFFCURVE",
"104 132 CURVE SMOOTH",
"104 181 OFFCURVE",
"115 222 OFFCURVE",
"165 222 CURVE SMOOTH",
"215 222 OFFCURVE",
"226 181 OFFCURVE",
"226 132 CURVE SMOOTH",
"226 83 OFFCURVE",
"215 42 OFFCURVE",
"165 42 CURVE SMOOTH"
);
}
);
width = 330;
},
{
layerId = "CD42366C-28E1-4C24-AB95-7D2C522D2B07";
name = Bold;
width = 600;
}
);
},
{
glyphname = one.denominator;
lastChange = "2015-04-08 16:47:04 +0000";
layers = (
{
layerId = UUID0;
name = Regular;
paths = (
{
closed = 1;
nodes = (
"167 13 LINE",
"167 259 LINE",
"110 259 LINE",
"110 13 LINE"
);
},
{
closed = 1;
nodes = (
"220 0 LINE",
"220 55 LINE",
"44 55 LINE",
"44 0 LINE"
);
},
{
closed = 1;
nodes = (
"167 215 LINE",
"167 278 LINE",
"118 278 LINE",
"44 229 LINE",
"52 180 LINE",
"118 215 LINE"
);
}
);
width = 264;
},
{
layerId = "CD42366C-28E1-4C24-AB95-7D2C522D2B07";
name = Bold;
width = 600;
}
);
},
{
glyphname = two.denominator;
lastChange = "2015-04-08 16:47:04 +0000";
layers = (
{
layerId = UUID0;
name = Regular;
paths = (
{
closed = 1;
nodes = (
"44 49 LINE",
"129 49 LINE",
"186 100 LINE SMOOTH",
"223 133 OFFCURVE",
"242 158 OFFCURVE",
"242 190 CURVE SMOOTH",
"242 255 OFFCURVE",
"185 276 OFFCURVE",
"136 276 CURVE SMOOTH",
"109 276 OFFCURVE",
"83 268 OFFCURVE",
"58 256 CURVE",
"58 199 LINE",
"82 214 OFFCURVE",
"109 221 OFFCURVE",
"133 221 CURVE SMOOTH",
"166 221 OFFCURVE",
"184 210 OFFCURVE",
"184 186 CURVE SMOOTH",
"184 173 OFFCURVE",
"176 161 OFFCURVE",
"144 134 CURVE SMOOTH"
);
},
{
closed = 1;
nodes = (
"44 0 LINE",
"242 0 LINE",
"242 56 LINE",
"59 56 LINE",
"44 49 LINE"
);
}
);
width = 286;
},
{
layerId = "CD42366C-28E1-4C24-AB95-7D2C522D2B07";
name = Bold;
width = 600;
}
);
},
{
glyphname = three.denominator;
lastChange = "2015-04-08 16:47:04 +0000";
layers = (
{
layerId = UUID0;
name = Regular;
paths = (
{
closed = 1;
nodes = (
"195 -12 OFFCURVE",
"242 23 OFFCURVE",
"242 73 CURVE SMOOTH",
"242 122 OFFCURVE",
"198 157 OFFCURVE",
"130 157 CURVE SMOOTH",
"96 157 LINE",
"96 111 LINE",
"114 111 LINE SMOOTH",
"165 111 OFFCURVE",
"183 94 OFFCURVE",
"183 72 CURVE SMOOTH",
"183 53 OFFCURVE",
"165 41 OFFCURVE",
"126 41 CURVE SMOOTH",
"96 41 OFFCURVE",
"75 49 OFFCURVE",
"48 68 CURVE",
"44 68 LINE",
"44 11 LINE",
"70 -5 OFFCURVE",
"94 -12 OFFCURVE",
"125 -12 CURVE SMOOTH"
);
},
{
closed = 1;
nodes = (
"96 118 LINE",
"131 118 LINE SMOOTH",
"193 118 OFFCURVE",
"236 152 OFFCURVE",
"236 199 CURVE SMOOTH",
"236 245 OFFCURVE",
"194 276 OFFCURVE",
"138 276 CURVE SMOOTH",
"104 276 OFFCURVE",
"82 268 OFFCURVE",
"56 253 CURVE",
"56 199 LINE",
"60 199 LINE",
"87 217 OFFCURVE",
"102 225 OFFCURVE",
"130 225 CURVE SMOOTH",
"167 225 OFFCURVE",
"177 213 OFFCURVE",
"177 198 CURVE SMOOTH",
"177 177 OFFCURVE",
"154 165 OFFCURVE",
"114 165 CURVE SMOOTH",
"96 165 LINE"
);
}
);
width = 286;
},
{
layerId = "CD42366C-28E1-4C24-AB95-7D2C522D2B07";
name = Bold;
width = 600;
}
);
},
{
glyphname = four.denominator;
lastChange = "2015-04-08 16:47:04 +0000";
layers = (
{
layerId = UUID0;
name = Regular;
paths = (
{
closed = 1;
nodes = (
"212 0 LINE",
"212 279 LINE",
"154 279 LINE",
"154 0 LINE"
);
},
{
closed = 1;
nodes = (
"264 65 LINE",
"264 112 LINE",
"52 112 LINE",
"22 107 LINE",
"22 65 LINE"
);
},
{
closed = 1;
nodes = (
"22 107 LINE",
"69 99 LINE",
"195 267 LINE",
"154 279 LINE"
);
}
);
width = 308;
},
{
layerId = "CD42366C-28E1-4C24-AB95-7D2C522D2B07";
name = Bold;
width = 600;
}
);
},
{
glyphname = five.denominator;
lastChange = "2015-04-08 16:47:04 +0000";
layers = (
{
layerId = UUID0;
name = Regular;
paths = (
{
closed = 1;
nodes = (
"199 -12 OFFCURVE",
"242 23 OFFCURVE",
"242 82 CURVE SMOOTH",
"242 131 OFFCURVE",
"212 173 OFFCURVE",
"153 173 CURVE SMOOTH",
"117 173 OFFCURVE",
"83 158 OFFCURVE",
"53 131 CURVE",
"98 109 LINE",
"102 109 LINE",
"116 116 OFFCURVE",
"131 119 OFFCURVE",
"143 119 CURVE SMOOTH",
"171 119 OFFCURVE",
"184 103 OFFCURVE",
"184 82 CURVE SMOOTH",
"184 57 OFFCURVE",
"165 42 OFFCURVE",
"135 42 CURVE SMOOTH",
"108 42 OFFCURVE",
"73 55 OFFCURVE",
"48 74 CURVE",
"44 74 LINE",
"44 14 LINE",
"69 -3 OFFCURVE",
"105 -12 OFFCURVE",
"137 -12 CURVE SMOOTH"
);
},
{
closed = 1;
nodes = (
"53 131 LINE",
"107 131 LINE",
"127 272 LINE",
"74 272 LINE",
"53 135 LINE"
);
},
{
closed = 1;
nodes = (
"74 219 LINE",
"230 219 LINE",
"230 272 LINE",
"74 272 LINE"
);
}
);
width = 286;
},
{
layerId = "CD42366C-28E1-4C24-AB95-7D2C522D2B07";
name = Bold;
width = 600;
}
);
},
{
glyphname = six.denominator;
lastChange = "2015-04-08 16:47:04 +0000";
layers = (
{
layerId = UUID0;
name = Regular;
paths = (
{
closed = 1;
nodes = (
"218 -12 OFFCURVE",
"264 25 OFFCURVE",
"264 82 CURVE SMOOTH",
"264 136 OFFCURVE",
"223 175 OFFCURVE",
"163 175 CURVE SMOOTH",
"132 175 OFFCURVE",
"110 165 OFFCURVE",
"85 142 CURVE",
"85 91 LINE",
"111 111 OFFCURVE",
"131 121 OFFCURVE",
"157 121 CURVE SMOOTH",
"187 121 OFFCURVE",
"205 106 OFFCURVE",
"205 82 CURVE SMOOTH",
"205 58 OFFCURVE",
"187 42 OFFCURVE",
"159 42 CURVE SMOOTH",
"122 42 OFFCURVE",
"104 68 OFFCURVE",
"104 124 CURVE SMOOTH",
"104 188 OFFCURVE",
"128 222 OFFCURVE",
"173 222 CURVE SMOOTH",
"193 222 OFFCURVE",
"214 216 OFFCURVE",
"238 199 CURVE",
"242 199 LINE",
"242 256 LINE",
"220 269 OFFCURVE",
"195 276 OFFCURVE",
"168 276 CURVE SMOOTH",
"92 276 OFFCURVE",
"44 219 OFFCURVE",
"44 125 CURVE SMOOTH",
"44 38 OFFCURVE",
"85 -12 OFFCURVE",
"157 -12 CURVE SMOOTH"
);
}
);
width = 308;
},
{
layerId = "CD42366C-28E1-4C24-AB95-7D2C522D2B07";
name = Bold;
width = 600;
}
);
},
{
glyphname = seven.denominator;
lastChange = "2015-04-08 16:47:04 +0000";
layers = (
{
layerId = UUID0;
name = Regular;
paths = (
{
closed = 1;
nodes = (
"220 226 LINE",
"242 232 LINE",
"242 278 LINE",
"44 278 LINE",
"44 226 LINE"
);
},
{
closed = 1;
nodes = (
"53 0 LINE",
"115 0 LINE",
"242 232 LINE",
"201 263 LINE",
"53 4 LINE"
);
}
);
width = 286;
},
{
layerId = "CD42366C-28E1-4C24-AB95-7D2C522D2B07";
name = Bold;
width = 600;
}
);
},
{
glyphname = eight.denominator;
lastChange = "2015-04-08 16:47:04 +0000";
layers = (
{
layerId = UUID0;
name = Regular;
paths = (
{
closed = 1;
nodes = (
"217 -12 OFFCURVE",
"264 22 OFFCURVE",
"264 69 CURVE SMOOTH",
"264 99 OFFCURVE",
"248 126 OFFCURVE",
"218 136 CURVE",
"244 145 OFFCURVE",
"259 172 OFFCURVE",
"259 200 CURVE SMOOTH",
"259 246 OFFCURVE",
"214 276 OFFCURVE",
"154 276 CURVE SMOOTH",
"94 276 OFFCURVE",
"49 246 OFFCURVE",
"49 200 CURVE SMOOTH",
"49 171 OFFCURVE",
"65 144 OFFCURVE",
"90 136 CURVE",
"62 126 OFFCURVE",
"44 101 OFFCURVE",
"44 69 CURVE SMOOTH",
"44 22 OFFCURVE",
"91 -12 OFFCURVE",
"154 -12 CURVE SMOOTH"
);
},
{
closed = 1;
nodes = (
"121 41 OFFCURVE",
"103 54 OFFCURVE",
"103 78 CURVE SMOOTH",
"103 102 OFFCURVE",
"122 115 OFFCURVE",
"154 115 CURVE SMOOTH",
"186 115 OFFCURVE",
"205 102 OFFCURVE",
"205 78 CURVE SMOOTH",
"205 54 OFFCURVE",
"186 41 OFFCURVE",
"154 41 CURVE SMOOTH"
);
},
{
closed = 1;
nodes = (
"125 158 OFFCURVE",
"107 170 OFFCURVE",
"107 190 CURVE SMOOTH",
"107 212 OFFCURVE",
"125 223 OFFCURVE",
"154 223 CURVE SMOOTH",
"183 223 OFFCURVE",
"201 212 OFFCURVE",
"201 190 CURVE SMOOTH",
"201 170 OFFCURVE",
"183 158 OFFCURVE",
"154 158 CURVE SMOOTH"
);
}
);
width = 308;
},
{
layerId = "CD42366C-28E1-4C24-AB95-7D2C522D2B07";
name = Bold;
width = 600;
}
);
},
{
glyphname = nine.denominator;
lastChange = "2015-04-08 16:47:04 +0000";
layers = (
{
layerId = UUID0;
name = Regular;
paths = (
{
closed = 1;
nodes = (
"90 276 OFFCURVE",
"44 239 OFFCURVE",
"44 182 CURVE SMOOTH",
"44 128 OFFCURVE",
"85 89 OFFCURVE",
"145 89 CURVE SMOOTH",
"176 89 OFFCURVE",
"198 99 OFFCURVE",
"223 122 CURVE",
"223 173 LINE",
"197 153 OFFCURVE",
"177 143 OFFCURVE",
"152 143 CURVE SMOOTH",
"121 143 OFFCURVE",
"103 158 OFFCURVE",
"103 182 CURVE SMOOTH",
"103 206 OFFCURVE",
"121 222 OFFCURVE",
"150 222 CURVE SMOOTH",
"187 222 OFFCURVE",
"204 195 OFFCURVE",
"204 137 CURVE SMOOTH",
"204 66 OFFCURVE",
"179 42 OFFCURVE",
"135 42 CURVE SMOOTH",
"112 42 OFFCURVE",
"87 48 OFFCURVE",
"59 65 CURVE",
"55 65 LINE",
"55 8 LINE",
"80 -5 OFFCURVE",
"109 -12 OFFCURVE",
"139 -12 CURVE SMOOTH",
"226 -12 OFFCURVE",
"264 46 OFFCURVE",
"264 135 CURVE SMOOTH",
"264 228 OFFCURVE",
"223 276 OFFCURVE",
"151 276 CURVE SMOOTH"
);
}
);
width = 308;
},
{
layerId = "CD42366C-28E1-4C24-AB95-7D2C522D2B07";
name = Bold;
width = 600;
}
);
},
{
glyphname = zero.numerator;
lastChange = "2015-04-08 16:47:04 +0000";
layers = (
{
layerId = UUID0;
name = Regular;
paths = (
{
closed = 1;
nodes = (
"253 420 OFFCURVE",
"286 483 OFFCURVE",
"286 564 CURVE SMOOTH",
"286 645 OFFCURVE",
"253 708 OFFCURVE",
"165 708 CURVE SMOOTH",
"79 708 OFFCURVE",
"44 645 OFFCURVE",
"44 564 CURVE SMOOTH",
"44 483 OFFCURVE",
"79 420 OFFCURVE",
"165 420 CURVE SMOOTH"
);
},
{
closed = 1;
nodes = (
"115 474 OFFCURVE",
"104 515 OFFCURVE",
"104 564 CURVE SMOOTH",
"104 613 OFFCURVE",
"115 654 OFFCURVE",
"165 654 CURVE SMOOTH",
"215 654 OFFCURVE",
"226 613 OFFCURVE",
"226 564 CURVE SMOOTH",
"226 515 OFFCURVE",
"215 474 OFFCURVE",
"165 474 CURVE SMOOTH"
);
}
);
width = 330;
},
{
layerId = "CD42366C-28E1-4C24-AB95-7D2C522D2B07";
name = Bold;
width = 600;
}
);
},
{
glyphname = one.numerator;
lastChange = "2015-04-08 16:47:04 +0000";
layers = (
{
layerId = UUID0;
name = Regular;
paths = (
{
closed = 1;
nodes = (
"167 431 LINE",
"167 677 LINE",
"110 677 LINE",
"110 431 LINE"
);
},
{
closed = 1;
nodes = (
"220 418 LINE",
"220 473 LINE",
"44 473 LINE",
"44 418 LINE"
);
},
{
closed = 1;
nodes = (
"167 633 LINE",
"167 696 LINE",
"118 696 LINE",
"44 647 LINE",
"52 598 LINE",
"118 633 LINE"
);
}
);
width = 264;
},
{
layerId = "CD42366C-28E1-4C24-AB95-7D2C522D2B07";
name = Bold;
width = 600;
}
);
},
{
glyphname = two.numerator;
lastChange = "2015-04-08 16:47:04 +0000";
layers = (
{
layerId = UUID0;
name = Regular;
paths = (
{
closed = 1;
nodes = (
"44 473 LINE",
"129 473 LINE",
"186 524 LINE SMOOTH",
"225 559 OFFCURVE",
"242 586 OFFCURVE",
"242 622 CURVE SMOOTH",
"242 687 OFFCURVE",
"185 708 OFFCURVE",
"136 708 CURVE SMOOTH",
"109 708 OFFCURVE",
"83 701 OFFCURVE",
"58 688 CURVE",
"58 631 LINE",
"82 646 OFFCURVE",
"109 653 OFFCURVE",
"133 653 CURVE SMOOTH",
"166 653 OFFCURVE",
"184 642 OFFCURVE",
"184 618 CURVE SMOOTH",
"184 603 OFFCURVE",
"177 586 OFFCURVE",
"144 558 CURVE SMOOTH"
);
},
{
closed = 1;
nodes = (
"44 424 LINE",
"242 424 LINE",
"242 480 LINE",
"59 480 LINE",
"44 473 LINE"
);
}
);
width = 286;
},
{
layerId = "CD42366C-28E1-4C24-AB95-7D2C522D2B07";
name = Bold;
width = 600;
}
);
},
{
glyphname = three.numerator;
lastChange = "2015-04-08 16:47:04 +0000";
layers = (
{
layerId = UUID0;
name = Regular;
paths = (
{
closed = 1;
nodes = (
"195 420 OFFCURVE",
"242 455 OFFCURVE",
"242 505 CURVE SMOOTH",
"242 554 OFFCURVE",
"198 589 OFFCURVE",
"130 589 CURVE SMOOTH",
"96 589 LINE",
"96 543 LINE",
"114 543 LINE SMOOTH",
"165 543 OFFCURVE",
"183 526 OFFCURVE",
"183 504 CURVE SMOOTH",
"183 485 OFFCURVE",
"165 473 OFFCURVE",
"126 473 CURVE SMOOTH",
"96 473 OFFCURVE",
"75 481 OFFCURVE",
"48 500 CURVE",
"44 500 LINE",
"44 443 LINE",
"70 427 OFFCURVE",
"94 420 OFFCURVE",
"125 420 CURVE SMOOTH"
);
},
{
closed = 1;
nodes = (
"96 550 LINE",
"131 550 LINE SMOOTH",
"193 550 OFFCURVE",
"236 584 OFFCURVE",
"236 631 CURVE SMOOTH",
"236 677 OFFCURVE",
"194 708 OFFCURVE",
"138 708 CURVE SMOOTH",
"104 708 OFFCURVE",
"82 700 OFFCURVE",
"56 685 CURVE",
"56 631 LINE",
"60 631 LINE",
"87 649 OFFCURVE",
"102 657 OFFCURVE",
"130 657 CURVE SMOOTH",
"167 657 OFFCURVE",
"177 645 OFFCURVE",
"177 630 CURVE SMOOTH",
"177 609 OFFCURVE",
"154 597 OFFCURVE",
"114 597 CURVE SMOOTH",
"96 597 LINE"
);
}
);
width = 286;
},
{
layerId = "CD42366C-28E1-4C24-AB95-7D2C522D2B07";
name = Bold;
width = 600;
}
);
},
{
glyphname = four.numerator;
lastChange = "2015-04-08 16:47:04 +0000";
layers = (
{
layerId = UUID0;
name = Regular;
paths = (
{
closed = 1;
nodes = (
"212 428 LINE",
"212 696 LINE",
"154 696 LINE",
"154 428 LINE"
);
},
{
closed = 1;
nodes = (
"264 493 LINE",
"264 540 LINE",
"52 540 LINE",
"22 535 LINE",
"22 493 LINE"
);
},
{
closed = 1;
nodes = (
"22 535 LINE",
"69 527 LINE",
"195 684 LINE",
"154 696 LINE"
);
}
);
width = 308;
},
{
layerId = "CD42366C-28E1-4C24-AB95-7D2C522D2B07";
name = Bold;
width = 600;
}
);
},
{
glyphname = five.numerator;
lastChange = "2015-04-08 16:47:04 +0000";
layers = (
{
layerId = UUID0;
name = Regular;
paths = (
{
closed = 1;
nodes = (
"199 412 OFFCURVE",
"242 447 OFFCURVE",
"242 506 CURVE SMOOTH",
"242 555 OFFCURVE",
"212 597 OFFCURVE",
"153 597 CURVE SMOOTH",
"117 597 OFFCURVE",
"83 582 OFFCURVE",
"53 555 CURVE",
"98 533 LINE",
"102 533 LINE",
"116 540 OFFCURVE",
"131 543 OFFCURVE",
"143 543 CURVE SMOOTH",
"171 543 OFFCURVE",
"184 527 OFFCURVE",
"184 506 CURVE SMOOTH",
"184 481 OFFCURVE",
"165 466 OFFCURVE",
"135 466 CURVE SMOOTH",
"108 466 OFFCURVE",
"73 479 OFFCURVE",
"48 498 CURVE",
"44 498 LINE",
"44 438 LINE",
"69 421 OFFCURVE",
"105 412 OFFCURVE",
"137 412 CURVE SMOOTH"
);
},
{
closed = 1;
nodes = (
"53 555 LINE",
"107 555 LINE",
"127 696 LINE",
"74 696 LINE",
"53 559 LINE"
);
},
{
closed = 1;
nodes = (
"74 643 LINE",
"230 643 LINE",
"230 696 LINE",
"74 696 LINE"
);
}
);
width = 286;
},
{
layerId = "CD42366C-28E1-4C24-AB95-7D2C522D2B07";
name = Bold;
width = 600;
}
);
},
{
glyphname = six.numerator;
lastChange = "2015-04-08 16:47:04 +0000";
layers = (
{
layerId = UUID0;
name = Regular;
paths = (
{
closed = 1;
nodes = (
"218 420 OFFCURVE",
"264 457 OFFCURVE",
"264 514 CURVE SMOOTH",
"264 568 OFFCURVE",
"223 607 OFFCURVE",
"163 607 CURVE SMOOTH",
"132 607 OFFCURVE",
"110 597 OFFCURVE",
"85 574 CURVE",
"85 523 LINE",
"111 543 OFFCURVE",
"131 553 OFFCURVE",
"157 553 CURVE SMOOTH",
"187 553 OFFCURVE",
"205 538 OFFCURVE",
"205 514 CURVE SMOOTH",
"205 490 OFFCURVE",
"187 474 OFFCURVE",
"159 474 CURVE SMOOTH",
"122 474 OFFCURVE",
"104 500 OFFCURVE",
"104 556 CURVE SMOOTH",
"104 620 OFFCURVE",
"128 654 OFFCURVE",
"173 654 CURVE SMOOTH",
"193 654 OFFCURVE",
"214 648 OFFCURVE",
"238 631 CURVE",
"242 631 LINE",
"242 688 LINE",
"220 701 OFFCURVE",
"195 708 OFFCURVE",
"168 708 CURVE SMOOTH",
"92 708 OFFCURVE",
"44 651 OFFCURVE",
"44 557 CURVE SMOOTH",
"44 470 OFFCURVE",
"85 420 OFFCURVE",
"157 420 CURVE SMOOTH"
);
}
);
width = 308;
},
{
layerId = "CD42366C-28E1-4C24-AB95-7D2C522D2B07";
name = Bold;
width = 600;
}
);
},
{
glyphname = seven.numerator;
lastChange = "2015-04-08 16:47:04 +0000";
layers = (
{
layerId = UUID0;
name = Regular;
paths = (
{
closed = 1;
nodes = (
"220 644 LINE",
"242 650 LINE",
"242 696 LINE",
"44 696 LINE",
"44 644 LINE"
);
},
{
closed = 1;
nodes = (
"53 418 LINE",
"115 418 LINE",
"242 650 LINE",
"201 681 LINE",
"53 422 LINE"
);
}
);
width = 286;
},
{
layerId = "CD42366C-28E1-4C24-AB95-7D2C522D2B07";
name = Bold;
width = 600;
}
);
},
{
glyphname = eight.numerator;
lastChange = "2015-04-08 16:47:04 +0000";
layers = (
{
layerId = UUID0;
name = Regular;
paths = (
{
closed = 1;
nodes = (
"217 420 OFFCURVE",
"264 454 OFFCURVE",
"264 501 CURVE SMOOTH",
"264 531 OFFCURVE",
"248 558 OFFCURVE",
"218 568 CURVE",
"244 577 OFFCURVE",
"259 604 OFFCURVE",
"259 632 CURVE SMOOTH",
"259 678 OFFCURVE",
"214 708 OFFCURVE",
"154 708 CURVE SMOOTH",
"94 708 OFFCURVE",
"49 678 OFFCURVE",
"49 632 CURVE SMOOTH",
"49 603 OFFCURVE",
"65 576 OFFCURVE",
"90 568 CURVE",
"62 558 OFFCURVE",
"44 533 OFFCURVE",
"44 501 CURVE SMOOTH",
"44 454 OFFCURVE",
"91 420 OFFCURVE",
"154 420 CURVE SMOOTH"
);
},
{
closed = 1;
nodes = (
"121 473 OFFCURVE",
"103 486 OFFCURVE",
"103 510 CURVE SMOOTH",
"103 534 OFFCURVE",
"122 547 OFFCURVE",
"154 547 CURVE SMOOTH",
"186 547 OFFCURVE",
"205 534 OFFCURVE",
"205 510 CURVE SMOOTH",
"205 486 OFFCURVE",
"186 473 OFFCURVE",
"154 473 CURVE SMOOTH"
);
},
{
closed = 1;
nodes = (
"125 590 OFFCURVE",
"107 602 OFFCURVE",
"107 622 CURVE SMOOTH",
"107 644 OFFCURVE",
"125 655 OFFCURVE",
"154 655 CURVE SMOOTH",
"183 655 OFFCURVE",
"201 644 OFFCURVE",
"201 622 CURVE SMOOTH",
"201 602 OFFCURVE",
"183 590 OFFCURVE",
"154 590 CURVE SMOOTH"
);
}
);
width = 308;
},
{
layerId = "CD42366C-28E1-4C24-AB95-7D2C522D2B07";
name = Bold;
width = 600;
}
);
},
{
glyphname = nine.numerator;
lastChange = "2015-04-08 16:47:04 +0000";
layers = (
{
layerId = UUID0;
name = Regular;
paths = (
{
closed = 1;
nodes = (
"90 708 OFFCURVE",
"44 671 OFFCURVE",
"44 614 CURVE SMOOTH",
"44 560 OFFCURVE",
"85 521 OFFCURVE",
"145 521 CURVE SMOOTH",
"176 521 OFFCURVE",
"198 531 OFFCURVE",
"223 554 CURVE",
"223 605 LINE",
"197 585 OFFCURVE",
"177 575 OFFCURVE",
"152 575 CURVE SMOOTH",
"121 575 OFFCURVE",
"103 590 OFFCURVE",
"103 614 CURVE SMOOTH",
"103 638 OFFCURVE",
"121 654 OFFCURVE",
"150 654 CURVE SMOOTH",
"187 654 OFFCURVE",
"204 627 OFFCURVE",
"204 569 CURVE SMOOTH",
"204 498 OFFCURVE",
"179 474 OFFCURVE",
"135 474 CURVE SMOOTH",
"112 474 OFFCURVE",
"87 480 OFFCURVE",
"59 497 CURVE",
"55 497 LINE",
"55 440 LINE",
"80 427 OFFCURVE",
"109 420 OFFCURVE",
"139 420 CURVE SMOOTH",
"226 420 OFFCURVE",
"264 478 OFFCURVE",
"264 567 CURVE SMOOTH",
"264 660 OFFCURVE",
"223 708 OFFCURVE",
"151 708 CURVE SMOOTH"
);
}
);
width = 308;
},
{
layerId = "CD42366C-28E1-4C24-AB95-7D2C522D2B07";
name = Bold;
width = 600;
}
);
},
{
color = 1;
glyphname = fraction;
lastChange = "2015-06-10 20:45:19 +0000";
layers = (
{
layerId = UUID0;
name = Regular;
paths = (
{
closed = 1;
nodes = (
"-108 0 LINE",
"-20 0 LINE",
"394 696 LINE",
"306 696 LINE"
);
}
);
width = 286;
},
{
layerId = "CD42366C-28E1-4C24-AB95-7D2C522D2B07";
name = Bold;
paths = (
{
closed = 1;
nodes = (
"-108 0 LINE",
"-20 0 LINE",
"394 696 LINE",
"306 696 LINE"
);
}
);
width = 286;
}
);
unicode = 2044;
},
{
glyphname = zeroinferior;
lastChange = "2015-04-08 16:47:04 +0000";
layers = (
{
layerId = UUID0;
name = Regular;
paths = (
{
closed = 1;
nodes = (
"253 -92 OFFCURVE",
"286 -29 OFFCURVE",
"286 52 CURVE SMOOTH",
"286 133 OFFCURVE",
"253 196 OFFCURVE",
"165 196 CURVE SMOOTH",
"79 196 OFFCURVE",
"44 133 OFFCURVE",
"44 52 CURVE SMOOTH",
"44 -29 OFFCURVE",
"79 -92 OFFCURVE",
"165 -92 CURVE SMOOTH"
);
},
{
closed = 1;
nodes = (
"115 -38 OFFCURVE",
"104 3 OFFCURVE",
"104 52 CURVE SMOOTH",
"104 101 OFFCURVE",
"115 142 OFFCURVE",
"165 142 CURVE SMOOTH",
"215 142 OFFCURVE",
"226 101 OFFCURVE",
"226 52 CURVE SMOOTH",
"226 3 OFFCURVE",
"215 -38 OFFCURVE",
"165 -38 CURVE SMOOTH"
);
}
);
width = 330;
},
{
layerId = "CD42366C-28E1-4C24-AB95-7D2C522D2B07";
name = Bold;
width = 600;
}
);
unicode = 2080;
},
{
glyphname = oneinferior;
lastChange = "2015-04-08 16:47:04 +0000";
layers = (
{
layerId = UUID0;
name = Regular;
paths = (
{
closed = 1;
nodes = (
"167 -68 LINE",
"167 178 LINE",
"110 178 LINE",
"110 -68 LINE"
);
},
{
closed = 1;
nodes = (
"220 -81 LINE",
"220 -26 LINE",
"44 -26 LINE",
"44 -81 LINE"
);
},
{
closed = 1;
nodes = (
"167 134 LINE",
"167 197 LINE",
"118 197 LINE",
"44 148 LINE",
"52 99 LINE",
"118 134 LINE"
);
}
);
width = 264;
},
{
layerId = "CD42366C-28E1-4C24-AB95-7D2C522D2B07";
name = Bold;
width = 600;
}
);
unicode = 2081;
},
{
glyphname = twoinferior;
lastChange = "2015-04-08 16:47:04 +0000";
layers = (
{
layerId = UUID0;
name = Regular;
paths = (
{
closed = 1;
nodes = (
"44 -39 LINE",
"129 -39 LINE",
"186 12 LINE SMOOTH",
"225 47 OFFCURVE",
"242 74 OFFCURVE",
"242 110 CURVE SMOOTH",
"242 175 OFFCURVE",
"185 196 OFFCURVE",
"136 196 CURVE SMOOTH",
"109 196 OFFCURVE",
"83 189 OFFCURVE",
"58 176 CURVE",
"58 119 LINE",
"82 134 OFFCURVE",
"109 141 OFFCURVE",
"133 141 CURVE SMOOTH",
"166 141 OFFCURVE",
"184 130 OFFCURVE",
"184 106 CURVE SMOOTH",
"184 91 OFFCURVE",
"177 74 OFFCURVE",
"144 46 CURVE SMOOTH"
);
},
{
closed = 1;
nodes = (
"44 -88 LINE",
"242 -88 LINE",
"242 -32 LINE",
"59 -32 LINE",
"44 -39 LINE"
);
}
);
width = 286;
},
{
layerId = "CD42366C-28E1-4C24-AB95-7D2C522D2B07";
name = Bold;
width = 600;
}
);
unicode = 2082;
},
{
glyphname = threeinferior;
lastChange = "2015-04-08 16:47:04 +0000";
layers = (
{
layerId = UUID0;
name = Regular;
paths = (
{
closed = 1;
nodes = (
"195 -92 OFFCURVE",
"242 -57 OFFCURVE",
"242 -7 CURVE SMOOTH",
"242 42 OFFCURVE",
"198 77 OFFCURVE",
"130 77 CURVE SMOOTH",
"96 77 LINE",
"96 31 LINE",
"114 31 LINE SMOOTH",
"165 31 OFFCURVE",
"183 14 OFFCURVE",
"183 -8 CURVE SMOOTH",
"183 -27 OFFCURVE",
"165 -39 OFFCURVE",
"126 -39 CURVE SMOOTH",
"96 -39 OFFCURVE",
"75 -31 OFFCURVE",
"48 -12 CURVE",
"44 -12 LINE",
"44 -69 LINE",
"70 -85 OFFCURVE",
"94 -92 OFFCURVE",
"125 -92 CURVE SMOOTH"
);
},
{
closed = 1;
nodes = (
"96 38 LINE",
"131 38 LINE SMOOTH",
"193 38 OFFCURVE",
"236 72 OFFCURVE",
"236 119 CURVE SMOOTH",
"236 165 OFFCURVE",
"194 196 OFFCURVE",
"138 196 CURVE SMOOTH",
"104 196 OFFCURVE",
"82 188 OFFCURVE",
"56 173 CURVE",
"56 119 LINE",
"60 119 LINE",
"87 137 OFFCURVE",
"102 145 OFFCURVE",
"130 145 CURVE SMOOTH",
"167 145 OFFCURVE",
"177 133 OFFCURVE",
"177 118 CURVE SMOOTH",
"177 97 OFFCURVE",
"154 85 OFFCURVE",
"114 85 CURVE SMOOTH",
"96 85 LINE"
);
}
);
width = 286;
},
{
layerId = "CD42366C-28E1-4C24-AB95-7D2C522D2B07";
name = Bold;
width = 600;
}
);
unicode = 2083;
},
{
glyphname = fourinferior;
lastChange = "2015-04-08 16:47:04 +0000";
layers = (
{
layerId = UUID0;
name = Regular;
paths = (
{
closed = 1;
nodes = (
"212 -81 LINE",
"212 198 LINE",
"154 198 LINE",
"154 -81 LINE"
);
},
{
closed = 1;
nodes = (
"264 -16 LINE",
"264 31 LINE",
"52 31 LINE",
"22 26 LINE",
"22 -16 LINE"
);
},
{
closed = 1;
nodes = (
"22 26 LINE",
"69 18 LINE",
"195 186 LINE",
"154 198 LINE"
);
}
);
width = 308;
},
{
layerId = "CD42366C-28E1-4C24-AB95-7D2C522D2B07";
name = Bold;
width = 600;
}
);
unicode = 2084;
},
{
glyphname = fiveinferior;
lastChange = "2015-04-08 16:47:04 +0000";
layers = (
{
layerId = UUID0;
name = Regular;
paths = (
{
closed = 1;
nodes = (
"199 -92 OFFCURVE",
"242 -57 OFFCURVE",
"242 2 CURVE SMOOTH",
"242 51 OFFCURVE",
"212 93 OFFCURVE",
"153 93 CURVE SMOOTH",
"117 93 OFFCURVE",
"83 78 OFFCURVE",
"53 51 CURVE",
"98 29 LINE",
"102 29 LINE",
"116 36 OFFCURVE",
"131 39 OFFCURVE",
"143 39 CURVE SMOOTH",
"171 39 OFFCURVE",
"184 23 OFFCURVE",
"184 2 CURVE SMOOTH",
"184 -23 OFFCURVE",
"165 -38 OFFCURVE",
"135 -38 CURVE SMOOTH",
"108 -38 OFFCURVE",
"73 -25 OFFCURVE",
"48 -6 CURVE",
"44 -6 LINE",
"44 -66 LINE",
"69 -83 OFFCURVE",
"105 -92 OFFCURVE",
"137 -92 CURVE SMOOTH"
);
},
{
closed = 1;
nodes = (
"53 51 LINE",
"107 51 LINE",
"127 192 LINE",
"74 192 LINE",
"53 55 LINE"
);
},
{
closed = 1;
nodes = (
"74 139 LINE",
"230 139 LINE",
"230 192 LINE",
"74 192 LINE"
);
}
);
width = 286;
},
{
layerId = "CD42366C-28E1-4C24-AB95-7D2C522D2B07";
name = Bold;
width = 600;
}
);
unicode = 2085;
},
{
glyphname = sixinferior;
lastChange = "2015-04-08 16:47:04 +0000";
layers = (
{
layerId = UUID0;
name = Regular;
paths = (
{
closed = 1;
nodes = (
"218 -92 OFFCURVE",
"264 -55 OFFCURVE",
"264 2 CURVE SMOOTH",
"264 56 OFFCURVE",
"223 95 OFFCURVE",
"163 95 CURVE SMOOTH",
"132 95 OFFCURVE",
"110 85 OFFCURVE",
"85 62 CURVE",
"85 11 LINE",
"111 31 OFFCURVE",
"131 41 OFFCURVE",
"157 41 CURVE SMOOTH",
"187 41 OFFCURVE",
"205 26 OFFCURVE",
"205 2 CURVE SMOOTH",
"205 -22 OFFCURVE",
"187 -38 OFFCURVE",
"159 -38 CURVE SMOOTH",
"122 -38 OFFCURVE",
"104 -12 OFFCURVE",
"104 44 CURVE SMOOTH",
"104 108 OFFCURVE",
"128 142 OFFCURVE",
"173 142 CURVE SMOOTH",
"193 142 OFFCURVE",
"214 136 OFFCURVE",
"238 119 CURVE",
"242 119 LINE",
"242 176 LINE",
"220 189 OFFCURVE",
"195 196 OFFCURVE",
"168 196 CURVE SMOOTH",
"92 196 OFFCURVE",
"44 139 OFFCURVE",
"44 45 CURVE SMOOTH",
"44 -42 OFFCURVE",
"85 -92 OFFCURVE",
"157 -92 CURVE SMOOTH"
);
}
);
width = 308;
},
{
layerId = "CD42366C-28E1-4C24-AB95-7D2C522D2B07";
name = Bold;
width = 600;
}
);
unicode = 2086;
},
{
glyphname = seveninferior;
lastChange = "2015-04-08 16:47:04 +0000";
layers = (
{
layerId = UUID0;
name = Regular;
paths = (
{
closed = 1;
nodes = (
"220 145 LINE",
"242 151 LINE",
"242 197 LINE",
"44 197 LINE",
"44 145 LINE"
);
},
{
closed = 1;
nodes = (
"53 -81 LINE",
"115 -81 LINE",
"242 151 LINE",
"201 182 LINE",
"53 -77 LINE"
);
}
);
width = 286;
},
{
layerId = "CD42366C-28E1-4C24-AB95-7D2C522D2B07";
name = Bold;
width = 600;
}
);
unicode = 2087;
},
{
glyphname = eightinferior;
lastChange = "2015-04-08 16:47:04 +0000";
layers = (
{
layerId = UUID0;
name = Regular;
paths = (
{
closed = 1;
nodes = (
"217 -92 OFFCURVE",
"264 -58 OFFCURVE",
"264 -11 CURVE SMOOTH",
"264 19 OFFCURVE",
"248 46 OFFCURVE",
"218 56 CURVE",
"244 65 OFFCURVE",
"259 92 OFFCURVE",
"259 120 CURVE SMOOTH",
"259 166 OFFCURVE",
"214 196 OFFCURVE",
"154 196 CURVE SMOOTH",
"94 196 OFFCURVE",
"49 166 OFFCURVE",
"49 120 CURVE SMOOTH",
"49 91 OFFCURVE",
"65 64 OFFCURVE",
"90 56 CURVE",
"62 46 OFFCURVE",
"44 21 OFFCURVE",
"44 -11 CURVE SMOOTH",
"44 -58 OFFCURVE",
"91 -92 OFFCURVE",
"154 -92 CURVE SMOOTH"
);
},
{
closed = 1;
nodes = (
"121 -39 OFFCURVE",
"103 -26 OFFCURVE",
"103 -2 CURVE SMOOTH",
"103 22 OFFCURVE",
"122 35 OFFCURVE",
"154 35 CURVE SMOOTH",
"186 35 OFFCURVE",
"205 22 OFFCURVE",
"205 -2 CURVE SMOOTH",
"205 -26 OFFCURVE",
"186 -39 OFFCURVE",
"154 -39 CURVE SMOOTH"
);
},
{
closed = 1;
nodes = (
"125 78 OFFCURVE",
"107 90 OFFCURVE",
"107 110 CURVE SMOOTH",
"107 132 OFFCURVE",
"125 143 OFFCURVE",
"154 143 CURVE SMOOTH",
"183 143 OFFCURVE",
"201 132 OFFCURVE",
"201 110 CURVE SMOOTH",
"201 90 OFFCURVE",
"183 78 OFFCURVE",
"154 78 CURVE SMOOTH"
);
}
);
width = 308;
},
{
layerId = "CD42366C-28E1-4C24-AB95-7D2C522D2B07";
name = Bold;
width = 600;
}
);
unicode = 2088;
},
{
glyphname = nineinferior;
lastChange = "2015-04-08 16:47:04 +0000";
layers = (
{
layerId = UUID0;
name = Regular;
paths = (
{
closed = 1;
nodes = (
"90 196 OFFCURVE",
"44 159 OFFCURVE",
"44 102 CURVE SMOOTH",
"44 48 OFFCURVE",
"85 9 OFFCURVE",
"145 9 CURVE SMOOTH",
"176 9 OFFCURVE",
"198 19 OFFCURVE",
"223 42 CURVE",
"223 93 LINE",
"197 73 OFFCURVE",
"177 63 OFFCURVE",
"152 63 CURVE SMOOTH",
"121 63 OFFCURVE",
"103 78 OFFCURVE",
"103 102 CURVE SMOOTH",
"103 126 OFFCURVE",
"121 142 OFFCURVE",
"150 142 CURVE SMOOTH",
"187 142 OFFCURVE",
"204 115 OFFCURVE",
"204 57 CURVE SMOOTH",
"204 -14 OFFCURVE",
"179 -38 OFFCURVE",
"135 -38 CURVE SMOOTH",
"112 -38 OFFCURVE",
"87 -32 OFFCURVE",
"59 -15 CURVE",
"55 -15 LINE",
"55 -72 LINE",
"80 -85 OFFCURVE",
"109 -92 OFFCURVE",
"139 -92 CURVE SMOOTH",
"226 -92 OFFCURVE",
"264 -34 OFFCURVE",
"264 55 CURVE SMOOTH",
"264 148 OFFCURVE",
"223 196 OFFCURVE",
"151 196 CURVE SMOOTH"
);
}
);
width = 308;
},
{
layerId = "CD42366C-28E1-4C24-AB95-7D2C522D2B07";
name = Bold;
width = 600;
}
);
unicode = 2089;
},
{
glyphname = zerosuperior;
lastChange = "2015-04-08 16:47:04 +0000";
layers = (
{
layerId = UUID0;
name = Regular;
paths = (
{
closed = 1;
nodes = (
"253 478 OFFCURVE",
"286 541 OFFCURVE",
"286 622 CURVE SMOOTH",
"286 703 OFFCURVE",
"253 766 OFFCURVE",
"165 766 CURVE SMOOTH",
"79 766 OFFCURVE",
"44 703 OFFCURVE",
"44 622 CURVE SMOOTH",
"44 541 OFFCURVE",
"79 478 OFFCURVE",
"165 478 CURVE SMOOTH"
);
},
{
closed = 1;
nodes = (
"115 532 OFFCURVE",
"104 573 OFFCURVE",
"104 622 CURVE SMOOTH",
"104 671 OFFCURVE",
"115 712 OFFCURVE",
"165 712 CURVE SMOOTH",
"215 712 OFFCURVE",
"226 671 OFFCURVE",
"226 622 CURVE SMOOTH",
"226 573 OFFCURVE",
"215 532 OFFCURVE",
"165 532 CURVE SMOOTH"
);
}
);
width = 330;
},
{
layerId = "CD42366C-28E1-4C24-AB95-7D2C522D2B07";
name = Bold;
width = 600;
}
);
unicode = 2070;
},
{
glyphname = onesuperior;
lastChange = "2015-04-08 16:47:04 +0000";
layers = (
{
layerId = UUID0;
name = Regular;
paths = (
{
closed = 1;
nodes = (
"167 489 LINE",
"167 735 LINE",
"110 735 LINE",
"110 489 LINE"
);
},
{
closed = 1;
nodes = (
"220 476 LINE",
"220 531 LINE",
"44 531 LINE",
"44 476 LINE"
);
},
{
closed = 1;
nodes = (
"167 691 LINE",
"167 754 LINE",
"118 754 LINE",
"44 705 LINE",
"52 656 LINE",
"118 691 LINE"
);
}
);
width = 264;
},
{
layerId = "CD42366C-28E1-4C24-AB95-7D2C522D2B07";
name = Bold;
width = 600;
}
);
unicode = 00B9;
},
{
glyphname = twosuperior;
lastChange = "2015-04-08 16:47:04 +0000";
layers = (
{
layerId = UUID0;
name = Regular;
paths = (
{
closed = 1;
nodes = (
"44 531 LINE",
"129 531 LINE",
"186 582 LINE SMOOTH",
"225 617 OFFCURVE",
"242 644 OFFCURVE",
"242 680 CURVE SMOOTH",
"242 745 OFFCURVE",
"185 766 OFFCURVE",
"136 766 CURVE SMOOTH",
"109 766 OFFCURVE",
"83 759 OFFCURVE",
"58 746 CURVE",
"58 689 LINE",
"82 704 OFFCURVE",
"109 711 OFFCURVE",
"133 711 CURVE SMOOTH",
"166 711 OFFCURVE",
"184 700 OFFCURVE",
"184 676 CURVE SMOOTH",
"184 661 OFFCURVE",
"177 644 OFFCURVE",
"144 616 CURVE SMOOTH"
);
},
{
closed = 1;
nodes = (
"44 482 LINE",
"242 482 LINE",
"242 538 LINE",
"59 538 LINE",
"44 531 LINE"
);
}
);
width = 286;
},
{
layerId = "CD42366C-28E1-4C24-AB95-7D2C522D2B07";
name = Bold;
width = 600;
}
);
unicode = 00B2;
},
{
glyphname = threesuperior;
lastChange = "2015-04-08 16:47:04 +0000";
layers = (
{
layerId = UUID0;
name = Regular;
paths = (
{
closed = 1;
nodes = (
"195 478 OFFCURVE",
"242 513 OFFCURVE",
"242 563 CURVE SMOOTH",
"242 612 OFFCURVE",
"198 647 OFFCURVE",
"130 647 CURVE SMOOTH",
"96 647 LINE",
"96 601 LINE",
"114 601 LINE SMOOTH",
"165 601 OFFCURVE",
"183 584 OFFCURVE",
"183 562 CURVE SMOOTH",
"183 543 OFFCURVE",
"165 531 OFFCURVE",
"126 531 CURVE SMOOTH",
"96 531 OFFCURVE",
"75 539 OFFCURVE",
"48 558 CURVE",
"44 558 LINE",
"44 501 LINE",
"70 485 OFFCURVE",
"94 478 OFFCURVE",
"125 478 CURVE SMOOTH"
);
},
{
closed = 1;
nodes = (
"96 608 LINE",
"131 608 LINE SMOOTH",
"193 608 OFFCURVE",
"236 642 OFFCURVE",
"236 689 CURVE SMOOTH",
"236 735 OFFCURVE",
"194 766 OFFCURVE",
"138 766 CURVE SMOOTH",
"104 766 OFFCURVE",
"82 758 OFFCURVE",
"56 743 CURVE",
"56 689 LINE",
"60 689 LINE",
"87 707 OFFCURVE",
"102 715 OFFCURVE",
"130 715 CURVE SMOOTH",
"167 715 OFFCURVE",
"177 703 OFFCURVE",
"177 688 CURVE SMOOTH",
"177 667 OFFCURVE",
"154 655 OFFCURVE",
"114 655 CURVE SMOOTH",
"96 655 LINE"
);
}
);
width = 286;
},
{
layerId = "CD42366C-28E1-4C24-AB95-7D2C522D2B07";
name = Bold;
width = 600;
}
);
unicode = 00B3;
},
{
glyphname = foursuperior;
lastChange = "2015-04-08 16:47:04 +0000";
layers = (
{
layerId = UUID0;
name = Regular;
paths = (
{
closed = 1;
nodes = (
"212 475 LINE",
"212 754 LINE",
"154 754 LINE",
"154 475 LINE"
);
},
{
closed = 1;
nodes = (
"264 540 LINE",
"264 587 LINE",
"52 587 LINE",
"22 582 LINE",
"22 540 LINE"
);
},
{
closed = 1;
nodes = (
"22 582 LINE",
"69 574 LINE",
"195 742 LINE",
"154 754 LINE"
);
}
);
width = 308;
},
{
layerId = "CD42366C-28E1-4C24-AB95-7D2C522D2B07";
name = Bold;
width = 600;
}
);
unicode = 2074;
},
{
glyphname = fivesuperior;
lastChange = "2015-04-08 16:47:05 +0000";
layers = (
{
layerId = UUID0;
name = Regular;
paths = (
{
closed = 1;
nodes = (
"199 470 OFFCURVE",
"242 505 OFFCURVE",
"242 564 CURVE SMOOTH",
"242 613 OFFCURVE",
"212 655 OFFCURVE",
"153 655 CURVE SMOOTH",
"117 655 OFFCURVE",
"83 640 OFFCURVE",
"53 613 CURVE",
"98 591 LINE",
"102 591 LINE",
"116 598 OFFCURVE",
"131 601 OFFCURVE",
"143 601 CURVE SMOOTH",
"171 601 OFFCURVE",
"184 585 OFFCURVE",
"184 564 CURVE SMOOTH",
"184 539 OFFCURVE",
"165 524 OFFCURVE",
"135 524 CURVE SMOOTH",
"108 524 OFFCURVE",
"73 537 OFFCURVE",
"48 556 CURVE",
"44 556 LINE",
"44 496 LINE",
"69 479 OFFCURVE",
"105 470 OFFCURVE",
"137 470 CURVE SMOOTH"
);
},
{
closed = 1;
nodes = (
"53 613 LINE",
"107 613 LINE",
"127 754 LINE",
"74 754 LINE",
"53 617 LINE"
);
},
{
closed = 1;
nodes = (
"74 701 LINE",
"230 701 LINE",
"230 754 LINE",
"74 754 LINE"
);
}
);
width = 286;
},
{
layerId = "CD42366C-28E1-4C24-AB95-7D2C522D2B07";
name = Bold;
width = 600;
}
);
unicode = 2075;
},
{
glyphname = sixsuperior;
lastChange = "2015-04-08 16:47:05 +0000";
layers = (
{
layerId = UUID0;
name = Regular;
paths = (
{
closed = 1;
nodes = (
"218 478 OFFCURVE",
"264 515 OFFCURVE",
"264 572 CURVE SMOOTH",
"264 626 OFFCURVE",
"223 665 OFFCURVE",
"163 665 CURVE SMOOTH",
"132 665 OFFCURVE",
"110 655 OFFCURVE",
"85 632 CURVE",
"85 581 LINE",
"111 601 OFFCURVE",
"131 611 OFFCURVE",
"157 611 CURVE SMOOTH",
"187 611 OFFCURVE",
"205 596 OFFCURVE",
"205 572 CURVE SMOOTH",
"205 548 OFFCURVE",
"187 532 OFFCURVE",
"159 532 CURVE SMOOTH",
"122 532 OFFCURVE",
"104 558 OFFCURVE",
"104 614 CURVE SMOOTH",
"104 678 OFFCURVE",
"128 712 OFFCURVE",
"173 712 CURVE SMOOTH",
"193 712 OFFCURVE",
"214 706 OFFCURVE",
"238 689 CURVE",
"242 689 LINE",
"242 746 LINE",
"220 759 OFFCURVE",
"195 766 OFFCURVE",
"168 766 CURVE SMOOTH",
"92 766 OFFCURVE",
"44 709 OFFCURVE",
"44 615 CURVE SMOOTH",
"44 528 OFFCURVE",
"85 478 OFFCURVE",
"157 478 CURVE SMOOTH"
);
}
);
width = 308;
},
{
layerId = "CD42366C-28E1-4C24-AB95-7D2C522D2B07";
name = Bold;
width = 600;
}
);
unicode = 2076;
},
{
glyphname = sevensuperior;
lastChange = "2015-04-08 16:47:05 +0000";
layers = (
{
layerId = UUID0;
name = Regular;
paths = (
{
closed = 1;
nodes = (
"220 702 LINE",
"242 708 LINE",
"242 754 LINE",
"44 754 LINE",
"44 702 LINE"
);
},
{
closed = 1;
nodes = (
"53 476 LINE",
"115 476 LINE",
"242 708 LINE",
"201 739 LINE",
"53 480 LINE"
);
}
);
width = 286;
},
{
layerId = "CD42366C-28E1-4C24-AB95-7D2C522D2B07";
name = Bold;
width = 600;
}
);
unicode = 2077;
},
{
glyphname = eightsuperior;
lastChange = "2015-04-08 16:47:05 +0000";
layers = (
{
layerId = UUID0;
name = Regular;
paths = (
{
closed = 1;
nodes = (
"217 478 OFFCURVE",
"264 512 OFFCURVE",
"264 559 CURVE SMOOTH",
"264 589 OFFCURVE",
"248 616 OFFCURVE",
"218 626 CURVE",
"244 635 OFFCURVE",
"259 662 OFFCURVE",
"259 690 CURVE SMOOTH",
"259 736 OFFCURVE",
"214 766 OFFCURVE",
"154 766 CURVE SMOOTH",
"94 766 OFFCURVE",
"49 736 OFFCURVE",
"49 690 CURVE SMOOTH",
"49 661 OFFCURVE",
"65 634 OFFCURVE",
"90 626 CURVE",
"62 616 OFFCURVE",
"44 591 OFFCURVE",
"44 559 CURVE SMOOTH",
"44 512 OFFCURVE",
"91 478 OFFCURVE",
"154 478 CURVE SMOOTH"
);
},
{
closed = 1;
nodes = (
"121 531 OFFCURVE",
"103 544 OFFCURVE",
"103 568 CURVE SMOOTH",
"103 592 OFFCURVE",
"122 605 OFFCURVE",
"154 605 CURVE SMOOTH",
"186 605 OFFCURVE",
"205 592 OFFCURVE",
"205 568 CURVE SMOOTH",
"205 544 OFFCURVE",
"186 531 OFFCURVE",
"154 531 CURVE SMOOTH"
);
},
{
closed = 1;
nodes = (
"125 648 OFFCURVE",
"107 660 OFFCURVE",
"107 680 CURVE SMOOTH",
"107 702 OFFCURVE",
"125 713 OFFCURVE",
"154 713 CURVE SMOOTH",
"183 713 OFFCURVE",
"201 702 OFFCURVE",
"201 680 CURVE SMOOTH",
"201 660 OFFCURVE",
"183 648 OFFCURVE",
"154 648 CURVE SMOOTH"
);
}
);
width = 308;
},
{
layerId = "CD42366C-28E1-4C24-AB95-7D2C522D2B07";
name = Bold;
width = 600;
}
);
unicode = 2078;
},
{
glyphname = ninesuperior;
lastChange = "2015-04-08 16:47:05 +0000";
layers = (
{
layerId = UUID0;
name = Regular;
paths = (
{
closed = 1;
nodes = (
"90 766 OFFCURVE",
"44 729 OFFCURVE",
"44 672 CURVE SMOOTH",
"44 618 OFFCURVE",
"85 579 OFFCURVE",
"145 579 CURVE SMOOTH",
"176 579 OFFCURVE",
"198 589 OFFCURVE",
"223 612 CURVE",
"223 663 LINE",
"197 643 OFFCURVE",
"177 633 OFFCURVE",
"152 633 CURVE SMOOTH",
"121 633 OFFCURVE",
"103 648 OFFCURVE",
"103 672 CURVE SMOOTH",
"103 696 OFFCURVE",
"121 712 OFFCURVE",
"150 712 CURVE SMOOTH",
"187 712 OFFCURVE",
"204 685 OFFCURVE",
"204 627 CURVE SMOOTH",
"204 556 OFFCURVE",
"179 532 OFFCURVE",
"135 532 CURVE SMOOTH",
"112 532 OFFCURVE",
"87 538 OFFCURVE",
"59 555 CURVE",
"55 555 LINE",
"55 498 LINE",
"80 485 OFFCURVE",
"109 478 OFFCURVE",
"139 478 CURVE SMOOTH",
"226 478 OFFCURVE",
"264 536 OFFCURVE",
"264 625 CURVE SMOOTH",
"264 718 OFFCURVE",
"223 766 OFFCURVE",
"151 766 CURVE SMOOTH"
);
}
);
width = 308;
},
{
layerId = "CD42366C-28E1-4C24-AB95-7D2C522D2B07";
name = Bold;
width = 600;
}
);
unicode = 2079;
},
{
color = 1;
glyphname = asterisk;
lastChange = "2015-06-10 20:29:41 +0000";
layers = (
{
layerId = UUID0;
name = Regular;
paths = (
{
closed = 1;
nodes = (
"189 616 LINE",
"240 505 LINE",
"298 546 LINE",
"210 628 LINE",
"211 631 LINE",
"330 645 LINE",
"308 713 LINE",
"202 654 LINE",
"199 656 LINE",
"224 774 LINE",
"152 774 LINE",
"175 657 LINE",
"172 655 LINE",
"67 714 LINE",
"44 646 LINE",
"163 632 LINE",
"164 629 LINE",
"76 547 LINE",
"134 506 LINE",
"185 616 LINE"
);
}
);
width = 374;
},
{
layerId = "CD42366C-28E1-4C24-AB95-7D2C522D2B07";
name = Bold;
paths = (
{
closed = 1;
nodes = (
"189 575 LINE",
"256 456 LINE",
"325 508 LINE",
"227 601 LINE",
"228 604 LINE",
"352 615 LINE",
"330 705 LINE",
"213 646 LINE",
"210 648 LINE",
"235 774 LINE",
"141 774 LINE",
"164 649 LINE",
"161 647 LINE",
"45 706 LINE",
"22 616 LINE",
"147 605 LINE",
"148 602 LINE",
"49 509 LINE",
"118 457 LINE",
"185 575 LINE"
);
}
);
width = 374;
}
);
unicode = 002A;
},
{
color = 1;
glyphname = backslash;
lastChange = "2015-06-10 20:29:41 +0000";
layers = (
{
layerId = UUID0;
name = Regular;
paths = (
{
closed = 1;
nodes = (
"352 -232 LINE",
"262 -232 LINE",
"0 754 LINE",
"91 754 LINE"
);
}
);
width = 352;
},
{
layerId = "CD42366C-28E1-4C24-AB95-7D2C522D2B07";
name = Bold;
paths = (
{
closed = 1;
nodes = (
"124 754 LINE",
"0 754 LINE",
"229 -232 LINE",
"352 -232 LINE"
);
}
);
width = 352;
}
);
unicode = 005C;
},
{
color = 1;
glyphname = bullet;
lastChange = "2015-06-10 20:29:41 +0000";
layers = (
{
layerId = UUID0;
name = Regular;
paths = (
{
closed = 1;
nodes = (
"236 196 OFFCURVE",
"286 240 OFFCURVE",
"286 308 CURVE SMOOTH",
"286 376 OFFCURVE",
"236 420 OFFCURVE",
"176 420 CURVE SMOOTH",
"116 420 OFFCURVE",
"66 376 OFFCURVE",
"66 308 CURVE SMOOTH",
"66 240 OFFCURVE",
"116 196 OFFCURVE",
"176 196 CURVE SMOOTH"
);
}
);
width = 352;
},
{
layerId = "CD42366C-28E1-4C24-AB95-7D2C522D2B07";
name = Bold;
paths = (
{
closed = 1;
nodes = (
"248 174 OFFCURVE",
"308 227 OFFCURVE",
"308 308 CURVE SMOOTH",
"308 389 OFFCURVE",
"248 442 OFFCURVE",
"176 442 CURVE SMOOTH",
"104 442 OFFCURVE",
"44 389 OFFCURVE",
"44 308 CURVE SMOOTH",
"44 227 OFFCURVE",
"104 174 OFFCURVE",
"176 174 CURVE SMOOTH"
);
}
);
width = 352;
}
);
unicode = 2022;
},
{
color = 1;
glyphname = colon;
lastChange = "2015-06-08 01:24:44 +0000";
layers = (
{
layerId = UUID0;
name = Regular;
paths = (
{
closed = 1;
nodes = (
"169 -12 OFFCURVE",
"200 15 OFFCURVE",
"200 57 CURVE SMOOTH",
"200 99 OFFCURVE",
"169 126 OFFCURVE",
"132 126 CURVE SMOOTH",
"95 126 OFFCURVE",
"64 99 OFFCURVE",
"64 57 CURVE SMOOTH",
"64 15 OFFCURVE",
"95 -12 OFFCURVE",
"132 -12 CURVE SMOOTH"
);
},
{
closed = 1;
nodes = (
"169 348 OFFCURVE",
"200 375 OFFCURVE",
"200 417 CURVE SMOOTH",
"200 459 OFFCURVE",
"169 486 OFFCURVE",
"132 486 CURVE SMOOTH",
"95 486 OFFCURVE",
"64 459 OFFCURVE",
"64 417 CURVE SMOOTH",
"64 375 OFFCURVE",
"95 348 OFFCURVE",
"132 348 CURVE SMOOTH"
);
}
);
width = 264;
},
{
layerId = "CD42366C-28E1-4C24-AB95-7D2C522D2B07";
name = Bold;
paths = (
{
closed = 1;
nodes = (
"177 -12 OFFCURVE",
"218 23 OFFCURVE",
"218 79 CURVE SMOOTH",
"218 131 OFFCURVE",
"177 166 OFFCURVE",
"132 166 CURVE SMOOTH",
"87 166 OFFCURVE",
"46 131 OFFCURVE",
"46 79 CURVE SMOOTH",
"46 23 OFFCURVE",
"87 -12 OFFCURVE",
"132 -12 CURVE SMOOTH"
);
},
{
closed = 1;
nodes = (
"177 308 OFFCURVE",
"218 343 OFFCURVE",
"218 399 CURVE SMOOTH",
"218 451 OFFCURVE",
"177 486 OFFCURVE",
"132 486 CURVE SMOOTH",
"87 486 OFFCURVE",
"46 451 OFFCURVE",
"46 399 CURVE SMOOTH",
"46 343 OFFCURVE",
"87 308 OFFCURVE",
"132 308 CURVE SMOOTH"
);
}
);
width = 264;
}
);
unicode = 003A;
},
{
color = 1;
glyphname = comma;
lastChange = "2015-06-08 01:24:44 +0000";
layers = (
{
layerId = UUID0;
name = Regular;
paths = (
{
closed = 1;
nodes = (
"120 -155 LINE",
"172 -99 OFFCURVE",
"203 -30 OFFCURVE",
"203 33 CURVE SMOOTH",
"203 92 OFFCURVE",
"176 126 OFFCURVE",
"129 126 CURVE SMOOTH",
"86 126 OFFCURVE",
"57 97 OFFCURVE",
"57 55 CURVE SMOOTH",
"57 16 OFFCURVE",
"82 -12 OFFCURVE",
"118 -12 CURVE SMOOTH",
"123 -12 OFFCURVE",
"127 -12 OFFCURVE",
"135 -10 CURVE",
"124 -52 OFFCURVE",
"106 -77 OFFCURVE",
"66 -118 CURVE",
"66 -122 LINE"
);
}
);
width = 264;
},
{
layerId = "CD42366C-28E1-4C24-AB95-7D2C522D2B07";
name = Bold;
paths = (
{
closed = 1;
nodes = (
"110 -175 LINE",
"185 -109 OFFCURVE",
"222 -25 OFFCURVE",
"222 57 CURVE SMOOTH",
"222 133 OFFCURVE",
"191 170 OFFCURVE",
"132 170 CURVE SMOOTH",
"73 170 OFFCURVE",
"42 131 OFFCURVE",
"42 79 CURVE SMOOTH",
"42 26 OFFCURVE",
"74 0 OFFCURVE",
"113 0 CURVE SMOOTH",
"119 0 OFFCURVE",
"126 0 OFFCURVE",
"133 2 CURVE",
"118 -48 OFFCURVE",
"95 -79 OFFCURVE",
"46 -128 CURVE",
"46 -132 LINE"
);
}
);
width = 264;
}
);
unicode = 002C;
},
